<?xml version="1.0" encoding="UTF-8" ?>
<!DOCTYPE svg PUBLIC "-//W3C//DTD SVG 1.1//EN" "http://www.w3.org/Graphics/SVG/1.1/DTD/svg11.dtd">
<svg width="1076pt" height="1076pt" viewBox="0 0 1076 1076" version="1.1" xmlns="http://www.w3.org/2000/svg">
<path fill="#eae7de" stroke="#eae7de" stroke-width="0.09375" opacity="1.00" d=" M 3.41 74.29 C 70.81 54.52 137.01 30.96 203.81 9.30 C 203.83 363.34 203.79 717.38 203.90 1071.42 C 137.10 1071.35 70.30 1071.71 3.50 1071.79 C 3.78 857.53 3.81 643.28 3.77 429.02 C 3.83 310.78 3.41 192.53 3.41 74.29 Z" />
<path fill="#555150" stroke="#555150" stroke-width="0.09375" opacity="1.00" d=" M 512.85 169.86 C 596.74 135.29 691.09 129.07 779.61 147.46 C 858.69 163.83 934.18 199.62 994.97 253.06 C 1023.15 277.71 1048.19 305.95 1069.18 336.94 C 1002.65 382.87 936.82 429.82 869.93 475.23 C 847.23 450.88 821.64 428.95 792.65 412.41 C 767.31 397.95 739.18 387.88 710.04 385.13 C 702.08 384.17 694.06 384.68 686.07 384.86 C 663.46 385.66 640.59 387.68 619.05 395.01 C 554.06 416.03 501.19 469.45 478.75 533.71 C 470.57 556.51 467.21 580.87 467.49 605.04 C 467.89 624.69 470.00 644.45 475.50 663.38 C 493.44 727.14 541.34 781.81 602.42 807.56 C 632.90 820.21 666.20 825.13 699.07 824.58 C 731.89 823.04 763.86 812.46 792.33 796.33 C 822.25 779.43 848.58 756.75 871.62 731.37 C 940.17 775.39 1006.78 822.33 1073.41 869.19 C 1005.12 963.99 902.30 1033.82 788.31 1060.24 C 741.81 1071.23 693.57 1073.71 646.02 1069.98 C 600.02 1066.31 554.55 1055.70 511.87 1038.09 C 403.57 993.84 312.60 908.15 263.02 802.07 C 246.22 766.38 234.94 728.28 227.59 689.59 C 223.53 667.59 220.65 645.34 219.61 622.98 C 214.25 475.72 282.04 327.25 398.23 236.26 C 433.51 209.54 471.94 186.83 512.85 169.86 Z" />
</svg>
