<?xml version="1.0" encoding="UTF-8" ?>
<!DOCTYPE svg PUBLIC "-//W3C//DTD SVG 1.1//EN" "http://www.w3.org/Graphics/SVG/1.1/DTD/svg11.dtd">
<svg width="1076pt" height="1076pt" viewBox="0 0 1076 1076" version="1.1" xmlns="http://www.w3.org/2000/svg">
<path fill="#ffffff" stroke="#ffffff" stroke-width="0.09375" opacity="1.00" d=" M 140.99 19.05 C 153.02 15.29 165.38 12.23 177.96 11.20 C 414.97 11.20 651.99 11.20 889.00 11.20 C 892.62 11.23 896.27 11.01 899.88 11.55 C 921.37 14.66 942.41 21.23 961.66 31.33 C 987.11 44.82 1009.33 64.09 1027.34 86.49 C 1047.58 111.73 1061.46 142.13 1066.57 174.12 C 1068.90 187.60 1069.55 201.30 1069.51 214.97 C 1069.49 434.64 1069.53 654.31 1069.48 873.99 C 1069.45 896.41 1066.57 918.98 1059.15 940.21 C 1039.21 997.86 991.73 1045.30 933.97 1064.99 C 911.54 1072.84 887.65 1075.15 864.02 1075.45 C 812.36 1075.31 760.70 1075.45 709.04 1075.35 C 698.25 1074.52 686.50 1074.01 677.53 1067.21 C 670.04 1060.37 669.49 1049.46 669.28 1039.99 C 669.29 988.64 669.30 937.30 669.30 885.96 C 669.76 867.17 668.60 848.19 663.87 829.95 C 659.63 813.31 652.12 797.24 640.50 784.46 C 638.38 782.02 635.89 779.95 633.75 777.54 C 668.05 773.68 702.53 767.86 734.70 754.88 C 757.57 745.37 779.82 733.81 799.12 718.14 C 818.56 702.66 834.82 683.10 845.76 660.74 C 867.02 618.89 875.86 571.66 876.60 525.00 C 876.93 506.95 876.42 488.77 872.84 471.02 C 865.64 434.04 847.96 399.10 822.12 371.65 C 830.18 351.83 833.79 330.33 833.37 308.98 C 832.96 283.56 827.34 258.41 818.41 234.67 C 817.66 233.10 817.43 231.14 816.22 229.87 C 799.45 225.69 782.00 229.75 766.10 235.45 C 748.32 241.96 730.72 249.10 714.06 258.14 C 698.92 266.26 684.31 275.31 669.93 284.70 C 583.74 260.85 491.13 260.64 404.89 284.34 C 403.38 285.14 402.17 283.74 400.99 283.06 C 370.08 261.62 335.64 245.66 300.07 233.65 C 286.07 229.32 270.95 226.31 256.41 229.72 C 250.22 244.19 246.03 259.57 243.11 275.05 C 237.10 307.20 238.78 341.27 251.22 371.75 C 228.64 395.55 212.35 425.17 203.78 456.81 C 197.39 479.59 196.04 503.42 196.73 526.96 C 197.66 571.40 206.12 616.24 225.61 656.42 C 232.47 670.80 240.86 684.52 251.39 696.51 C 265.91 713.31 283.67 727.17 303.01 738.01 C 317.43 745.76 332.12 753.16 347.63 758.53 C 377.07 769.00 408.07 774.16 439.04 777.57 C 419.41 796.04 408.65 822.30 405.53 848.74 C 388.01 857.42 368.48 861.23 349.08 862.39 C 339.73 862.71 330.27 863.24 321.04 861.34 C 302.37 857.66 285.61 847.11 272.35 833.70 C 259.27 820.90 251.55 803.99 240.38 789.71 C 234.53 782.20 227.13 776.11 219.60 770.38 C 204.99 759.26 187.60 750.72 168.99 749.85 C 161.35 749.76 152.86 749.59 146.47 754.44 C 144.25 756.12 144.40 759.32 145.52 761.61 C 147.95 766.52 151.24 771.04 155.32 774.71 C 162.50 781.21 171.33 785.43 178.92 791.37 C 183.06 794.46 186.41 798.43 189.87 802.24 C 201.86 815.91 211.78 831.41 219.05 848.09 C 223.83 858.62 227.40 869.75 233.51 879.64 C 243.83 895.84 259.46 908.28 276.93 916.05 C 290.42 922.32 305.25 924.63 319.88 926.49 C 347.86 929.98 376.43 929.21 404.08 923.48 C 404.04 958.65 404.46 993.82 404.54 1029.00 C 404.40 1037.71 405.59 1046.73 402.65 1055.14 C 399.51 1064.91 390.75 1072.97 380.40 1074.19 C 365.67 1075.81 350.82 1075.29 336.03 1075.37 C 301.66 1075.36 267.30 1075.37 232.94 1075.37 C 218.29 1075.19 203.59 1075.97 188.97 1074.60 C 159.93 1072.79 131.22 1064.53 105.94 1050.06 C 79.89 1034.77 57.02 1013.98 39.46 989.39 C 20.16 962.63 8.19 930.72 5.04 897.89 C 3.46 883.30 3.86 868.61 3.81 853.97 C 3.82 638.65 3.79 423.33 3.82 208.00 C 3.81 167.29 16.20 126.28 40.67 93.54 C 65.68 59.51 100.55 32.05 140.99 19.05 Z" />
<path fill="#ffffff" stroke="#ffffff" stroke-width="0.09375" opacity="1.00" d=" M 194.18 766.25 C 199.16 764.58 204.88 768.26 206.85 772.85 C 206.38 775.39 203.42 776.78 201.04 777.09 C 196.96 777.18 193.15 774.55 191.43 770.92 C 191.11 769.01 192.44 767.00 194.18 766.25 Z" />
<path fill="#ffffff" stroke="#ffffff" stroke-width="0.09375" opacity="1.00" d=" M 211.95 787.12 C 214.09 785.17 216.82 783.38 219.87 784.17 C 225.03 785.42 228.37 790.22 230.05 794.97 C 227.95 797.03 225.77 799.01 223.63 801.03 C 217.75 798.70 213.07 793.40 211.95 787.12 Z" />
<path fill="#ffffff" stroke="#ffffff" stroke-width="0.09375" opacity="1.00" d=" M 237.46 811.60 C 240.42 809.95 244.00 811.53 246.10 813.84 C 249.11 817.06 251.09 821.53 250.64 825.99 C 249.71 829.10 246.06 831.47 242.88 830.11 C 238.11 828.45 234.54 823.87 233.62 818.96 C 233.00 815.96 234.60 812.75 237.46 811.60 Z" />
<path fill="#ffffff" stroke="#ffffff" stroke-width="0.09375" opacity="1.00" d=" M 263.44 841.43 C 267.90 839.97 271.97 843.16 274.81 846.25 C 276.52 848.28 278.68 850.21 279.22 852.94 C 279.64 857.89 273.90 863.13 269.11 860.60 C 264.73 858.34 260.96 854.82 258.45 850.59 C 256.98 846.81 260.13 842.91 263.44 841.43 Z" />
<path fill="#ffffff" stroke="#ffffff" stroke-width="0.09375" opacity="1.00" d=" M 298.36 865.39 C 304.16 863.29 311.58 864.93 315.41 869.95 C 318.45 873.93 316.09 880.68 310.93 881.30 C 306.12 881.76 301.49 879.62 297.23 877.63 C 292.35 875.20 293.75 867.31 298.36 865.39 Z" />
<path fill="#ffffff" stroke="#ffffff" stroke-width="0.09375" opacity="1.00" d=" M 386.51 866.82 C 390.26 865.70 394.49 865.95 397.73 868.29 C 400.91 870.23 402.02 875.40 398.98 877.95 C 394.13 882.33 386.00 884.89 380.28 880.73 C 375.56 875.75 380.16 867.28 386.51 866.82 Z" />
<path fill="#ffffff" stroke="#ffffff" stroke-width="0.09375" opacity="1.00" d=" M 346.17 872.22 C 349.72 871.57 353.62 871.41 356.90 873.17 C 361.27 875.48 361.59 882.74 357.22 885.23 C 353.08 887.48 348.15 887.24 343.60 886.96 C 337.66 886.69 335.31 877.53 340.07 874.19 C 341.88 873.00 344.08 872.64 346.17 872.22 Z" />
</svg>
