<?xml version="1.0" encoding="UTF-8" ?>
<!DOCTYPE svg PUBLIC "-//W3C//DTD SVG 1.1//EN" "http://www.w3.org/Graphics/SVG/1.1/DTD/svg11.dtd">
<svg width="600pt" height="790pt" viewBox="0 0 600 790" version="1.1" xmlns="http://www.w3.org/2000/svg">
<path fill="#cd191e" stroke="#cd191e" stroke-width="0.09375" opacity="1.00" d=" M 97.45 24.67 C 115.26 21.98 133.90 24.88 149.94 33.13 C 167.48 42.04 181.81 57.10 189.81 75.08 C 197.65 92.48 199.42 112.50 194.91 131.04 C 190.30 150.34 178.74 167.86 162.90 179.79 C 150.77 189.00 136.18 194.94 121.05 196.72 C 103.27 198.92 84.83 195.44 69.11 186.85 C 52.20 177.70 38.50 162.78 30.87 145.13 C 21.63 124.06 21.31 99.29 30.00 77.99 C 41.07 50.01 67.65 28.94 97.45 24.67 Z" />
<path fill="#2f9e41" stroke="#2f9e41" stroke-width="0.09375" opacity="1.00" d=" M 232.28 32.25 C 235.43 31.34 238.75 31.59 242.00 31.56 C 282.32 31.59 322.65 31.54 362.98 31.58 C 371.32 31.29 378.94 38.59 378.91 46.94 C 378.98 89.30 378.96 131.67 378.92 174.04 C 378.97 182.42 371.34 189.79 362.96 189.46 C 322.64 189.48 282.31 189.45 241.98 189.47 C 237.77 189.48 233.26 189.82 229.46 187.64 C 224.16 184.91 220.81 179.02 221.05 173.07 C 221.05 131.38 221.05 89.69 221.05 48.00 C 220.70 40.99 225.53 34.19 232.28 32.25 Z" />
<path fill="#2f9e41" stroke="#2f9e41" stroke-width="0.09375" opacity="1.00" d=" M 422.17 32.13 C 424.06 31.63 426.04 31.57 428.00 31.55 C 469.64 31.61 511.29 31.51 552.94 31.60 C 561.13 31.53 568.44 38.82 568.39 47.02 C 568.45 89.35 568.44 131.68 568.39 174.01 C 568.45 182.21 561.16 189.52 552.95 189.44 C 512.31 189.50 471.67 189.44 431.02 189.48 C 427.05 189.49 422.82 189.75 419.22 187.78 C 413.74 185.10 410.24 179.07 410.52 172.99 C 410.55 131.01 410.48 89.02 410.55 47.04 C 410.54 40.20 415.58 33.84 422.17 32.13 Z" />
<path fill="#2f9e41" stroke="#2f9e41" stroke-width="0.09375" opacity="1.00" d=" M 45.18 221.23 C 87.80 220.85 130.44 221.18 173.06 221.07 C 178.99 220.81 184.89 224.15 187.62 229.43 C 189.80 233.25 189.49 237.78 189.48 242.01 C 189.45 282.34 189.50 322.67 189.46 363.00 C 189.76 371.34 182.45 378.96 174.09 378.93 C 131.70 378.99 89.31 379.00 46.92 378.93 C 38.59 378.93 31.30 371.33 31.59 363.01 C 31.57 321.02 31.57 279.02 31.59 237.02 C 31.34 229.32 37.53 222.11 45.18 221.23 Z" />
<path fill="#2f9e41" stroke="#2f9e41" stroke-width="0.09375" opacity="1.00" d=" M 235.20 221.17 C 277.80 220.94 320.43 221.12 363.04 221.08 C 371.56 220.77 379.21 228.43 378.93 236.94 C 378.96 278.98 378.96 321.02 378.93 363.06 C 379.06 369.46 374.86 375.67 368.85 377.88 C 365.73 379.18 362.29 378.95 359.00 378.98 C 318.32 378.94 277.65 379.00 236.98 378.95 C 228.45 379.24 220.76 371.58 221.07 363.05 C 221.04 321.03 221.04 279.00 221.07 236.98 C 220.82 229.10 227.33 221.78 235.20 221.17 Z" />
<path fill="#2f9e41" stroke="#2f9e41" stroke-width="0.09375" opacity="1.00" d=" M 41.47 411.68 C 44.80 410.27 48.49 410.54 52.02 410.52 C 92.67 410.57 133.31 410.48 173.95 410.56 C 182.18 410.47 189.52 417.80 189.45 426.03 C 189.52 468.00 189.45 509.97 189.48 551.95 C 189.75 558.07 186.21 564.15 180.67 566.80 C 176.75 568.87 172.20 568.40 167.94 568.44 C 127.97 568.43 87.99 568.43 48.02 568.44 C 41.94 568.70 35.91 565.18 33.25 559.70 C 31.15 555.80 31.61 551.24 31.57 546.98 C 31.58 506.99 31.57 466.99 31.58 426.99 C 31.26 420.46 35.38 414.06 41.47 411.68 Z" />
<path fill="#2f9e41" stroke="#2f9e41" stroke-width="0.09375" opacity="1.00" d=" M 231.38 411.51 C 234.75 410.24 238.42 410.56 241.95 410.52 C 282.27 410.55 322.59 410.51 362.91 410.54 C 369.24 410.37 375.38 414.40 377.73 420.27 C 379.24 423.66 378.92 427.44 378.96 431.05 C 378.91 471.75 379.01 512.44 378.91 553.14 C 378.90 561.46 371.29 568.74 362.97 568.43 C 322.64 568.45 282.30 568.42 241.96 568.44 C 238.00 568.42 233.79 568.77 230.14 566.94 C 224.49 564.37 220.80 558.26 221.05 552.07 C 221.04 511.71 221.07 471.35 221.04 430.99 C 221.09 427.69 220.78 424.28 221.94 421.13 C 223.44 416.72 227.02 413.12 231.38 411.51 Z" />
<path fill="#2f9e41" stroke="#2f9e41" stroke-width="0.09375" opacity="1.00" d=" M 420.38 411.69 C 422.76 410.69 425.38 410.51 427.94 410.52 C 469.61 410.57 511.27 410.48 552.94 410.56 C 561.17 410.49 568.49 417.84 568.39 426.07 C 568.45 468.35 568.44 510.63 568.39 552.91 C 568.49 561.14 561.17 568.48 552.94 568.41 C 510.64 568.45 468.33 568.45 426.03 568.41 C 417.82 568.49 410.48 561.18 410.55 552.97 C 410.48 512.32 410.56 471.68 410.52 431.03 C 410.54 427.72 410.28 424.31 411.40 421.13 C 412.86 416.89 416.23 413.38 420.38 411.69 Z" />
<path fill="#2f9e41" stroke="#2f9e41" stroke-width="0.09375" opacity="1.00" d=" M 45.25 600.18 C 87.82 599.83 130.41 600.14 172.99 600.03 C 181.75 599.44 189.83 607.23 189.47 616.03 C 189.49 656.34 189.46 696.66 189.48 736.98 C 189.49 741.21 189.80 745.74 187.61 749.55 C 184.88 754.85 178.96 758.16 173.01 757.93 C 131.01 757.91 89.00 757.98 47.00 757.89 C 38.65 757.93 31.30 750.33 31.59 741.99 C 31.57 699.99 31.57 657.99 31.59 615.99 C 31.33 608.27 37.56 601.02 45.25 600.18 Z" />
<path fill="#2f9e41" stroke="#2f9e41" stroke-width="0.09375" opacity="1.00" d=" M 232.40 600.65 C 234.21 600.12 236.10 600.04 237.98 600.02 C 280.02 600.09 322.06 599.95 364.10 600.09 C 372.67 600.29 379.65 608.51 378.96 616.97 C 378.92 658.68 378.98 700.39 378.93 742.10 C 379.17 750.57 371.58 758.16 363.11 757.91 C 321.04 757.95 278.97 757.95 236.90 757.91 C 228.42 758.15 220.80 750.55 221.07 742.07 C 221.04 700.02 221.04 657.97 221.06 615.92 C 220.89 609.03 225.79 602.51 232.40 600.65 Z" />
</svg>
