<?xml version="1.0" encoding="UTF-8" ?>
<!DOCTYPE svg PUBLIC "-//W3C//DTD SVG 1.1//EN" "http://www.w3.org/Graphics/SVG/1.1/DTD/svg11.dtd">
<svg width="1076pt" height="1076pt" viewBox="0 0 1076 1076" version="1.1" xmlns="http://www.w3.org/2000/svg">
<path fill="#ffffff" stroke="#ffffff" stroke-width="0.09375" opacity="1.00" d=" M 379.68 0.00 L 681.73 0.00 C 692.81 0.17 703.89 0.24 714.96 0.66 C 732.55 3.09 750.33 1.11 767.99 2.08 C 775.01 2.40 781.94 3.86 788.98 3.78 C 798.35 3.76 807.78 3.26 817.05 5.00 C 845.40 6.46 873.47 11.56 900.89 18.85 C 927.78 27.38 954.00 39.16 976.40 56.52 C 1000.34 76.10 1021.85 99.46 1035.68 127.36 C 1043.68 143.93 1050.64 161.06 1055.43 178.85 C 1061.60 204.09 1066.34 229.83 1067.12 255.86 C 1069.62 269.41 1067.61 283.24 1069.02 296.88 C 1071.56 316.84 1069.55 336.98 1070.57 357.02 C 1070.69 362.69 1071.60 368.31 1071.70 373.98 C 1071.86 388.30 1071.47 402.65 1072.81 416.93 C 1072.95 448.94 1072.76 480.96 1073.09 512.97 C 1073.10 540.98 1072.81 568.99 1072.90 597.00 C 1072.55 619.32 1073.69 641.69 1072.02 663.98 C 1071.54 679.96 1072.08 695.96 1071.35 711.93 C 1071.33 732.67 1071.79 753.47 1069.44 774.11 C 1067.49 788.74 1069.59 803.61 1067.15 818.19 C 1066.53 829.48 1065.73 840.77 1063.97 851.96 C 1060.63 873.23 1056.25 894.46 1048.60 914.65 C 1041.14 935.12 1031.71 955.11 1018.47 972.51 C 996.05 1001.34 967.45 1026.19 933.58 1040.51 C 896.92 1056.66 857.07 1064.82 817.16 1066.88 C 802.84 1069.17 788.26 1066.92 773.95 1069.19 C 748.47 1072.42 722.74 1069.92 697.17 1071.24 C 687.82 1072.30 678.40 1072.59 668.99 1072.46 C 583.67 1072.91 498.34 1073.03 413.02 1072.49 C 404.02 1072.46 395.00 1072.60 386.03 1071.79 C 366.04 1070.76 346.03 1071.27 326.03 1070.91 C 320.71 1070.89 315.37 1071.07 310.11 1070.19 C 294.86 1068.10 279.40 1070.35 264.19 1067.89 C 250.26 1066.76 236.21 1066.42 222.44 1063.78 C 188.86 1058.88 155.59 1049.52 125.69 1033.20 C 99.76 1019.47 78.19 998.84 59.73 976.28 C 35.75 944.40 21.34 906.07 14.68 866.94 C 13.38 859.30 11.46 851.75 11.11 843.98 C 10.08 835.94 9.37 827.87 9.14 819.79 C 5.00 803.18 8.04 785.96 5.85 769.15 C 3.73 751.48 5.89 733.69 4.75 715.98 C 3.83 702.32 4.76 688.59 3.34 674.95 C 3.11 578.30 3.01 481.64 3.15 384.99 C 4.50 361.68 5.15 338.34 4.81 315.00 C 4.53 303.94 6.80 293.04 7.55 282.05 C 7.76 271.36 7.00 260.59 8.89 249.99 C 10.86 221.13 15.54 192.33 24.62 164.81 C 30.72 146.38 38.28 128.29 48.88 111.97 C 61.83 91.74 78.48 74.06 96.98 58.81 C 111.42 46.88 127.81 37.41 144.99 30.01 C 169.91 19.31 196.45 12.78 223.20 8.65 C 241.06 6.75 258.95 4.19 276.97 4.73 C 286.72 5.02 296.27 2.62 305.96 2.01 C 324.67 1.40 343.47 2.85 362.11 0.74 C 367.95 0.22 373.83 0.49 379.68 0.00 M 867.58 109.77 C 860.88 111.67 854.20 113.85 848.05 117.19 C 829.72 127.00 815.48 144.22 809.37 164.10 C 805.83 174.68 806.22 185.99 806.70 196.98 C 808.81 221.61 824.39 243.98 845.41 256.51 C 863.18 266.71 884.96 270.05 904.86 264.88 C 916.80 261.63 928.41 256.29 937.55 247.78 C 944.96 240.96 951.85 233.24 956.15 224.04 C 960.10 215.93 962.80 207.24 964.56 198.40 C 964.95 192.94 964.72 187.44 964.77 181.97 C 964.80 174.78 962.42 167.95 960.37 161.16 C 958.23 154.35 955.43 147.63 950.99 141.98 C 944.47 133.61 937.07 125.71 928.04 120.00 C 922.72 116.59 916.76 114.37 910.88 112.15 C 905.17 110.03 899.15 108.40 893.02 108.63 C 884.54 108.92 875.93 107.85 867.58 109.77 M 530.50 199.82 C 519.98 201.16 509.28 199.67 498.81 201.66 C 446.34 207.40 395.59 226.55 351.70 255.75 C 313.55 281.12 280.81 314.53 255.95 353.00 C 226.23 398.65 208.10 451.68 203.13 505.90 C 203.53 519.61 200.43 533.30 202.31 546.98 C 203.44 554.61 202.59 562.33 202.99 569.99 C 206.77 603.42 214.47 636.53 227.49 667.61 C 230.61 674.73 233.89 681.80 236.92 688.97 C 242.05 698.11 247.38 707.14 252.78 716.12 C 257.95 724.81 264.27 732.72 270.06 740.99 C 282.46 757.69 297.28 772.38 312.31 786.69 C 340.06 811.67 371.86 832.12 406.22 846.76 C 439.45 860.97 475.06 869.47 511.06 872.42 C 533.53 871.66 556.14 874.05 578.50 870.77 C 591.72 870.31 604.51 866.70 617.44 864.28 C 633.91 860.31 649.91 854.67 665.77 848.76 C 674.97 845.44 683.45 840.51 692.28 836.36 C 705.23 829.76 717.48 821.90 729.43 813.64 C 737.76 807.66 746.29 801.89 753.88 794.94 C 772.37 778.79 789.69 761.17 804.42 741.49 C 837.75 697.91 860.09 646.05 869.09 591.94 C 871.26 578.07 873.25 564.07 872.87 550.00 C 872.80 536.36 873.41 522.71 872.61 509.09 C 867.75 449.37 847.10 390.74 812.18 341.93 C 767.03 277.35 698.34 229.64 622.03 209.96 C 605.30 205.47 588.12 203.07 570.99 200.80 C 563.98 200.33 556.93 200.90 549.94 200.12 C 543.50 199.35 536.95 198.83 530.50 199.82 Z" />
<path fill="#ffffff" stroke="#ffffff" stroke-width="0.09375" opacity="1.00" d=" M 523.27 319.41 C 535.82 319.09 548.37 319.42 560.91 319.71 C 597.05 324.06 632.40 336.81 662.09 358.04 C 711.38 392.06 744.94 447.63 752.82 506.94 C 755.33 519.49 754.36 532.32 754.41 545.02 C 754.79 554.81 753.05 564.52 751.48 574.15 C 747.64 595.22 741.06 615.88 731.04 634.86 C 724.72 646.57 717.83 658.04 709.61 668.53 C 674.84 713.49 622.02 744.42 565.46 751.27 C 558.78 752.94 551.89 753.48 545.02 753.16 C 533.97 752.71 522.73 754.01 511.85 751.51 C 487.46 749.01 463.80 741.07 441.92 730.20 C 408.65 713.79 380.02 688.46 359.05 657.92 C 337.99 626.89 324.90 590.40 321.85 553.00 C 322.11 536.94 320.45 520.69 323.46 504.80 C 328.78 465.58 345.58 428.12 370.64 397.57 C 380.72 385.71 391.81 374.66 403.99 364.97 C 421.14 351.46 440.48 340.83 460.81 332.95 C 471.27 328.99 481.91 325.35 492.94 323.36 C 502.98 321.54 513.03 319.50 523.27 319.41 Z" />
</svg>
