<?xml version="1.0" encoding="UTF-8" ?>
<!DOCTYPE svg PUBLIC "-//W3C//DTD SVG 1.1//EN" "http://www.w3.org/Graphics/SVG/1.1/DTD/svg11.dtd">
<svg width="122pt" height="124pt" viewBox="0 0 122 124" version="1.1" xmlns="http://www.w3.org/2000/svg">
<path fill="#ffffff" stroke="#ffffff" stroke-width="0.09375" opacity="1.00" d=" M 3.38 9.97 C 3.08 5.37 7.42 1.38 11.94 1.72 C 45.98 1.72 80.02 1.72 114.06 1.72 C 117.94 1.43 122.05 4.19 122.00 8.35 L 122.00 115.79 C 121.37 118.27 119.76 121.05 116.96 121.35 C 113.33 121.91 109.65 121.64 106.00 121.68 C 75.00 121.67 44.00 121.67 13.00 121.69 C 10.40 121.60 7.43 121.49 5.47 119.53 C 3.28 117.27 3.35 113.93 3.30 111.00 C 3.39 77.32 3.24 43.64 3.38 9.97 M 27.24 22.03 C 19.68 23.18 17.80 34.20 23.56 38.54 C 26.32 40.98 30.22 40.75 33.62 40.33 C 37.72 39.36 41.14 35.36 40.77 31.03 C 41.03 24.41 33.13 20.00 27.24 22.03 M 76.71 47.73 C 73.10 48.88 70.55 51.83 67.58 54.02 C 67.50 52.06 67.46 50.11 67.24 48.16 C 61.29 48.35 55.34 48.08 49.40 48.35 C 49.57 65.86 49.15 83.37 49.34 100.87 C 49.52 101.27 49.87 102.05 50.04 102.44 C 55.85 102.77 61.67 102.57 67.48 102.50 C 67.64 92.65 67.50 82.80 67.54 72.94 C 67.56 71.03 67.61 69.09 68.15 67.23 C 69.74 65.20 71.29 62.99 73.60 61.71 C 76.17 61.26 78.84 61.30 81.42 61.67 C 84.73 63.77 86.18 67.65 86.41 71.42 C 86.82 81.74 86.50 92.07 86.69 102.39 C 92.61 102.76 98.55 102.60 104.47 102.49 C 104.63 89.99 104.68 77.47 104.43 64.97 C 103.63 59.67 101.26 54.32 97.02 50.87 C 91.39 46.41 83.43 45.45 76.71 47.73 M 21.18 48.25 C 20.45 53.81 20.91 59.42 20.80 65.00 C 20.88 77.45 20.61 89.90 20.94 102.35 C 27.09 102.75 33.26 102.55 39.42 102.47 C 39.43 84.37 39.75 66.24 39.26 48.15 C 33.23 48.30 27.21 48.15 21.18 48.25 Z" />
</svg>
