<?xml version="1.0" encoding="UTF-8" ?>
<!DOCTYPE svg PUBLIC "-//W3C//DTD SVG 1.1//EN" "http://www.w3.org/Graphics/SVG/1.1/DTD/svg11.dtd">
<svg width="1076pt" height="1076pt" viewBox="0 0 1076 1076" version="1.1" xmlns="http://www.w3.org/2000/svg">
<path fill="#ffffff" stroke="#ffffff" stroke-width="0.09375" opacity="1.00" d=" M 203.88 0.00 L 867.29 0.00 C 886.23 2.75 904.15 9.74 922.08 16.14 C 981.20 37.91 1030.83 84.33 1056.34 141.95 C 1061.00 152.32 1064.52 163.15 1067.87 173.99 C 1070.93 184.26 1073.78 194.65 1075.15 205.31 L 1076.00 202.27 L 1076.00 872.34 C 1073.64 880.58 1072.88 889.18 1070.57 897.44 C 1050.43 977.42 986.26 1045.18 906.79 1068.03 C 890.10 1072.96 872.77 1075.13 855.43 1076.00 L 215.83 1076.00 C 202.17 1074.83 188.44 1073.56 175.09 1070.30 C 146.80 1063.53 120.30 1050.40 96.56 1033.74 C 69.40 1014.80 46.76 989.66 29.81 961.26 C 10.76 930.19 2.04 893.79 0.00 857.66 L 0.00 714.40 C 1.15 702.49 0.84 690.48 0.00 678.56 L 0.00 233.36 C 1.33 206.51 1.62 178.61 12.95 153.67 C 35.39 94.14 83.15 44.94 141.50 19.83 C 151.17 15.65 161.19 12.36 171.15 8.94 C 181.85 5.26 192.70 1.91 203.88 0.00 M 266.95 170.90 C 250.59 171.45 235.49 179.66 224.07 191.03 C 217.68 197.49 211.69 204.61 207.99 212.98 C 203.78 222.38 201.94 232.75 202.10 243.01 C 201.95 253.95 203.31 265.13 207.99 275.13 C 216.49 294.08 232.66 309.56 252.04 317.06 C 262.22 318.72 272.57 319.74 282.90 319.37 C 293.30 318.87 303.93 316.46 312.59 310.46 C 323.71 302.44 333.52 292.42 340.42 280.53 C 348.87 265.62 352.13 247.70 348.71 230.85 C 344.61 210.38 331.90 191.64 313.97 180.83 C 300.04 172.15 283.13 169.41 266.95 170.90 M 602.53 430.51 C 595.40 438.04 586.62 444.07 576.90 447.71 C 576.81 429.86 576.57 412.02 575.54 394.20 C 546.08 391.64 516.46 393.49 486.94 392.87 C 470.67 392.68 454.40 393.67 438.23 395.48 C 436.74 404.59 435.85 413.81 435.58 423.04 C 436.04 557.36 435.71 691.67 435.70 825.99 C 435.74 835.32 435.32 844.73 436.97 853.96 C 437.81 857.71 439.59 861.86 443.31 863.51 C 452.71 865.51 462.39 864.64 471.93 864.83 C 506.00 864.51 540.07 864.98 574.13 864.45 C 578.96 847.43 580.32 829.62 579.65 812.00 C 579.54 735.67 579.40 659.34 579.51 583.01 C 579.28 559.82 589.88 537.51 605.60 520.84 C 615.76 510.38 627.69 500.74 642.03 496.95 C 654.39 493.49 667.42 493.70 680.09 494.81 C 704.79 497.56 726.35 515.33 736.08 537.86 C 742.37 553.18 746.16 569.47 747.77 585.94 C 750.51 611.54 749.00 637.31 749.18 663.00 C 749.11 717.99 749.40 772.99 749.10 827.98 C 749.04 841.18 749.19 854.47 751.32 867.53 C 797.38 866.79 843.46 868.08 889.51 866.80 C 890.24 774.20 889.60 681.59 889.89 588.98 C 890.40 577.03 890.17 565.04 889.34 553.11 C 888.22 540.70 885.13 528.58 882.26 516.49 C 875.27 488.11 864.63 459.90 845.91 437.07 C 834.88 422.34 818.95 412.35 802.74 404.19 C 793.98 399.91 785.27 395.41 776.02 392.26 C 717.17 371.52 646.95 386.40 602.53 430.51 M 206.73 393.17 C 206.62 442.11 206.51 491.06 206.37 540.00 C 206.10 649.05 206.40 758.09 206.83 867.13 C 253.45 867.22 300.08 867.85 346.69 866.78 C 346.53 814.51 347.24 762.25 347.11 709.98 C 347.17 652.33 347.14 594.68 347.11 537.03 C 347.20 489.12 346.70 441.21 346.75 393.29 C 313.16 392.75 279.56 392.52 245.96 392.80 C 232.89 392.99 219.80 392.60 206.73 393.17 Z" />
<path fill="#000000" stroke="#000000" stroke-width="0.09375" opacity="1.00" d=" M 0.00 678.56 C 0.84 690.48 1.15 702.49 0.00 714.40 L 0.00 678.56 Z" />
</svg>
