<?xml version="1.0" encoding="UTF-8" ?>
<!DOCTYPE svg PUBLIC "-//W3C//DTD SVG 1.1//EN" "http://www.w3.org/Graphics/SVG/1.1/DTD/svg11.dtd">
<svg width="1792pt" height="504pt" viewBox="0 0 1792 504" version="1.1" xmlns="http://www.w3.org/2000/svg">
<path fill="#eae7de" stroke="#eae7de" stroke-width="0.09375" opacity="1.00" d=" M 1.26 83.15 C 25.31 76.12 48.91 67.67 72.74 59.97 C 72.74 186.37 72.72 312.78 72.78 439.19 C 48.95 439.18 25.13 439.27 1.30 439.31 C 1.40 320.59 1.45 201.87 1.26 83.15 Z" />
<path fill="#eae7de" stroke="#eae7de" stroke-width="0.09375" opacity="1.00" d=" M 211.18 160.21 C 236.83 132.99 262.50 105.79 288.15 78.56 C 288.10 92.23 288.16 105.90 288.11 119.57 C 275.26 133.04 262.55 146.66 249.76 160.20 C 236.90 160.21 224.04 160.19 211.18 160.21 Z" />
<path fill="#555150" stroke="#555150" stroke-width="0.09375" opacity="1.00" d=" M 1387.57 116.18 C 1410.82 108.62 1433.96 100.72 1457.37 93.67 C 1458.08 121.53 1457.53 149.39 1457.74 177.25 C 1482.62 177.66 1507.52 177.20 1532.41 177.75 C 1532.53 199.36 1532.46 220.97 1532.46 242.58 C 1507.56 243.34 1482.65 242.81 1457.74 243.15 C 1457.91 256.10 1457.79 269.05 1457.36 281.99 C 1457.14 300.88 1458.54 320.81 1468.51 337.39 C 1481.76 359.44 1507.15 372.14 1532.31 373.97 C 1532.63 397.34 1532.55 420.71 1532.39 444.07 C 1514.27 444.67 1496.02 441.72 1479.18 434.94 C 1427.08 414.20 1388.16 361.58 1387.15 305.02 C 1386.77 242.08 1386.23 179.12 1387.57 116.18 Z" />
<path fill="#555150" stroke="#555150" stroke-width="0.09375" opacity="1.00" d=" M 1239.07 172.38 C 1247.62 170.78 1256.36 171.23 1265.02 171.13 C 1293.94 171.16 1322.86 171.09 1351.78 171.14 C 1352.63 194.77 1353.06 218.45 1352.04 242.07 C 1350.70 245.80 1346.02 244.44 1343.01 244.82 C 1315.01 246.37 1286.96 243.95 1258.96 245.41 C 1255.50 245.67 1251.83 244.96 1248.60 246.47 C 1240.07 250.70 1240.31 266.20 1250.03 268.77 C 1264.57 271.13 1279.56 268.97 1294.02 272.10 C 1324.03 278.98 1348.79 303.42 1356.98 332.98 C 1363.45 355.70 1359.83 381.14 1347.10 401.06 C 1333.55 422.56 1310.43 438.25 1284.99 441.13 C 1277.03 441.94 1269.00 441.43 1261.01 441.69 C 1228.67 442.01 1196.32 441.65 1163.98 441.66 C 1163.40 417.08 1163.70 392.47 1163.79 367.88 C 1192.86 367.42 1221.93 368.01 1251.01 367.78 C 1259.68 367.50 1268.40 367.90 1277.06 367.12 C 1285.65 365.68 1288.82 353.25 1282.53 347.52 C 1276.79 342.73 1268.83 344.66 1261.99 343.84 C 1241.56 344.35 1220.21 339.90 1203.69 327.31 C 1188.84 316.75 1177.90 301.10 1172.30 283.82 C 1164.51 260.59 1167.91 234.29 1180.33 213.31 C 1192.96 192.22 1214.82 176.75 1239.07 172.38 Z" />
<path fill="#eae7de" stroke="#eae7de" stroke-width="0.09375" opacity="1.00" d=" M 476.66 175.00 C 513.92 170.39 552.58 182.78 580.98 207.15 C 608.32 230.33 625.26 265.25 626.77 301.04 C 627.70 307.69 626.78 314.36 626.41 321.01 C 624.66 339.06 619.44 356.81 610.79 372.78 C 602.52 388.09 590.98 401.52 577.70 412.71 C 545.52 438.66 501.11 448.13 460.99 438.69 C 441.00 434.14 422.58 424.12 406.75 411.26 C 370.69 381.41 353.14 331.68 360.86 285.70 C 364.24 266.28 371.80 247.53 383.23 231.43 C 397.92 210.56 418.54 193.84 442.18 184.12 C 453.19 179.53 464.87 176.68 476.66 175.00 M 484.47 245.69 C 472.28 247.73 460.44 252.91 451.29 261.32 C 436.72 274.35 428.06 294.39 430.38 313.98 C 431.75 337.08 448.08 357.77 469.12 366.62 C 482.37 372.44 497.62 372.70 511.42 368.75 C 540.98 359.75 562.12 326.92 554.87 296.28 C 549.39 264.51 516.19 241.22 484.47 245.69 Z" />
<path fill="#555150" stroke="#555150" stroke-width="0.09375" opacity="1.00" d=" M 1001.58 174.91 C 1034.25 170.80 1067.93 180.23 1094.61 199.28 C 1110.80 210.94 1124.87 225.82 1134.63 243.29 C 1144.76 261.20 1149.89 281.65 1151.29 302.08 C 1153.49 346.43 1131.52 390.63 1096.04 416.99 C 1084.22 425.83 1070.71 432.23 1056.61 436.47 C 1019.50 448.32 977.55 441.89 944.74 421.26 C 917.24 404.30 897.16 376.38 888.37 345.44 C 882.22 323.51 881.58 300.05 886.58 277.83 C 894.16 243.70 916.22 213.28 945.79 194.76 C 962.58 184.01 981.84 177.46 1001.58 174.91 M 1007.51 245.73 C 997.76 247.65 988.17 251.23 980.18 257.23 C 964.00 269.14 953.74 288.85 953.80 309.00 C 954.37 320.61 957.48 332.27 963.90 342.05 C 974.25 358.09 991.95 369.50 1011.06 371.26 C 1022.63 372.04 1034.57 370.28 1044.93 364.89 C 1058.86 357.83 1070.12 345.60 1075.91 331.08 C 1081.28 317.94 1081.41 302.94 1077.36 289.43 C 1068.36 260.84 1037.24 241.09 1007.51 245.73 Z" />
<path fill="#555150" stroke="#555150" stroke-width="0.09375" opacity="1.00" d=" M 1720.90 174.25 C 1744.20 174.19 1767.52 174.00 1790.82 174.68 C 1790.63 262.94 1790.73 351.19 1790.77 439.44 C 1767.87 439.86 1744.97 439.62 1722.07 439.66 C 1720.59 436.44 1719.18 433.19 1717.82 429.93 C 1711.42 432.14 1705.30 435.14 1698.74 436.89 C 1673.22 444.53 1645.44 444.75 1619.94 436.93 C 1605.63 432.61 1592.27 425.48 1580.16 416.77 C 1545.37 391.30 1524.63 348.08 1525.94 305.06 C 1526.90 286.15 1530.92 267.20 1539.37 250.16 C 1555.11 217.59 1584.48 191.87 1619.01 180.93 C 1651.74 170.35 1687.88 174.46 1719.09 188.09 C 1719.69 183.48 1720.41 178.88 1720.90 174.25 M 1650.21 246.39 C 1626.70 249.98 1606.42 267.91 1599.48 290.56 C 1594.02 308.47 1597.03 328.86 1607.80 344.23 C 1618.82 360.28 1637.34 371.27 1656.96 371.82 C 1689.58 374.02 1721.39 346.76 1723.23 313.93 C 1724.96 295.90 1717.96 277.54 1705.09 264.88 C 1691.05 250.67 1670.11 242.64 1650.21 246.39 Z" />
<path fill="#555150" stroke="#555150" stroke-width="0.09375" opacity="1.00" d=" M 725.61 182.74 C 761.99 169.20 803.93 173.54 837.72 192.22 C 855.16 201.84 870.34 215.57 881.51 232.07 C 862.43 245.21 843.59 258.71 824.42 271.71 C 811.83 258.09 795.14 246.57 776.05 245.68 C 768.27 245.81 760.32 246.10 752.86 248.56 C 734.13 254.45 718.84 269.75 712.28 288.17 C 708.56 298.34 708.19 309.44 709.90 320.05 C 713.25 338.80 725.63 355.60 742.36 364.63 C 752.28 370.12 763.79 372.20 775.04 372.09 C 794.70 371.27 812.10 359.60 824.89 345.33 C 844.55 357.92 863.61 371.41 882.72 384.83 C 860.19 416.12 824.46 437.95 785.99 442.16 C 765.84 444.13 745.16 442.04 726.13 434.96 C 690.07 421.73 660.05 392.50 646.54 356.45 C 641.69 343.16 638.82 329.14 637.94 315.02 C 636.11 272.25 655.80 229.01 689.71 202.77 C 700.70 194.55 712.77 187.63 725.61 182.74 Z" />
<path fill="#eae7de" stroke="#eae7de" stroke-width="0.09375" opacity="1.00" d=" M 158.38 193.36 C 177.28 182.22 199.14 176.47 220.99 175.53 C 252.45 174.82 283.84 186.01 308.26 205.74 C 329.37 222.49 344.86 246.13 351.92 272.13 C 358.15 295.09 358.01 319.07 357.78 342.67 C 344.19 342.79 330.59 342.60 317.01 343.17 C 268.10 343.16 219.19 343.14 170.27 343.22 C 180.08 355.95 193.43 366.59 209.23 370.57 C 222.67 373.66 237.18 372.86 249.79 367.02 C 257.87 363.33 265.31 358.31 271.99 352.45 C 287.14 367.88 303.41 382.14 318.89 397.22 C 320.73 399.16 319.10 401.98 317.50 403.51 C 287.62 432.35 243.85 446.17 202.85 439.21 C 181.19 435.46 160.37 426.52 143.16 412.77 C 120.29 394.82 103.26 369.33 96.16 341.08 C 92.29 324.74 91.00 307.69 93.05 290.99 C 98.49 250.75 123.55 214.00 158.38 193.36 M 198.20 249.95 C 187.03 255.29 178.15 264.26 170.44 273.76 C 206.66 274.55 242.92 274.44 279.14 273.71 C 268.21 258.72 251.60 247.51 233.10 244.69 C 221.28 243.11 209.06 245.07 198.20 249.95 Z" />
</svg>
