<?xml version="1.0" encoding="UTF-8" ?>
<!DOCTYPE svg PUBLIC "-//W3C//DTD SVG 1.1//EN" "http://www.w3.org/Graphics/SVG/1.1/DTD/svg11.dtd">
<svg width="1080pt" height="1080pt" viewBox="0 0 1080 1080" version="1.1" xmlns="http://www.w3.org/2000/svg">
<path fill="#427443" stroke="#427443" stroke-width="0.09375" opacity="1.00" d=" M 231.86 120.06 C 295.84 119.91 359.82 120.06 423.79 120.03 C 423.80 129.14 423.78 138.25 423.81 147.36 C 430.51 147.40 437.21 147.41 443.92 147.36 C 443.95 138.25 443.93 129.15 443.92 120.04 C 508.04 119.97 572.15 119.99 636.27 120.05 C 636.24 129.15 636.26 138.25 636.26 147.35 C 642.95 147.39 649.64 147.38 656.34 147.37 C 656.40 138.25 656.35 129.14 656.36 120.02 C 720.33 119.94 784.29 120.03 848.26 119.93 C 848.45 132.70 848.32 145.47 848.34 158.24 C 848.36 171.68 848.25 185.12 848.38 198.56 C 848.21 229.95 848.35 261.34 848.34 292.74 C 848.35 293.49 848.35 294.99 848.35 295.74 C 848.11 311.85 848.48 327.96 848.31 344.07 C 848.29 362.82 848.33 381.57 848.40 400.33 C 848.21 406.72 848.43 413.12 848.31 419.53 C 848.28 458.42 848.30 497.32 848.32 536.22 C 848.37 543.57 848.26 550.92 848.34 558.27 C 848.45 565.98 848.26 573.69 848.33 581.41 C 848.27 595.93 848.35 610.45 848.34 624.97 C 848.34 644.59 848.31 664.21 848.32 683.83 C 848.33 687.32 848.32 690.81 848.33 694.30 C 848.33 696.95 848.34 699.61 848.36 702.27 C 848.40 710.24 848.24 718.22 848.33 726.19 C 848.93 743.17 846.89 760.27 841.34 776.37 C 835.72 794.14 825.83 810.47 812.74 823.74 C 799.42 837.54 783.53 848.63 766.69 857.69 C 744.76 869.31 721.22 877.92 696.92 882.99 C 671.57 888.01 646.18 893.04 621.26 899.89 C 607.07 903.79 592.91 908.15 579.73 914.78 C 573.22 918.22 566.73 922.29 562.30 928.31 C 554.77 938.98 547.75 950.02 539.99 960.53 C 534.58 953.02 529.54 945.26 524.26 937.67 C 520.34 932.07 516.94 925.88 511.38 921.70 C 500.94 913.63 488.32 909.15 475.96 904.97 C 456.28 898.57 436.08 894.01 415.89 889.60 C 394.13 884.84 371.93 881.69 350.92 874.02 C 318.80 862.71 287.74 845.86 264.46 820.59 C 259.58 815.32 255.25 809.58 251.30 803.60 C 247.33 797.11 243.88 790.28 241.19 783.16 C 235.99 769.63 232.85 755.32 231.88 740.86 C 231.77 726.50 231.94 712.15 231.86 697.79 C 231.86 670.47 231.90 643.15 231.86 615.84 C 231.89 585.55 231.85 555.26 231.86 524.97 C 231.83 498.41 231.85 471.85 231.84 445.30 C 231.86 336.88 231.86 228.47 231.86 120.06 M 249.08 137.63 C 249.01 330.43 249.07 523.23 249.05 716.03 C 249.10 725.33 248.79 734.65 249.76 743.92 C 251.01 756.02 253.99 767.96 258.64 779.21 C 264.73 794.75 275.52 808.04 287.96 819.00 C 301.29 830.69 316.62 839.92 332.61 847.50 C 349.04 855.16 366.28 861.13 384.00 865.04 C 419.36 872.24 455.04 878.85 489.19 890.82 C 502.99 895.89 517.02 901.95 527.58 912.50 C 532.56 917.35 535.56 923.76 539.99 929.03 C 542.89 926.16 544.63 922.33 547.14 919.12 C 553.94 909.03 564.55 902.39 575.33 897.23 C 589.64 890.55 604.83 886.03 620.03 881.87 C 644.14 875.47 668.58 870.48 693.04 865.70 C 716.91 860.73 740.03 852.16 761.40 840.43 C 780.89 829.51 799.21 815.50 812.02 796.96 C 820.62 784.38 825.85 769.74 828.79 754.86 C 831.72 740.45 831.07 725.68 831.13 711.07 C 831.06 519.95 831.16 328.82 831.15 137.70 C 778.74 137.71 726.33 137.69 673.93 137.69 C 673.91 146.83 673.94 155.97 673.91 165.11 C 655.49 165.07 637.06 165.08 618.64 165.11 C 618.53 155.95 618.68 146.80 618.56 137.64 C 566.22 137.73 513.88 137.73 461.54 137.64 C 461.33 146.79 461.54 155.95 461.42 165.11 C 443.02 165.02 424.61 165.19 406.21 165.02 C 406.16 155.92 406.22 146.81 406.19 137.71 C 353.82 137.63 301.45 137.79 249.08 137.63 Z" />
<path fill="#feffff" stroke="#feffff" stroke-width="0.09375" opacity="1.00" d=" M 249.08 137.63 C 301.45 137.79 353.82 137.63 406.19 137.71 C 406.22 146.81 406.16 155.92 406.21 165.02 C 424.61 165.19 443.02 165.02 461.42 165.11 C 461.54 155.95 461.33 146.79 461.54 137.64 C 513.88 137.73 566.22 137.73 618.56 137.64 C 618.68 146.80 618.53 155.95 618.64 165.11 C 637.06 165.08 655.49 165.07 673.91 165.11 C 673.94 155.97 673.91 146.83 673.93 137.69 C 726.33 137.69 778.74 137.71 831.15 137.70 C 831.16 328.82 831.06 519.95 831.13 711.07 C 831.07 725.68 831.72 740.45 828.79 754.86 C 825.85 769.74 820.62 784.38 812.02 796.96 C 799.21 815.50 780.89 829.51 761.40 840.43 C 740.03 852.16 716.91 860.73 693.04 865.70 C 668.58 870.48 644.14 875.47 620.03 881.87 C 604.83 886.03 589.64 890.55 575.33 897.23 C 564.55 902.39 553.94 909.03 547.14 919.12 C 544.63 922.33 542.89 926.16 539.99 929.03 C 535.56 923.76 532.56 917.35 527.58 912.50 C 517.02 901.95 502.99 895.89 489.19 890.82 C 455.04 878.85 419.36 872.24 384.00 865.04 C 366.28 861.13 349.04 855.16 332.61 847.50 C 316.62 839.92 301.29 830.69 287.96 819.00 C 275.52 808.04 264.73 794.75 258.64 779.21 C 253.99 767.96 251.01 756.02 249.76 743.92 C 248.79 734.65 249.10 725.33 249.05 716.03 C 249.07 523.23 249.01 330.43 249.08 137.63 M 257.73 146.60 C 257.85 190.37 257.81 234.15 257.75 277.93 C 445.96 278.19 634.18 277.92 822.40 278.05 C 822.40 234.22 822.36 190.39 822.42 146.56 C 775.83 146.42 729.22 146.46 682.63 146.54 C 682.70 155.65 682.67 164.75 682.66 173.85 C 658.41 173.86 634.16 173.86 609.91 173.85 C 609.91 164.71 609.99 155.58 609.87 146.44 C 563.34 146.53 516.81 146.49 470.29 146.46 C 470.19 155.59 470.30 164.71 470.23 173.84 C 446.00 173.86 421.77 173.86 397.54 173.85 C 397.48 164.73 397.54 155.61 397.50 146.49 C 350.91 146.55 304.32 146.34 257.73 146.60 M 257.80 284.15 C 257.78 430.12 257.81 576.09 257.79 722.05 C 256.97 742.96 260.39 764.28 269.89 783.07 C 277.81 798.36 290.38 810.70 304.13 820.81 C 331.31 840.24 363.21 852.58 395.98 858.54 C 418.28 862.92 440.53 867.58 462.49 873.42 C 478.21 877.71 493.92 882.42 508.66 889.44 C 520.74 895.21 532.43 902.86 540.07 914.10 C 545.03 906.80 551.81 900.90 559.22 896.19 C 570.26 889.15 582.54 884.36 594.90 880.17 C 620.12 871.94 646.10 866.30 672.06 860.94 C 684.08 858.47 696.22 856.50 708.01 853.04 C 723.60 848.59 738.73 842.56 753.09 835.03 C 772.20 824.84 790.40 811.85 803.34 794.23 C 814.98 778.26 820.55 758.51 822.09 738.99 C 822.71 727.01 822.28 714.99 822.43 703.00 C 822.45 563.38 822.55 423.76 822.35 284.15 C 634.16 284.16 445.98 284.14 257.80 284.15 Z" />
<path fill="#427443" stroke="#427443" stroke-width="0.09375" opacity="1.00" d=" M 257.73 146.60 C 304.32 146.34 350.91 146.55 397.50 146.49 C 397.54 155.61 397.48 164.73 397.54 173.85 C 421.77 173.86 446.00 173.86 470.23 173.84 C 470.30 164.71 470.19 155.59 470.29 146.46 C 516.81 146.49 563.34 146.53 609.87 146.44 C 609.99 155.58 609.91 164.71 609.91 173.85 C 634.16 173.86 658.41 173.86 682.66 173.85 C 682.67 164.75 682.70 155.65 682.63 146.54 C 729.22 146.46 775.83 146.42 822.42 146.56 C 822.36 190.39 822.40 234.22 822.40 278.05 C 634.18 277.92 445.96 278.19 257.75 277.93 C 257.81 234.15 257.85 190.37 257.73 146.60 M 770.38 201.61 C 766.35 202.59 762.37 204.57 759.87 207.97 C 756.04 213.50 757.18 222.18 763.03 225.87 C 768.78 229.58 775.71 230.54 782.11 232.66 C 784.75 233.60 787.61 235.97 787.04 239.11 C 786.53 242.51 783.05 244.25 780.07 245.04 C 772.68 246.61 765.06 244.02 759.12 239.63 C 758.01 241.91 756.85 244.16 755.62 246.38 C 760.66 251.46 767.94 253.74 774.98 253.82 C 781.14 254.03 787.66 252.53 792.38 248.37 C 798.39 243.17 798.10 232.17 791.26 227.79 C 785.24 224.05 778.12 222.84 771.52 220.53 C 769.49 219.80 767.15 218.50 767.05 216.07 C 766.45 212.98 769.40 210.73 772.03 209.94 C 778.36 208.35 785.11 210.25 790.55 213.62 C 791.91 211.30 793.13 208.89 794.13 206.39 C 787.16 201.93 778.55 199.89 770.38 201.61 M 283.55 201.80 C 290.67 218.91 297.44 236.17 304.75 253.20 C 307.72 253.17 310.69 253.20 313.65 252.97 C 320.52 235.85 327.62 218.84 334.59 201.77 C 331.41 201.78 328.24 201.79 325.07 201.85 C 319.82 215.28 313.63 228.34 309.08 242.04 C 304.11 228.46 298.43 215.15 292.85 201.81 C 289.75 201.79 286.65 201.79 283.55 201.80 M 373.79 201.79 C 373.81 218.91 373.83 236.03 373.79 253.16 C 387.36 253.12 400.93 253.17 414.51 253.14 C 414.51 250.47 414.50 247.81 414.48 245.14 C 404.00 245.12 393.52 245.17 383.03 245.13 C 382.86 240.11 383.05 235.10 383.05 230.08 C 392.58 230.05 402.12 230.16 411.65 230.03 C 411.63 227.42 411.61 224.81 411.63 222.21 C 402.11 222.18 392.59 222.20 383.08 222.20 C 382.90 218.07 382.89 213.93 383.08 209.80 C 393.21 209.73 403.35 209.96 413.48 209.68 C 413.43 207.05 413.43 204.42 413.44 201.80 C 400.23 201.79 387.01 201.82 373.79 201.79 M 455.52 201.77 C 455.51 218.91 455.45 236.05 455.55 253.19 C 458.58 253.14 461.62 253.13 464.66 253.12 C 464.66 249.11 464.71 245.09 464.63 241.07 C 469.76 240.61 474.92 240.97 480.07 240.79 C 483.03 244.88 485.91 249.04 488.88 253.13 C 492.57 253.06 496.30 253.48 499.96 252.80 C 496.26 247.97 492.62 243.08 489.01 238.18 C 498.34 233.92 502.05 221.56 497.44 212.60 C 494.44 205.89 487.12 202.25 480.04 201.93 C 471.87 201.63 463.69 201.90 455.52 201.77 M 541.63 201.77 C 541.63 218.90 541.60 236.03 541.65 253.16 C 544.68 253.18 547.72 253.18 550.76 253.03 C 550.59 235.92 550.97 218.81 550.57 201.72 C 547.59 201.82 544.61 201.82 541.63 201.77 M 590.95 201.81 C 590.88 204.48 590.89 207.15 591.04 209.81 C 596.95 209.79 602.87 209.82 608.78 209.79 C 608.87 224.25 608.69 238.71 608.87 253.17 C 611.88 253.13 614.88 253.14 617.90 253.15 C 618.05 238.69 617.74 224.22 618.06 209.76 C 623.97 209.85 629.88 209.80 635.79 209.80 C 635.79 207.15 635.80 204.50 635.82 201.86 C 620.86 201.73 605.90 201.83 590.95 201.81 M 664.39 253.16 C 667.57 253.17 670.75 253.16 673.94 253.06 C 675.11 250.10 676.45 247.20 677.69 244.27 C 687.06 244.15 696.42 244.18 705.78 244.23 C 707.12 247.21 708.40 250.23 709.76 253.20 C 712.83 253.14 715.89 253.13 718.97 253.15 C 711.44 235.99 703.73 218.91 696.09 201.81 C 693.26 201.80 690.44 201.80 687.62 201.73 C 679.61 218.74 672.21 236.05 664.39 253.16 Z" />
<path fill="#fefffd" stroke="#fefffd" stroke-width="0.09375" opacity="1.00" d=" M 770.38 201.61 C 778.55 199.89 787.16 201.93 794.13 206.39 C 793.13 208.89 791.91 211.30 790.55 213.62 C 785.11 210.25 778.36 208.35 772.03 209.94 C 769.40 210.73 766.45 212.98 767.05 216.07 C 767.15 218.50 769.49 219.80 771.52 220.53 C 778.12 222.84 785.24 224.05 791.26 227.79 C 798.10 232.17 798.39 243.17 792.38 248.37 C 787.66 252.53 781.14 254.03 774.98 253.82 C 767.94 253.74 760.66 251.46 755.62 246.38 C 756.85 244.16 758.01 241.91 759.12 239.63 C 765.06 244.02 772.68 246.61 780.07 245.04 C 783.05 244.25 786.53 242.51 787.04 239.11 C 787.61 235.97 784.75 233.60 782.11 232.66 C 775.71 230.54 768.78 229.58 763.03 225.87 C 757.18 222.18 756.04 213.50 759.87 207.97 C 762.37 204.57 766.35 202.59 770.38 201.61 Z" />
<path fill="#fefffd" stroke="#fefffd" stroke-width="0.09375" opacity="1.00" d=" M 283.55 201.80 C 286.65 201.79 289.75 201.79 292.85 201.81 C 298.43 215.15 304.11 228.46 309.08 242.04 C 313.63 228.34 319.82 215.28 325.07 201.85 C 328.24 201.79 331.41 201.78 334.59 201.77 C 327.62 218.84 320.52 235.85 313.65 252.97 C 310.69 253.20 307.72 253.17 304.75 253.20 C 297.44 236.17 290.67 218.91 283.55 201.80 Z" />
<path fill="#fefffe" stroke="#fefffe" stroke-width="0.09375" opacity="1.00" d=" M 373.79 201.79 C 387.01 201.82 400.23 201.79 413.44 201.80 C 413.43 204.42 413.43 207.05 413.48 209.68 C 403.35 209.96 393.21 209.73 383.08 209.80 C 382.89 213.93 382.90 218.07 383.08 222.20 C 392.59 222.20 402.11 222.18 411.63 222.21 C 411.61 224.81 411.63 227.42 411.65 230.03 C 402.12 230.16 392.58 230.05 383.05 230.08 C 383.05 235.10 382.86 240.11 383.03 245.13 C 393.52 245.17 404.00 245.12 414.48 245.14 C 414.50 247.81 414.51 250.47 414.51 253.14 C 400.93 253.17 387.36 253.12 373.79 253.16 C 373.83 236.03 373.81 218.91 373.79 201.79 Z" />
<path fill="#ffffff" stroke="#ffffff" stroke-width="0.09375" opacity="1.00" d=" M 455.52 201.77 C 463.69 201.90 471.87 201.63 480.04 201.93 C 487.12 202.25 494.44 205.89 497.44 212.60 C 502.05 221.56 498.34 233.92 489.01 238.18 C 492.62 243.08 496.26 247.97 499.96 252.80 C 496.30 253.48 492.57 253.06 488.88 253.13 C 485.91 249.04 483.03 244.88 480.07 240.79 C 474.92 240.97 469.76 240.61 464.63 241.07 C 464.71 245.09 464.66 249.11 464.66 253.12 C 461.62 253.13 458.58 253.14 455.55 253.19 C 455.45 236.05 455.51 218.91 455.52 201.77 M 464.67 209.81 C 464.67 217.52 464.67 225.23 464.68 232.94 C 470.95 232.75 477.65 234.07 483.62 231.64 C 491.49 228.10 491.91 215.69 484.41 211.50 C 478.34 208.40 471.21 210.33 464.67 209.81 Z" />
<path fill="#feffff" stroke="#feffff" stroke-width="0.09375" opacity="1.00" d=" M 541.63 201.77 C 544.61 201.82 547.59 201.82 550.57 201.72 C 550.97 218.81 550.59 235.92 550.76 253.03 C 547.72 253.18 544.68 253.18 541.65 253.16 C 541.60 236.03 541.63 218.90 541.63 201.77 Z" />
<path fill="#fefffe" stroke="#fefffe" stroke-width="0.09375" opacity="1.00" d=" M 590.95 201.81 C 605.90 201.83 620.86 201.73 635.82 201.86 C 635.80 204.50 635.79 207.15 635.79 209.80 C 629.88 209.80 623.97 209.85 618.06 209.76 C 617.74 224.22 618.05 238.69 617.90 253.15 C 614.88 253.14 611.88 253.13 608.87 253.17 C 608.69 238.71 608.87 224.25 608.78 209.79 C 602.87 209.82 596.95 209.79 591.04 209.81 C 590.89 207.15 590.88 204.48 590.95 201.81 Z" />
<path fill="#fefffd" stroke="#fefffd" stroke-width="0.09375" opacity="1.00" d=" M 664.39 253.16 C 672.21 236.05 679.61 218.74 687.62 201.73 C 690.44 201.80 693.26 201.80 696.09 201.81 C 703.73 218.91 711.44 235.99 718.97 253.15 C 715.89 253.13 712.83 253.14 709.76 253.20 C 708.40 250.23 707.12 247.21 705.78 244.23 C 696.42 244.18 687.06 244.15 677.69 244.27 C 676.45 247.20 675.11 250.10 673.94 253.06 C 670.75 253.16 667.57 253.17 664.39 253.16 M 691.61 212.19 C 688.70 220.68 684.68 228.72 681.12 236.94 C 688.26 236.87 695.39 236.92 702.53 236.89 C 698.82 228.69 695.37 220.37 691.61 212.19 Z" />
<path fill="#427343" stroke="#427343" stroke-width="0.09375" opacity="1.00" d=" M 464.67 209.81 C 471.21 210.33 478.34 208.40 484.41 211.50 C 491.91 215.69 491.49 228.10 483.62 231.64 C 477.65 234.07 470.95 232.75 464.68 232.94 C 464.67 225.23 464.67 217.52 464.67 209.81 Z" />
<path fill="#437344" stroke="#437344" stroke-width="0.09375" opacity="1.00" d=" M 691.61 212.19 C 695.37 220.37 698.82 228.69 702.53 236.89 C 695.39 236.92 688.26 236.87 681.12 236.94 C 684.68 228.72 688.70 220.68 691.61 212.19 Z" />
<path fill="#427443" stroke="#427443" stroke-width="0.09375" opacity="1.00" d=" M 257.80 284.15 C 445.98 284.14 634.16 284.16 822.35 284.15 C 822.55 423.76 822.45 563.38 822.43 703.00 C 822.28 714.99 822.71 727.01 822.09 738.99 C 820.55 758.51 814.98 778.26 803.34 794.23 C 790.40 811.85 772.20 824.84 753.09 835.03 C 738.73 842.56 723.60 848.59 708.01 853.04 C 696.22 856.50 684.08 858.47 672.06 860.94 C 646.10 866.30 620.12 871.94 594.90 880.17 C 582.54 884.36 570.26 889.15 559.22 896.19 C 551.81 900.90 545.03 906.80 540.07 914.10 C 532.43 902.86 520.74 895.21 508.66 889.44 C 493.92 882.42 478.21 877.71 462.49 873.42 C 440.53 867.58 418.28 862.92 395.98 858.54 C 363.21 852.58 331.31 840.24 304.13 820.81 C 290.38 810.70 277.81 798.36 269.89 783.07 C 260.39 764.28 256.97 742.96 257.79 722.05 C 257.81 576.09 257.78 430.12 257.80 284.15 M 531.43 333.44 C 528.51 336.10 527.58 340.17 527.78 343.98 C 527.95 367.84 527.52 391.73 528.01 415.56 C 527.50 432.07 527.93 448.61 527.81 465.14 C 519.27 460.29 510.96 455.04 502.37 450.27 C 501.97 430.69 502.62 411.08 502.06 391.51 C 502.52 377.70 502.14 363.85 502.26 350.02 C 502.60 343.68 497.41 337.75 491.07 337.35 C 483.98 336.46 477.31 342.85 477.68 349.95 C 477.82 362.43 477.39 374.96 477.89 387.42 C 477.27 403.46 477.97 419.54 477.57 435.60 C 469.67 430.72 461.59 426.17 453.64 421.38 C 452.74 420.87 452.10 420.07 451.45 419.31 C 451.83 412.88 451.53 406.43 451.62 399.99 C 451.59 389.35 451.66 378.71 451.61 368.07 C 451.76 362.07 446.99 356.37 440.97 355.75 C 434.28 354.63 427.40 360.15 427.15 366.95 C 426.96 379.82 427.16 392.71 427.11 405.59 C 426.64 405.43 425.69 405.10 425.22 404.94 C 417.35 399.60 408.91 395.11 400.77 390.19 C 395.53 386.81 387.98 388.29 384.42 393.40 C 380.27 398.87 381.80 407.72 387.82 411.19 C 401.43 419.29 415.08 427.32 428.73 435.34 C 460.24 454.00 491.77 472.64 523.38 491.15 C 524.85 492.13 526.35 493.08 527.85 494.05 C 527.72 503.79 527.84 513.53 527.77 523.27 C 506.58 511.07 485.58 498.54 464.34 486.43 C 432.44 467.69 400.43 449.12 368.48 430.47 C 362.70 426.65 354.12 428.98 351.12 435.21 C 347.89 440.95 350.35 448.82 356.14 451.87 C 376.00 463.30 395.66 475.17 415.65 486.33 C 431.98 496.55 449.04 505.61 465.42 515.77 C 456.64 520.92 447.93 526.20 439.15 531.36 C 435.28 528.96 431.43 526.53 427.49 524.25 C 400.92 507.85 374.30 491.54 347.70 475.19 C 342.71 471.74 335.30 472.69 331.48 477.45 C 326.67 482.77 328.00 492.11 334.16 495.83 C 351.77 506.80 369.59 517.44 387.16 528.48 L 387.57 527.87 L 387.17 528.60 C 396.64 533.97 405.77 539.93 415.11 545.53 C 413.14 546.85 411.00 547.92 409.09 549.33 C 400.96 553.77 393.16 558.78 385.12 563.38 C 368.77 552.95 352.40 542.55 336.04 532.14 C 330.54 528.34 322.24 530.24 318.91 536.01 C 315.47 541.37 317.05 549.20 322.41 552.70 C 335.28 561.03 348.29 569.16 361.21 577.42 C 358.45 579.34 355.53 580.99 352.62 582.67 C 345.08 587.18 337.49 591.63 329.95 596.15 C 326.67 597.96 324.29 601.28 323.73 605.00 C 322.57 611.19 326.94 617.71 333.08 619.03 C 336.74 620.06 340.53 618.69 343.62 616.73 C 361.30 606.17 379.13 595.86 396.70 585.13 L 396.90 585.15 C 415.86 573.71 435.14 562.76 453.96 551.10 L 454.09 551.14 C 466.14 544.16 478.04 536.94 490.05 529.90 C 498.77 535.01 507.52 540.06 516.23 545.18 C 513.36 547.37 510.07 548.91 507.01 550.82 C 484.24 564.05 461.55 577.42 438.81 590.71 C 408.65 608.26 378.58 625.95 348.44 643.54 C 342.42 646.59 339.99 654.84 343.50 660.63 C 346.57 666.44 354.62 668.62 360.23 665.21 C 399.43 642.45 438.45 619.36 477.70 596.69 C 477.61 627.11 477.73 657.52 477.70 687.94 C 477.71 716.71 477.63 745.48 477.76 774.25 C 477.60 782.47 477.62 790.71 477.79 798.94 C 478.16 806.19 485.89 811.75 492.89 809.83 C 498.17 808.57 502.28 803.47 502.22 798.02 C 502.27 787.90 502.28 777.78 502.25 767.67 C 502.25 741.14 502.29 714.61 502.24 688.08 C 502.20 654.26 502.33 620.43 502.22 586.61 C 502.25 585.13 502.28 583.65 502.32 582.18 C 510.77 577.19 519.25 572.24 527.75 567.33 C 527.99 583.76 527.55 600.21 527.97 616.62 C 527.55 640.17 527.93 663.74 527.80 687.30 C 527.78 702.54 527.82 717.79 527.81 733.04 C 527.79 760.35 527.81 787.66 527.83 814.97 C 528.46 821.82 526.01 829.64 530.23 835.68 C 534.35 841.79 544.11 842.37 548.97 836.85 C 554.20 831.38 551.89 823.20 552.37 816.42 C 552.35 788.61 552.39 760.80 552.40 732.99 C 552.19 715.13 552.73 697.25 552.13 679.41 C 552.72 674.96 552.20 670.42 552.37 665.95 C 552.21 648.45 552.71 630.94 552.16 613.46 C 552.68 597.77 552.20 582.01 552.40 566.29 C 561.59 571.54 570.68 576.97 579.86 582.24 C 580.07 596.29 579.78 610.35 580.02 624.41 C 579.78 646.24 579.99 668.08 579.92 689.92 C 580.04 713.42 579.66 736.94 580.16 760.43 C 579.65 770.26 580.10 780.14 579.94 790.00 C 580.10 795.39 578.96 801.67 582.99 806.02 C 587.63 811.62 597.27 811.48 601.66 805.65 C 604.50 802.48 604.61 798.04 604.50 794.02 C 604.43 778.20 604.70 762.38 604.39 746.57 C 604.63 726.80 604.44 707.02 604.51 687.25 C 604.29 661.62 604.90 635.96 604.24 610.35 C 604.88 605.92 604.30 601.37 604.49 596.90 C 607.18 598.02 609.62 599.65 612.20 600.99 C 646.98 621.58 682.05 641.68 716.91 662.13 C 719.60 663.83 722.80 664.95 726.02 664.42 C 731.65 663.80 736.31 658.74 736.61 653.10 C 737.00 648.46 734.54 643.80 730.52 641.48 C 703.11 625.46 675.66 609.51 648.26 593.49 C 637.69 587.39 627.10 581.32 616.67 574.99 C 621.77 571.62 627.27 568.87 632.26 565.32 L 632.72 565.36 C 635.54 563.56 638.42 561.85 641.29 560.12 C 643.26 561.19 645.21 562.31 647.16 563.44 L 647.36 563.37 C 676.38 580.60 705.80 597.18 734.99 614.13 C 738.59 616.43 742.75 618.70 747.19 617.56 C 754.03 616.39 758.55 608.68 756.48 602.11 C 755.46 597.77 751.70 594.99 747.95 593.08 C 728.62 582.04 709.43 570.78 690.11 559.72 C 682.03 554.92 673.70 550.52 665.79 545.43 C 673.20 541.07 680.53 536.59 687.93 532.22 C 706.88 543.22 725.79 554.29 744.77 565.24 C 749.97 568.35 757.36 566.79 760.78 561.76 C 765.03 556.16 763.16 547.16 756.95 543.81 C 747.85 538.45 738.68 533.20 729.58 527.84 C 723.83 524.34 717.68 521.45 712.29 517.41 C 723.55 511.09 734.47 504.19 745.61 497.65 C 749.44 495.56 752.08 491.41 752.09 487.01 C 752.43 480.81 747.34 474.87 741.12 474.41 C 737.31 473.85 733.80 475.72 730.73 477.73 C 703.71 493.96 676.65 510.12 649.65 526.38 L 649.61 526.50 C 633.24 535.96 617.16 545.92 600.89 555.54 C 597.95 557.27 595.05 559.06 592.11 560.78 C 586.16 557.39 580.31 553.80 574.32 550.49 C 571.51 548.66 568.51 547.15 565.65 545.42 C 578.91 536.74 593.16 529.62 606.45 521.00 C 615.20 516.46 623.53 511.07 632.13 506.23 C 650.22 495.52 668.56 485.20 686.49 474.23 L 686.77 474.31 C 699.44 466.78 712.23 459.42 724.93 451.92 C 731.24 448.23 732.70 438.72 727.73 433.34 C 724.00 428.81 716.93 427.74 711.99 430.90 C 693.41 441.87 674.63 452.54 656.18 463.72 C 637.42 474.24 619.05 485.45 600.37 496.13 C 600.38 485.52 600.38 474.92 600.40 464.32 C 616.42 455.34 632.24 446.01 648.10 436.77 C 662.64 428.43 677.11 419.99 691.60 411.57 C 696.92 408.68 699.24 401.61 696.84 396.08 C 694.53 390.12 687.11 386.80 681.17 389.29 C 677.41 390.97 673.99 393.33 670.40 395.32 C 651.85 406.13 633.23 416.81 614.73 427.68 C 609.89 430.33 605.18 433.20 600.39 435.92 C 600.34 426.01 600.47 416.10 600.34 406.19 C 602.23 404.97 604.16 403.83 606.12 402.72 C 618.90 395.67 631.62 388.51 644.38 381.43 C 647.72 379.60 651.47 377.73 653.01 374.00 C 656.24 367.72 652.85 359.11 646.05 356.97 C 641.71 355.28 637.02 356.85 633.31 359.28 C 622.41 365.49 611.33 371.39 600.51 377.73 C 600.15 367.49 600.56 357.24 600.33 347.01 C 600.16 340.65 594.31 335.08 587.92 335.39 C 581.25 335.26 575.46 341.44 575.81 348.07 C 575.90 359.20 575.53 370.37 576.00 381.49 C 575.53 393.32 575.92 405.18 575.79 417.02 C 575.94 430.51 575.50 444.04 576.01 457.50 C 575.47 475.25 576.05 493.02 575.72 510.77 C 570.35 513.58 565.21 516.80 559.99 519.87 C 557.47 521.29 554.98 522.78 552.41 524.11 C 552.20 509.56 552.72 495.00 552.16 480.46 C 552.68 474.68 552.20 468.81 552.38 463.00 C 552.21 447.15 552.71 431.28 552.14 415.45 C 552.59 413.67 552.32 411.79 552.39 409.98 C 552.35 387.66 552.40 365.33 552.38 343.01 C 552.53 339.18 551.07 335.29 548.11 332.80 C 543.50 328.66 535.69 328.89 531.43 333.44 Z" />
<path fill="#eef6ea" stroke="#eef6ea" stroke-width="0.09375" opacity="1.00" d=" M 531.43 333.44 C 535.69 328.89 543.50 328.66 548.11 332.80 C 551.07 335.29 552.53 339.18 552.38 343.01 C 552.40 365.33 552.35 387.66 552.39 409.98 C 552.32 411.79 552.59 413.67 552.14 415.45 C 550.01 420.06 551.07 425.23 550.98 430.12 C 543.75 430.67 536.50 431.09 529.24 430.74 C 528.83 425.67 529.80 420.43 528.01 415.56 C 527.52 391.73 527.95 367.84 527.78 343.98 C 527.58 340.17 528.51 336.10 531.43 333.44 Z" />
<path fill="#eff7eb" stroke="#eff7eb" stroke-width="0.09375" opacity="1.00" d=" M 575.81 348.07 C 575.46 341.44 581.25 335.26 587.92 335.39 C 594.31 335.08 600.16 340.65 600.33 347.01 C 600.56 357.24 600.15 367.49 600.51 377.73 C 611.33 371.39 622.41 365.49 633.31 359.28 C 637.02 356.85 641.71 355.28 646.05 356.97 C 652.85 359.11 656.24 367.72 653.01 374.00 C 651.47 377.73 647.72 379.60 644.38 381.43 C 631.62 388.51 618.90 395.67 606.12 402.72 C 605.40 402.00 604.69 401.28 603.99 400.56 C 600.82 401.83 597.42 402.27 594.03 402.37 C 595.53 404.37 596.83 406.56 597.20 409.09 C 595.60 408.72 593.64 408.94 592.46 407.59 C 591.99 405.82 591.83 403.99 591.59 402.19 C 586.77 402.00 581.93 402.22 577.12 401.91 C 576.35 395.12 577.84 388.16 576.00 381.49 C 575.53 370.37 575.90 359.20 575.81 348.07 Z" />
<path fill="#eff7ec" stroke="#eff7ec" stroke-width="0.09375" opacity="1.00" d=" M 477.68 349.95 C 477.31 342.85 483.98 336.46 491.07 337.35 C 497.41 337.75 502.60 343.68 502.26 350.02 C 502.14 363.85 502.52 377.70 502.06 391.51 C 499.94 397.09 502.40 403.29 499.95 408.77 C 498.96 406.47 499.19 403.95 499.11 401.53 C 493.45 402.23 487.69 402.61 482.02 401.84 C 480.18 401.61 479.01 399.71 478.99 397.98 C 478.74 394.44 479.14 390.81 477.89 387.42 C 477.39 374.96 477.82 362.43 477.68 349.95 Z" />
<path fill="#eef6ea" stroke="#eef6ea" stroke-width="0.09375" opacity="1.00" d=" M 427.15 366.95 C 427.40 360.15 434.28 354.63 440.97 355.75 C 446.99 356.37 451.76 362.07 451.61 368.07 C 451.66 378.71 451.59 389.35 451.62 399.99 C 445.54 400.03 439.44 399.72 433.38 400.35 C 431.58 400.57 429.82 400.10 428.11 399.61 C 428.02 401.71 427.97 403.81 427.68 405.90 C 426.72 406.00 425.90 405.68 425.22 404.94 C 425.69 405.10 426.64 405.43 427.11 405.59 C 427.16 392.71 426.96 379.82 427.15 366.95 Z" />
<path fill="#e6f1e0" stroke="#e6f1e0" stroke-width="0.09375" opacity="1.00" d=" M 576.00 381.49 C 577.84 388.16 576.35 395.12 577.12 401.91 C 581.93 402.22 586.77 402.00 591.59 402.19 C 591.83 403.99 591.99 405.82 592.46 407.59 C 593.64 408.94 595.60 408.72 597.20 409.09 C 596.83 406.56 595.53 404.37 594.03 402.37 C 597.42 402.27 600.82 401.83 603.99 400.56 C 604.69 401.28 605.40 402.00 606.12 402.72 C 604.16 403.83 602.23 404.97 600.34 406.19 C 600.47 416.10 600.34 426.01 600.39 435.92 C 605.18 433.20 609.89 430.33 614.73 427.68 C 613.96 429.39 613.79 431.95 611.61 432.49 C 609.49 433.38 607.32 434.12 605.19 434.94 C 606.12 436.35 607.05 437.78 607.93 439.23 C 612.92 437.15 618.44 438.00 623.68 438.20 C 624.08 439.64 624.48 441.08 624.89 442.53 C 626.20 442.70 627.51 442.88 628.83 443.06 C 627.93 442.17 627.03 441.28 626.14 440.40 C 626.94 440.36 627.75 440.32 628.58 440.29 C 631.93 436.49 637.24 438.15 641.62 438.40 C 641.80 437.96 642.15 437.08 642.33 436.64 C 642.66 436.84 643.31 437.25 643.64 437.46 C 644.45 436.67 645.27 435.89 646.10 435.11 C 646.60 435.53 647.60 436.35 648.10 436.77 C 632.24 446.01 616.42 455.34 600.40 464.32 C 598.14 466.03 599.17 469.36 598.67 471.82 C 591.51 471.98 584.35 472.10 577.20 471.84 C 576.91 467.05 577.47 462.15 576.01 457.50 C 575.50 444.04 575.94 430.51 575.79 417.02 C 575.92 405.18 575.53 393.32 576.00 381.49 Z" />
<path fill="#e9f4e4" stroke="#e9f4e4" stroke-width="0.09375" opacity="1.00" d=" M 384.42 393.40 C 387.98 388.29 395.53 386.81 400.77 390.19 C 408.91 395.11 417.35 399.60 425.22 404.94 C 425.90 405.68 426.72 406.00 427.68 405.90 C 427.97 403.81 428.02 401.71 428.11 399.61 C 429.82 400.10 431.58 400.57 433.38 400.35 C 439.44 399.72 445.54 400.03 451.62 399.99 C 451.53 406.43 451.83 412.88 451.45 419.31 C 450.34 419.32 449.24 419.34 448.14 419.37 C 451.08 421.74 454.25 423.84 457.01 426.44 C 457.62 426.51 458.24 426.59 458.87 426.68 C 460.62 432.39 469.45 430.13 471.14 436.17 C 471.94 436.58 472.75 436.99 473.57 437.41 C 472.26 438.51 470.98 439.65 469.77 440.87 C 468.46 440.14 467.20 439.36 465.99 438.52 C 466.58 437.57 467.18 436.62 467.79 435.68 C 457.95 433.90 447.82 435.95 437.92 434.57 C 435.73 434.19 433.82 432.95 431.87 431.97 C 430.82 433.09 429.77 434.21 428.73 435.34 C 415.08 427.32 401.43 419.29 387.82 411.19 C 381.80 407.72 380.27 398.87 384.42 393.40 Z" />
<path fill="#e4f0dd" stroke="#e4f0dd" stroke-width="0.09375" opacity="1.00" d=" M 477.89 387.42 C 479.14 390.81 478.74 394.44 478.99 397.98 C 479.01 399.71 480.18 401.61 482.02 401.84 C 487.69 402.61 493.45 402.23 499.11 401.53 C 499.19 403.95 498.96 406.47 499.95 408.77 C 502.40 403.29 499.94 397.09 502.06 391.51 C 502.62 411.08 501.97 430.69 502.37 450.27 C 510.96 455.04 519.27 460.29 527.81 465.14 C 527.93 448.61 527.50 432.07 528.01 415.56 C 529.80 420.43 528.83 425.67 529.24 430.74 C 536.50 431.09 543.75 430.67 550.98 430.12 C 551.07 425.23 550.01 420.06 552.14 415.45 C 552.71 431.28 552.21 447.15 552.38 463.00 C 552.20 468.81 552.68 474.68 552.16 480.46 C 549.30 486.66 552.46 493.69 549.99 499.95 C 548.86 502.87 548.79 506.04 548.49 509.13 C 548.19 506.03 547.98 502.93 547.80 499.83 C 545.48 500.27 543.33 501.29 541.03 501.80 C 537.10 502.17 533.15 501.82 529.22 501.77 C 528.96 498.39 529.25 494.93 528.35 491.65 C 526.96 490.23 525.04 490.68 523.38 491.15 C 491.77 472.64 460.24 454.00 428.73 435.34 C 429.77 434.21 430.82 433.09 431.87 431.97 C 433.82 432.95 435.73 434.19 437.92 434.57 C 447.82 435.95 457.95 433.90 467.79 435.68 C 467.18 436.62 466.58 437.57 465.99 438.52 C 467.20 439.36 468.46 440.14 469.77 440.87 C 470.98 439.65 472.26 438.51 473.57 437.41 C 472.75 436.99 471.94 436.58 471.14 436.17 C 469.45 430.13 460.62 432.39 458.87 426.68 C 458.24 426.59 457.62 426.51 457.01 426.44 C 454.25 423.84 451.08 421.74 448.14 419.37 C 449.24 419.34 450.34 419.32 451.45 419.31 C 452.10 420.07 452.74 420.87 453.64 421.38 C 461.59 426.17 469.67 430.72 477.57 435.60 C 477.97 419.54 477.27 403.46 477.89 387.42 Z" />
<path fill="#e9f4e4" stroke="#e9f4e4" stroke-width="0.09375" opacity="1.00" d=" M 681.17 389.29 C 687.11 386.80 694.53 390.12 696.84 396.08 C 699.24 401.61 696.92 408.68 691.60 411.57 C 677.11 419.99 662.64 428.43 648.10 436.77 C 647.60 436.35 646.60 435.53 646.10 435.11 C 645.27 435.89 644.45 436.67 643.64 437.46 C 643.31 437.25 642.66 436.84 642.33 436.64 C 642.15 437.08 641.80 437.96 641.62 438.40 C 637.24 438.15 631.93 436.49 628.58 440.29 C 627.75 440.32 626.94 440.36 626.14 440.40 C 627.03 441.28 627.93 442.17 628.83 443.06 C 627.51 442.88 626.20 442.70 624.89 442.53 C 624.48 441.08 624.08 439.64 623.68 438.20 C 618.44 438.00 612.92 437.15 607.93 439.23 C 607.05 437.78 606.12 436.35 605.19 434.94 C 607.32 434.12 609.49 433.38 611.61 432.49 C 613.79 431.95 613.96 429.39 614.73 427.68 C 633.23 416.81 651.85 406.13 670.40 395.32 C 673.99 393.33 677.41 390.97 681.17 389.29 Z" />
<path fill="#e2f0db" stroke="#e2f0db" stroke-width="0.09375" opacity="1.00" d=" M 351.12 435.21 C 354.12 428.98 362.70 426.65 368.48 430.47 C 400.43 449.12 432.44 467.69 464.34 486.43 C 464.78 488.08 465.17 489.76 465.57 491.43 C 467.24 491.96 469.03 492.40 470.37 493.63 C 472.96 495.98 476.49 496.64 479.53 498.20 C 476.19 499.95 472.53 498.31 469.04 498.12 C 464.48 497.60 459.67 499.02 455.33 497.06 C 458.60 495.46 462.41 496.49 465.71 494.98 C 461.92 493.60 457.80 494.34 453.89 493.52 C 454.48 492.69 455.07 491.86 455.67 491.03 C 453.22 491.05 450.78 491.09 448.34 491.15 C 448.17 493.03 448.02 494.90 447.90 496.79 C 447.20 495.93 446.62 494.95 445.75 494.27 C 441.66 493.75 437.52 494.25 433.42 493.82 C 432.58 492.79 431.74 491.76 430.90 490.75 C 427.64 491.76 424.53 490.07 422.30 487.78 C 420.59 485.85 417.92 486.39 415.65 486.33 C 395.66 475.17 376.00 463.30 356.14 451.87 C 350.35 448.82 347.89 440.95 351.12 435.21 Z" />
<path fill="#e4f0dd" stroke="#e4f0dd" stroke-width="0.09375" opacity="1.00" d=" M 711.99 430.90 C 716.93 427.74 724.00 428.81 727.73 433.34 C 732.70 438.72 731.24 448.23 724.93 451.92 C 712.23 459.42 699.44 466.78 686.77 474.31 L 686.49 474.23 C 683.58 473.07 680.45 473.29 677.44 473.83 C 677.79 474.59 678.15 475.37 678.52 476.15 C 676.72 476.09 674.93 476.10 673.14 476.20 C 672.35 475.50 671.57 474.79 670.81 474.10 C 666.06 473.87 661.30 474.21 656.57 473.79 C 655.71 471.99 654.55 470.37 653.53 468.67 C 653.94 466.82 655.20 465.30 656.18 463.72 C 674.63 452.54 693.41 441.87 711.99 430.90 Z" />
<path fill="#deedd6" stroke="#deedd6" stroke-width="0.09375" opacity="1.00" d=" M 576.01 457.50 C 577.47 462.15 576.91 467.05 577.20 471.84 C 584.35 472.10 591.51 471.98 598.67 471.82 C 599.17 469.36 598.14 466.03 600.40 464.32 C 600.38 474.92 600.38 485.52 600.37 496.13 C 619.05 485.45 637.42 474.24 656.18 463.72 C 655.20 465.30 653.94 466.82 653.53 468.67 C 654.55 470.37 655.71 471.99 656.57 473.79 C 661.30 474.21 666.06 473.87 670.81 474.10 C 671.57 474.79 672.35 475.50 673.14 476.20 C 674.93 476.10 676.72 476.09 678.52 476.15 C 678.15 475.37 677.79 474.59 677.44 473.83 C 680.45 473.29 683.58 473.07 686.49 474.23 C 668.56 485.20 650.22 495.52 632.13 506.23 C 623.53 511.07 615.20 516.46 606.45 521.00 C 603.24 521.06 600.27 522.19 597.31 523.29 C 595.65 523.98 594.06 522.82 592.57 522.29 C 592.52 524.05 592.47 525.80 592.44 527.56 C 590.20 528.11 588.00 528.87 585.70 529.06 C 583.22 529.00 580.77 528.02 578.29 528.42 C 576.76 529.04 575.51 530.19 574.00 530.86 C 571.38 529.73 569.06 527.36 565.99 527.84 C 561.97 528.14 557.83 529.41 553.96 527.62 C 555.30 526.06 557.15 525.29 559.19 525.21 C 559.54 523.44 559.80 521.65 559.99 519.87 C 565.21 516.80 570.35 513.58 575.72 510.77 C 576.05 493.02 575.47 475.25 576.01 457.50 Z" />
<path fill="#ddedd3" stroke="#ddedd3" stroke-width="0.09375" opacity="1.00" d=" M 331.48 477.45 C 335.30 472.69 342.71 471.74 347.70 475.19 C 374.30 491.54 400.92 507.85 427.49 524.25 C 423.62 526.33 419.25 527.18 414.96 527.90 C 411.99 528.52 410.78 524.45 408.17 524.18 C 404.60 525.49 400.97 526.60 397.22 527.24 C 397.30 528.39 397.37 529.56 397.46 530.73 C 395.76 530.23 394.05 529.77 392.34 529.34 C 392.68 528.23 393.02 527.12 393.37 526.01 C 391.68 525.07 389.92 524.30 388.09 523.71 C 388.95 524.66 389.84 525.60 390.73 526.54 C 389.94 526.57 389.15 526.62 388.37 526.69 C 388.17 526.99 387.77 527.58 387.57 527.87 L 387.16 528.48 C 369.59 517.44 351.77 506.80 334.16 495.83 C 328.00 492.11 326.67 482.77 331.48 477.45 Z" />
<path fill="#dcedd3" stroke="#dcedd3" stroke-width="0.09375" opacity="1.00" d=" M 730.73 477.73 C 733.80 475.72 737.31 473.85 741.12 474.41 C 747.34 474.87 752.43 480.81 752.09 487.01 C 752.08 491.41 749.44 495.56 745.61 497.65 C 734.47 504.19 723.55 511.09 712.29 517.41 C 717.68 521.45 723.83 524.34 729.58 527.84 C 729.56 528.36 729.51 529.39 729.49 529.91 C 728.26 530.42 727.11 531.61 725.69 531.23 C 722.03 530.52 718.34 529.56 714.59 530.15 C 713.90 531.88 713.33 533.69 712.32 535.28 C 711.37 536.70 709.45 536.48 707.99 536.85 C 706.96 534.22 705.25 531.89 703.09 530.10 C 700.92 530.71 699.44 532.51 697.81 533.94 C 697.27 533.95 696.19 533.97 695.64 533.98 C 695.48 532.34 695.29 530.71 695.06 529.09 C 691.58 530.06 688.00 530.57 684.39 530.40 C 683.46 533.39 680.41 533.87 677.67 533.91 C 677.03 532.57 676.40 531.24 675.77 529.90 C 672.37 529.96 669.44 532.10 666.03 532.05 C 662.67 532.10 659.12 532.47 655.98 530.99 C 653.71 529.85 651.15 529.90 648.68 529.96 C 648.99 528.81 649.30 527.65 649.61 526.50 L 649.65 526.38 C 676.65 510.12 703.71 493.96 730.73 477.73 Z" />
<path fill="#d8eacf" stroke="#d8eacf" stroke-width="0.09375" opacity="1.00" d=" M 549.99 499.95 C 552.46 493.69 549.30 486.66 552.16 480.46 C 552.72 495.00 552.20 509.56 552.41 524.11 C 554.98 522.78 557.47 521.29 559.99 519.87 C 559.80 521.65 559.54 523.44 559.19 525.21 C 557.15 525.29 555.30 526.06 553.96 527.62 C 557.83 529.41 561.97 528.14 565.99 527.84 C 569.06 527.36 571.38 529.73 574.00 530.86 C 575.51 530.19 576.76 529.04 578.29 528.42 C 580.77 528.02 583.22 529.00 585.70 529.06 C 588.00 528.87 590.20 528.11 592.44 527.56 C 592.47 525.80 592.52 524.05 592.57 522.29 C 594.06 522.82 595.65 523.98 597.31 523.29 C 600.27 522.19 603.24 521.06 606.45 521.00 C 593.16 529.62 578.91 536.74 565.65 545.42 C 568.51 547.15 571.51 548.66 574.32 550.49 C 575.47 552.56 576.34 554.78 577.15 557.01 C 580.63 557.91 584.05 559.58 585.81 562.89 C 579.23 563.19 572.63 562.94 566.05 563.09 C 563.76 563.21 561.50 562.77 559.44 561.80 C 558.06 562.63 556.70 563.49 555.34 564.34 C 552.80 563.39 550.12 562.89 547.41 562.98 C 547.45 564.49 547.51 566.00 547.57 567.52 C 546.52 567.65 545.49 567.80 544.46 567.95 C 544.18 566.34 543.91 564.73 543.65 563.14 C 536.26 562.80 528.70 563.54 521.56 561.08 C 522.70 563.53 521.84 566.19 520.35 568.29 C 518.92 569.13 517.24 568.29 515.76 568.09 C 517.09 566.00 519.51 564.69 520.57 562.48 C 512.06 562.30 503.48 561.98 494.93 561.89 C 495.70 560.78 496.16 559.35 497.30 558.56 C 499.17 558.23 501.08 558.33 502.97 558.33 C 503.27 557.71 503.57 557.11 503.88 556.51 C 505.31 555.73 506.74 554.96 508.18 554.19 C 507.78 553.06 507.40 551.93 507.01 550.82 C 510.07 548.91 513.36 547.37 516.23 545.18 C 507.52 540.06 498.77 535.01 490.05 529.90 C 478.04 536.94 466.14 544.16 454.09 551.14 L 453.96 551.10 C 453.49 550.98 452.55 550.73 452.08 550.60 C 449.61 551.80 447.28 553.50 444.48 553.79 C 442.26 554.19 439.90 553.96 437.78 554.78 C 435.62 556.11 435.09 558.80 434.14 560.98 C 433.20 559.95 432.71 558.11 431.06 558.12 C 426.27 557.65 421.44 558.15 416.64 557.82 C 416.04 556.37 415.45 554.92 414.86 553.49 C 412.88 555.25 411.18 557.29 409.75 559.52 C 414.51 560.48 419.37 559.80 424.17 560.24 C 423.74 561.23 423.00 561.80 421.94 561.94 C 414.48 563.62 406.47 559.85 399.31 563.33 C 398.05 564.16 396.63 563.62 395.38 563.13 C 398.65 559.64 403.66 558.81 407.34 555.84 C 407.18 555.33 407.03 554.84 406.89 554.36 C 407.61 552.67 408.31 550.98 409.09 549.33 C 411.00 547.92 413.14 546.85 415.11 545.53 C 405.77 539.93 396.64 533.97 387.17 528.60 L 387.57 527.87 C 387.77 527.58 388.17 526.99 388.37 526.69 C 389.15 526.62 389.94 526.57 390.73 526.54 C 389.84 525.60 388.95 524.66 388.09 523.71 C 389.92 524.30 391.68 525.07 393.37 526.01 C 393.02 527.12 392.68 528.23 392.34 529.34 C 394.05 529.77 395.76 530.23 397.46 530.73 C 397.37 529.56 397.30 528.39 397.22 527.24 C 400.97 526.60 404.60 525.49 408.17 524.18 C 410.78 524.45 411.99 528.52 414.96 527.90 C 419.25 527.18 423.62 526.33 427.49 524.25 C 431.43 526.53 435.28 528.96 439.15 531.36 C 447.93 526.20 456.64 520.92 465.42 515.77 C 449.04 505.61 431.98 496.55 415.65 486.33 C 417.92 486.39 420.59 485.85 422.30 487.78 C 424.53 490.07 427.64 491.76 430.90 490.75 C 431.74 491.76 432.58 492.79 433.42 493.82 C 437.52 494.25 441.66 493.75 445.75 494.27 C 446.62 494.95 447.20 495.93 447.90 496.79 C 448.02 494.90 448.17 493.03 448.34 491.15 C 450.78 491.09 453.22 491.05 455.67 491.03 C 455.07 491.86 454.48 492.69 453.89 493.52 C 457.80 494.34 461.92 493.60 465.71 494.98 C 462.41 496.49 458.60 495.46 455.33 497.06 C 459.67 499.02 464.48 497.60 469.04 498.12 C 472.53 498.31 476.19 499.95 479.53 498.20 C 476.49 496.64 472.96 495.98 470.37 493.63 C 469.03 492.40 467.24 491.96 465.57 491.43 C 465.17 489.76 464.78 488.08 464.34 486.43 C 485.58 498.54 506.58 511.07 527.77 523.27 C 527.84 513.53 527.72 503.79 527.85 494.05 C 526.35 493.08 524.85 492.13 523.38 491.15 C 525.04 490.68 526.96 490.23 528.35 491.65 C 529.25 494.93 528.96 498.39 529.22 501.77 C 533.15 501.82 537.10 502.17 541.03 501.80 C 543.33 501.29 545.48 500.27 547.80 499.83 C 547.98 502.93 548.19 506.03 548.49 509.13 C 548.79 506.04 548.86 502.87 549.99 499.95 Z" />
<path fill="#d6e9cb" stroke="#d6e9cb" stroke-width="0.09375" opacity="1.00" d=" M 600.89 555.54 C 617.16 545.92 633.24 535.96 649.61 526.50 C 649.30 527.65 648.99 528.81 648.68 529.96 C 651.15 529.90 653.71 529.85 655.98 530.99 C 659.12 532.47 662.67 532.10 666.03 532.05 C 669.44 532.10 672.37 529.96 675.77 529.90 C 676.40 531.24 677.03 532.57 677.67 533.91 C 680.41 533.87 683.46 533.39 684.39 530.40 C 688.00 530.57 691.58 530.06 695.06 529.09 C 695.29 530.71 695.48 532.34 695.64 533.98 C 696.19 533.97 697.27 533.95 697.81 533.94 C 699.44 532.51 700.92 530.71 703.09 530.10 C 705.25 531.89 706.96 534.22 707.99 536.85 C 709.45 536.48 711.37 536.70 712.32 535.28 C 713.33 533.69 713.90 531.88 714.59 530.15 C 718.34 529.56 722.03 530.52 725.69 531.23 C 727.11 531.61 728.26 530.42 729.49 529.91 C 729.51 529.39 729.56 528.36 729.58 527.84 C 738.68 533.20 747.85 538.45 756.95 543.81 C 763.16 547.16 765.03 556.16 760.78 561.76 C 757.36 566.79 749.97 568.35 744.77 565.24 C 725.79 554.29 706.88 543.22 687.93 532.22 C 680.53 536.59 673.20 541.07 665.79 545.43 C 673.70 550.52 682.03 554.92 690.11 559.72 C 689.12 561.97 688.56 564.37 688.50 566.83 C 683.34 567.27 678.18 566.79 673.03 566.98 C 670.35 567.02 667.94 568.66 665.28 568.54 C 659.71 567.32 654.32 565.35 649.24 562.77 C 648.77 562.92 647.83 563.22 647.36 563.37 L 647.16 563.44 C 645.21 562.31 643.26 561.19 641.29 560.12 C 638.42 561.85 635.54 563.56 632.72 565.36 L 632.26 565.32 C 627.89 563.88 624.85 567.56 621.46 569.52 C 619.86 570.53 617.93 569.67 616.20 570.13 C 613.55 570.95 611.21 572.48 608.80 573.82 C 608.21 572.57 607.84 571.18 606.95 570.12 C 601.38 569.65 595.77 570.19 590.19 569.92 C 592.13 567.51 593.40 564.66 595.24 562.19 C 596.34 561.72 597.53 561.56 598.71 561.31 C 599.63 560.09 600.53 558.86 601.43 557.63 C 601.30 557.11 601.03 556.06 600.89 555.54 Z" />
<path fill="#d4e8c8" stroke="#d4e8c8" stroke-width="0.09375" opacity="1.00" d=" M 318.91 536.01 C 322.24 530.24 330.54 528.34 336.04 532.14 C 352.40 542.55 368.77 552.95 385.12 563.38 C 393.16 558.78 400.96 553.77 409.09 549.33 C 408.31 550.98 407.61 552.67 406.89 554.36 C 407.03 554.84 407.18 555.33 407.34 555.84 C 403.66 558.81 398.65 559.64 395.38 563.13 C 396.63 563.62 398.05 564.16 399.31 563.33 C 406.47 559.85 414.48 563.62 421.94 561.94 C 423.00 561.80 423.74 561.23 424.17 560.24 C 419.37 559.80 414.51 560.48 409.75 559.52 C 411.18 557.29 412.88 555.25 414.86 553.49 C 415.45 554.92 416.04 556.37 416.64 557.82 C 421.44 558.15 426.27 557.65 431.06 558.12 C 432.71 558.11 433.20 559.95 434.14 560.98 C 435.09 558.80 435.62 556.11 437.78 554.78 C 439.90 553.96 442.26 554.19 444.48 553.79 C 447.28 553.50 449.61 551.80 452.08 550.60 C 452.55 550.73 453.49 550.98 453.96 551.10 C 435.14 562.76 415.86 573.71 396.90 585.15 L 396.70 585.13 C 391.96 583.26 389.28 589.11 384.70 588.38 C 384.64 589.14 384.59 589.91 384.54 590.68 C 380.09 591.69 375.55 592.85 370.96 592.20 C 364.50 591.39 357.99 592.51 351.54 591.64 C 351.05 588.59 351.64 585.55 352.62 582.67 C 355.53 580.99 358.45 579.34 361.21 577.42 C 348.29 569.16 335.28 561.03 322.41 552.70 C 317.05 549.20 315.47 541.37 318.91 536.01 Z" />
<path fill="#d1e7c5" stroke="#d1e7c5" stroke-width="0.09375" opacity="1.00" d=" M 438.81 590.71 C 461.55 577.42 484.24 564.05 507.01 550.82 C 507.40 551.93 507.78 553.06 508.18 554.19 C 506.74 554.96 505.31 555.73 503.88 556.51 C 503.57 557.11 503.27 557.71 502.97 558.33 C 501.08 558.33 499.17 558.23 497.30 558.56 C 496.16 559.35 495.70 560.78 494.93 561.89 C 503.48 561.98 512.06 562.30 520.57 562.48 C 519.51 564.69 517.09 566.00 515.76 568.09 C 517.24 568.29 518.92 569.13 520.35 568.29 C 521.84 566.19 522.70 563.53 521.56 561.08 C 528.70 563.54 536.26 562.80 543.65 563.14 C 543.91 564.73 544.18 566.34 544.46 567.95 C 545.49 567.80 546.52 567.65 547.57 567.52 C 547.51 566.00 547.45 564.49 547.41 562.98 C 550.12 562.89 552.80 563.39 555.34 564.34 C 556.70 563.49 558.06 562.63 559.44 561.80 C 561.50 562.77 563.76 563.21 566.05 563.09 C 572.63 562.94 579.23 563.19 585.81 562.89 C 584.05 559.58 580.63 557.91 577.15 557.01 C 576.34 554.78 575.47 552.56 574.32 550.49 C 580.31 553.80 586.16 557.39 592.11 560.78 C 595.05 559.06 597.95 557.27 600.89 555.54 C 601.03 556.06 601.30 557.11 601.43 557.63 C 600.53 558.86 599.63 560.09 598.71 561.31 C 597.53 561.56 596.34 561.72 595.24 562.19 C 593.40 564.66 592.13 567.51 590.19 569.92 C 595.77 570.19 601.38 569.65 606.95 570.12 C 607.84 571.18 608.21 572.57 608.80 573.82 C 611.21 572.48 613.55 570.95 616.20 570.13 C 617.93 569.67 619.86 570.53 621.46 569.52 C 624.85 567.56 627.89 563.88 632.26 565.32 C 627.27 568.87 621.77 571.62 616.67 574.99 C 627.10 581.32 637.69 587.39 648.26 593.49 C 647.17 594.51 646.26 596.01 647.40 597.37 C 649.16 600.76 653.60 598.66 656.34 600.19 C 656.68 601.71 656.63 603.29 656.69 604.85 C 653.06 602.38 648.58 602.93 644.43 603.00 C 644.94 601.99 645.45 600.98 645.96 599.98 C 642.78 599.60 639.99 601.14 637.02 601.89 C 632.70 602.12 628.36 601.93 624.06 602.50 C 623.23 601.90 622.41 601.30 621.60 600.71 C 618.55 602.14 615.35 600.32 612.20 600.99 C 609.62 599.65 607.18 598.02 604.49 596.90 C 604.30 601.37 604.88 605.92 604.24 610.35 C 602.09 614.67 603.27 619.59 602.90 624.21 C 602.15 624.32 601.41 624.44 600.68 624.56 C 600.02 625.79 599.36 627.03 598.69 628.26 C 598.28 626.93 597.89 625.60 597.51 624.27 C 595.85 623.96 594.16 623.02 592.47 623.46 C 592.04 624.87 591.80 626.33 591.55 627.79 C 591.10 626.15 590.67 624.42 589.20 623.40 C 588.44 624.99 587.72 626.59 587.03 628.21 C 586.48 626.93 585.97 625.63 585.32 624.42 C 584.28 624.28 583.25 624.28 582.22 624.26 C 582.04 622.49 581.87 620.73 581.70 618.98 C 581.10 620.77 580.50 622.57 580.02 624.41 C 579.78 610.35 580.07 596.29 579.86 582.24 C 570.68 576.97 561.59 571.54 552.40 566.29 C 552.20 582.01 552.68 597.77 552.16 613.46 C 550.50 618.08 550.51 623.05 549.60 627.83 C 548.63 627.77 547.67 627.72 546.72 627.67 C 545.69 625.70 545.16 623.03 542.90 622.10 C 538.47 621.61 533.99 622.13 529.55 621.81 C 529.01 620.08 528.45 618.36 527.97 616.62 C 527.55 600.21 527.99 583.76 527.75 567.33 C 519.25 572.24 510.77 577.19 502.32 582.18 C 502.28 583.65 502.25 585.13 502.22 586.61 C 501.87 587.03 501.16 587.86 500.80 588.28 C 501.26 591.80 499.00 594.49 496.62 596.75 C 496.30 596.12 495.65 594.84 495.33 594.20 C 488.22 595.18 481.03 595.35 473.89 595.74 C 470.70 597.05 468.26 599.69 465.42 601.60 C 464.31 601.11 463.21 600.63 462.11 600.17 C 461.02 601.95 460.16 604.26 457.95 604.90 C 454.54 606.25 451.09 604.44 447.93 603.28 C 448.92 602.20 449.91 601.14 450.90 600.07 C 449.00 600.08 447.07 599.85 445.22 600.29 C 443.65 601.35 442.34 602.76 440.77 603.83 C 438.24 604.47 435.60 603.93 433.04 603.81 C 435.00 601.55 437.06 599.38 439.31 597.41 C 438.07 596.22 436.85 595.01 435.71 593.74 C 437.02 593.90 438.32 594.13 439.63 594.37 C 439.35 593.15 439.07 591.91 438.81 590.71 Z" />
<path fill="#d1e7c5" stroke="#d1e7c5" stroke-width="0.09375" opacity="1.00" d=" M 690.11 559.72 C 709.43 570.78 728.62 582.04 747.95 593.08 C 751.70 594.99 755.46 597.77 756.48 602.11 C 758.55 608.68 754.03 616.39 747.19 617.56 C 742.75 618.70 738.59 616.43 734.99 614.13 C 705.80 597.18 676.38 580.60 647.36 563.37 C 647.83 563.22 648.77 562.92 649.24 562.77 C 654.32 565.35 659.71 567.32 665.28 568.54 C 667.94 568.66 670.35 567.02 673.03 566.98 C 678.18 566.79 683.34 567.27 688.50 566.83 C 688.56 564.37 689.12 561.97 690.11 559.72 Z" />
<path fill="#cee5c1" stroke="#cee5c1" stroke-width="0.09375" opacity="1.00" d=" M 329.95 596.15 C 337.49 591.63 345.08 587.18 352.62 582.67 C 351.64 585.55 351.05 588.59 351.54 591.64 C 357.99 592.51 364.50 591.39 370.96 592.20 C 375.55 592.85 380.09 591.69 384.54 590.68 C 384.59 589.91 384.64 589.14 384.70 588.38 C 389.28 589.11 391.96 583.26 396.70 585.13 C 379.13 595.86 361.30 606.17 343.62 616.73 C 340.53 618.69 336.74 620.06 333.08 619.03 C 326.94 617.71 322.57 611.19 323.73 605.00 C 324.29 601.28 326.67 597.96 329.95 596.15 Z" />
<path fill="#cae3bc" stroke="#cae3bc" stroke-width="0.09375" opacity="1.00" d=" M 500.80 588.28 C 501.16 587.86 501.87 587.03 502.22 586.61 C 502.33 620.43 502.20 654.26 502.24 688.08 C 494.06 687.81 485.88 687.95 477.70 687.94 C 477.73 657.52 477.61 627.11 477.70 596.69 C 438.45 619.36 399.43 642.45 360.23 665.21 C 354.62 668.62 346.57 666.44 343.50 660.63 C 339.99 654.84 342.42 646.59 348.44 643.54 C 378.58 625.95 408.65 608.26 438.81 590.71 C 439.07 591.91 439.35 593.15 439.63 594.37 C 438.32 594.13 437.02 593.90 435.71 593.74 C 436.85 595.01 438.07 596.22 439.31 597.41 C 437.06 599.38 435.00 601.55 433.04 603.81 C 435.60 603.93 438.24 604.47 440.77 603.83 C 442.34 602.76 443.65 601.35 445.22 600.29 C 447.07 599.85 449.00 600.08 450.90 600.07 C 449.91 601.14 448.92 602.20 447.93 603.28 C 451.09 604.44 454.54 606.25 457.95 604.90 C 460.16 604.26 461.02 601.95 462.11 600.17 C 463.21 600.63 464.31 601.11 465.42 601.60 C 468.26 599.69 470.70 597.05 473.89 595.74 C 481.03 595.35 488.22 595.18 495.33 594.20 C 495.65 594.84 496.30 596.12 496.62 596.75 C 499.00 594.49 501.26 591.80 500.80 588.28 Z" />
<path fill="#cbe3bd" stroke="#cbe3bd" stroke-width="0.09375" opacity="1.00" d=" M 648.26 593.49 C 675.66 609.51 703.11 625.46 730.52 641.48 C 734.54 643.80 737.00 648.46 736.61 653.10 C 736.31 658.74 731.65 663.80 726.02 664.42 C 722.80 664.95 719.60 663.83 716.91 662.13 C 682.05 641.68 646.98 621.58 612.20 600.99 C 615.35 600.32 618.55 602.14 621.60 600.71 C 622.41 601.30 623.23 601.90 624.06 602.50 C 628.36 601.93 632.70 602.12 637.02 601.89 C 639.99 601.14 642.78 599.60 645.96 599.98 C 645.45 600.98 644.94 601.99 644.43 603.00 C 648.58 602.93 653.06 602.38 656.69 604.85 C 656.63 603.29 656.68 601.71 656.34 600.19 C 653.60 598.66 649.16 600.76 647.40 597.37 C 646.26 596.01 647.17 594.51 648.26 593.49 Z" />
<path fill="#c7e2b9" stroke="#c7e2b9" stroke-width="0.09375" opacity="1.00" d=" M 602.90 624.21 C 603.27 619.59 602.09 614.67 604.24 610.35 C 604.90 635.96 604.29 661.62 604.51 687.25 C 598.49 688.43 592.35 688.37 586.25 688.55 C 586.05 686.27 585.86 684.01 585.59 681.76 C 583.27 682.95 584.19 686.01 583.73 688.14 C 582.46 688.73 581.19 689.32 579.92 689.92 C 579.99 668.08 579.78 646.24 580.02 624.41 C 580.50 622.57 581.10 620.77 581.70 618.98 C 581.87 620.73 582.04 622.49 582.22 624.26 C 583.25 624.28 584.28 624.28 585.32 624.42 C 585.97 625.63 586.48 626.93 587.03 628.21 C 587.72 626.59 588.44 624.99 589.20 623.40 C 590.67 624.42 591.10 626.15 591.55 627.79 C 591.80 626.33 592.04 624.87 592.47 623.46 C 594.16 623.02 595.85 623.96 597.51 624.27 C 597.89 625.60 598.28 626.93 598.69 628.26 C 599.36 627.03 600.02 625.79 600.68 624.56 C 601.41 624.44 602.15 624.32 602.90 624.21 Z" />
<path fill="#c7e2b9" stroke="#c7e2b9" stroke-width="0.09375" opacity="1.00" d=" M 549.60 627.83 C 550.51 623.05 550.50 618.08 552.16 613.46 C 552.71 630.94 552.21 648.45 552.37 665.95 C 552.20 670.42 552.72 674.96 552.13 679.41 C 550.77 682.77 550.82 686.43 550.77 690.01 C 543.61 686.25 535.39 689.04 527.80 687.30 C 527.93 663.74 527.55 640.17 527.97 616.62 C 528.45 618.36 529.01 620.08 529.55 621.81 C 533.99 622.13 538.47 621.61 542.90 622.10 C 545.16 623.03 545.69 625.70 546.72 627.67 C 547.67 627.72 548.63 627.77 549.60 627.83 Z" />
<path fill="#c0ddaf" stroke="#c0ddaf" stroke-width="0.09375" opacity="1.00" d=" M 550.77 690.01 C 550.82 686.43 550.77 682.77 552.13 679.41 C 552.73 697.25 552.19 715.13 552.40 732.99 C 544.23 733.89 536.01 732.57 527.81 733.04 C 527.82 717.79 527.78 702.54 527.80 687.30 C 535.39 689.04 543.61 686.25 550.77 690.01 Z" />
<path fill="#bfddad" stroke="#bfddad" stroke-width="0.09375" opacity="1.00" d=" M 583.73 688.14 C 584.19 686.01 583.27 682.95 585.59 681.76 C 585.86 684.01 586.05 686.27 586.25 688.55 C 592.35 688.37 598.49 688.43 604.51 687.25 C 604.44 707.02 604.63 726.80 604.39 746.57 C 603.71 748.02 602.97 749.45 602.23 750.89 C 602.13 749.44 602.05 748.02 601.98 746.60 C 601.50 746.75 601.03 746.91 600.57 747.08 C 598.08 745.84 595.34 745.75 592.66 746.25 C 591.90 747.28 592.17 749.62 590.64 749.80 C 590.18 748.56 589.77 747.32 589.41 746.08 C 587.22 745.85 585.09 746.24 583.18 747.34 C 582.96 746.26 582.74 745.19 582.53 744.13 C 580.36 749.34 581.59 755.07 580.16 760.43 C 579.66 736.94 580.04 713.42 579.92 689.92 C 581.19 689.32 582.46 688.73 583.73 688.14 Z" />
<path fill="#bcdcab" stroke="#bcdcab" stroke-width="0.09375" opacity="1.00" d=" M 477.70 687.94 C 485.88 687.95 494.06 687.81 502.24 688.08 C 502.29 714.61 502.25 741.14 502.25 767.67 C 501.54 767.86 500.12 768.26 499.41 768.45 C 499.07 769.58 498.73 770.72 498.41 771.87 C 498.11 770.55 497.82 769.25 497.53 767.95 C 496.10 771.06 496.29 774.45 496.37 777.78 C 496.20 777.97 495.88 778.37 495.72 778.56 C 490.62 779.28 485.45 778.83 480.32 778.78 C 480.18 776.18 480.00 773.60 479.72 771.03 C 479.04 772.08 478.39 773.15 477.76 774.25 C 477.63 745.48 477.71 716.71 477.70 687.94 Z" />
<path fill="#b6d8a3" stroke="#b6d8a3" stroke-width="0.09375" opacity="1.00" d=" M 527.81 733.04 C 536.01 732.57 544.23 733.89 552.40 732.99 C 552.39 760.80 552.35 788.61 552.37 816.42 C 551.87 815.95 550.86 815.02 550.36 814.55 C 550.14 812.30 549.90 810.06 549.60 807.84 C 549.10 810.19 548.75 812.57 548.54 814.97 C 546.96 815.38 545.33 815.64 543.71 815.36 C 538.44 814.57 533.12 814.93 527.83 814.97 C 527.81 787.66 527.79 760.35 527.81 733.04 Z" />
<path fill="#b6d8a2" stroke="#b6d8a2" stroke-width="0.09375" opacity="1.00" d=" M 580.16 760.43 C 581.59 755.07 580.36 749.34 582.53 744.13 C 582.74 745.19 582.96 746.26 583.18 747.34 C 585.09 746.24 587.22 745.85 589.41 746.08 C 589.77 747.32 590.18 748.56 590.64 749.80 C 592.17 749.62 591.90 747.28 592.66 746.25 C 595.34 745.75 598.08 745.84 600.57 747.08 C 601.03 746.91 601.50 746.75 601.98 746.60 C 602.05 748.02 602.13 749.44 602.23 750.89 C 602.97 749.45 603.71 748.02 604.39 746.57 C 604.70 762.38 604.43 778.20 604.50 794.02 C 604.61 798.04 604.50 802.48 601.66 805.65 C 597.27 811.48 587.63 811.62 582.99 806.02 C 578.96 801.67 580.10 795.39 579.94 790.00 C 580.10 780.14 579.65 770.26 580.16 760.43 Z" />
<path fill="#b4d79f" stroke="#b4d79f" stroke-width="0.09375" opacity="1.00" d=" M 496.37 777.78 C 496.29 774.45 496.10 771.06 497.53 767.95 C 497.82 769.25 498.11 770.55 498.41 771.87 C 498.73 770.72 499.07 769.58 499.41 768.45 C 500.12 768.26 501.54 767.86 502.25 767.67 C 502.28 777.78 502.27 787.90 502.22 798.02 C 502.28 803.47 498.17 808.57 492.89 809.83 C 485.89 811.75 478.16 806.19 477.79 798.94 C 477.62 790.71 477.60 782.47 477.76 774.25 C 478.39 773.15 479.04 772.08 479.72 771.03 C 480.00 773.60 480.18 776.18 480.32 778.78 C 485.45 778.83 490.62 779.28 495.72 778.56 C 495.88 778.37 496.20 777.97 496.37 777.78 Z" />
<path fill="#afd599" stroke="#afd599" stroke-width="0.09375" opacity="1.00" d=" M 548.54 814.97 C 548.75 812.57 549.10 810.19 549.60 807.84 C 549.90 810.06 550.14 812.30 550.36 814.55 C 550.86 815.02 551.87 815.95 552.37 816.42 C 551.89 823.20 554.20 831.38 548.97 836.85 C 544.11 842.37 534.35 841.79 530.23 835.68 C 526.01 829.64 528.46 821.82 527.83 814.97 C 533.12 814.93 538.44 814.57 543.71 815.36 C 545.33 815.64 546.96 815.38 548.54 814.97 Z" />
</svg>
