<?xml version="1.0" encoding="UTF-8" ?>
<!DOCTYPE svg PUBLIC "-//W3C//DTD SVG 1.1//EN" "http://www.w3.org/Graphics/SVG/1.1/DTD/svg11.dtd">
<svg width="1076pt" height="1076pt" viewBox="0 0 1076 1076" version="1.1" xmlns="http://www.w3.org/2000/svg">
<path fill="#ffffff" stroke="#ffffff" stroke-width="0.09375" opacity="1.00" d=" M 174.45 0.00 L 904.53 0.00 C 927.68 1.01 950.94 4.79 972.46 13.64 C 999.03 24.31 1022.33 42.79 1038.79 66.21 C 1061.06 97.69 1072.43 136.00 1075.03 174.23 L 1076.00 170.63 L 1076.00 901.72 C 1075.88 903.73 1075.71 905.71 1075.66 907.75 L 1074.80 906.78 C 1073.89 943.27 1063.14 980.37 1040.22 1009.22 C 1019.66 1035.44 990.14 1053.52 958.74 1063.83 C 940.62 1069.77 921.76 1073.68 902.71 1074.81 L 902.83 1075.58 C 901.41 1075.70 900.02 1075.86 898.63 1076.00 L 168.74 1076.00 C 166.22 1075.17 163.65 1074.54 161.00 1074.52 C 128.89 1072.39 96.67 1062.85 70.52 1043.66 C 47.06 1026.70 29.37 1002.58 17.98 976.13 C 7.50 951.97 1.73 925.90 0.00 899.66 L 0.00 173.24 C 0.70 146.70 5.40 119.95 16.67 95.77 C 28.37 70.25 47.59 48.41 71.06 33.07 C 101.70 12.89 138.09 2.74 174.45 0.00 M 634.88 213.99 C 599.79 227.52 569.64 253.23 550.50 285.58 C 532.98 314.99 524.80 349.87 527.41 384.00 C 527.77 392.88 529.71 401.56 531.03 410.32 C 496.96 408.28 463.03 403.19 430.08 394.18 C 385.78 382.23 343.23 363.82 304.17 339.76 C 258.45 311.69 217.61 275.81 183.54 234.39 C 183.25 234.34 182.67 234.23 182.38 234.17 C 166.75 261.24 158.85 292.73 160.00 323.97 C 160.77 354.18 170.02 384.10 186.31 409.55 C 198.79 429.27 215.49 446.21 234.80 459.30 C 208.15 458.43 181.85 450.97 158.48 438.18 C 157.55 485.89 178.24 533.39 213.63 565.37 C 235.87 585.83 263.74 599.81 293.22 606.22 C 268.81 613.05 242.85 613.65 217.98 609.07 C 221.55 621.95 227.60 634.07 234.43 645.52 C 244.84 662.50 258.17 677.71 273.84 690.03 C 302.41 712.82 338.60 725.96 375.16 726.54 C 374.60 727.15 374.01 727.73 373.39 728.28 C 340.41 753.69 302.73 773.00 262.80 784.81 C 218.39 798.08 171.29 801.74 125.29 796.53 C 175.34 828.75 231.46 851.51 289.83 863.21 C 332.26 871.77 375.83 874.39 419.00 871.53 C 457.90 869.14 496.57 862.35 533.82 850.84 C 592.65 832.79 647.69 802.56 694.47 762.58 C 789.45 681.61 850.23 562.79 863.43 438.95 C 865.97 415.98 866.18 392.84 865.55 369.76 C 871.65 364.60 878.45 359.99 884.54 354.68 C 909.47 333.74 931.63 309.38 949.57 282.18 C 940.02 285.77 930.68 289.96 920.94 293.06 C 898.98 300.44 876.27 305.70 853.26 308.32 C 887.87 287.34 915.04 253.75 926.93 214.94 C 893.74 234.47 857.30 248.76 819.41 255.82 C 801.16 236.21 778.02 221.21 752.78 212.26 C 714.95 198.76 672.30 199.35 634.88 213.99 Z" />
</svg>
