<?xml version="1.0" encoding="UTF-8" ?>
<!DOCTYPE svg PUBLIC "-//W3C//DTD SVG 1.1//EN" "http://www.w3.org/Graphics/SVG/1.1/DTD/svg11.dtd">
<svg width="2688pt" height="2688pt" viewBox="0 0 2688 2688" version="1.1" xmlns="http://www.w3.org/2000/svg">
<path fill="#427443" stroke="#427443" stroke-width="0.09375" opacity="1.00" d=" M 362.30 1.20 C 397.20 1.33 432.12 0.93 467.01 1.16 C 494.00 0.54 521.01 0.98 548.01 0.85 C 628.00 0.83 707.99 0.87 787.97 0.86 C 819.97 1.50 851.99 0.93 883.98 1.13 C 908.64 0.93 933.29 1.32 957.95 1.01 C 963.77 1.40 969.59 0.43 975.41 1.11 C 975.70 26.71 975.39 52.32 975.55 77.93 C 975.81 81.29 974.90 84.95 975.96 88.15 C 997.09 88.55 1018.25 88.20 1039.39 88.32 C 1039.51 59.28 1039.45 30.24 1039.42 1.20 C 1100.28 1.18 1161.13 1.09 1221.99 1.15 C 1228.32 0.89 1234.66 0.68 1241.01 1.07 C 1289.64 0.66 1338.30 0.94 1386.95 0.85 C 1424.99 0.74 1463.00 1.16 1501.02 1.14 C 1551.93 1.11 1602.84 1.24 1653.76 1.16 C 1654.80 6.06 1653.65 11.04 1654.11 15.98 C 1654.61 25.99 1653.61 36.00 1654.22 46.00 C 1654.17 59.38 1653.41 72.75 1653.87 86.13 C 1654.07 86.70 1654.47 87.85 1654.68 88.42 C 1675.59 88.18 1696.51 88.32 1717.43 88.36 C 1717.90 59.30 1717.54 30.23 1717.71 1.16 C 1744.46 1.33 1771.21 0.68 1797.97 0.87 C 1974.13 0.81 2150.31 0.82 2326.48 0.49 C 2326.83 38.66 2326.53 76.84 2326.63 115.01 C 2326.61 750.68 2326.67 1386.34 2326.60 2022.01 C 2323.59 2046.22 2317.61 2070.04 2310.16 2093.26 C 2303.93 2112.25 2297.04 2131.10 2288.02 2148.97 C 2272.43 2181.04 2252.21 2210.85 2228.25 2237.26 C 2202.22 2265.74 2173.03 2291.29 2141.44 2313.43 C 2109.17 2336.30 2074.74 2356.03 2039.05 2373.03 C 2008.60 2387.59 1977.32 2400.45 1945.35 2411.27 C 1904.10 2425.47 1861.64 2435.86 1818.79 2443.90 C 1729.83 2461.73 1640.77 2480.13 1554.15 2507.43 C 1530.66 2514.98 1507.49 2523.62 1485.11 2534.04 C 1463.36 2544.40 1441.71 2556.35 1425.02 2574.07 C 1418.81 2580.69 1413.94 2588.39 1408.77 2595.81 C 1387.89 2625.82 1368.07 2656.58 1346.21 2685.89 C 1323.43 2653.52 1301.50 2620.57 1279.06 2587.98 C 1274.34 2581.16 1269.04 2574.74 1263.07 2568.99 C 1257.55 2563.34 1250.93 2559.00 1244.58 2554.39 C 1212.17 2532.44 1174.87 2519.52 1138.02 2507.18 C 1116.43 2500.23 1094.62 2494.03 1072.72 2488.17 C 1049.35 2481.88 1025.73 2476.59 1002.22 2470.89 C 979.78 2466.05 957.46 2460.67 934.97 2456.13 C 885.51 2445.65 835.54 2437.26 786.82 2423.57 C 760.39 2416.16 734.50 2406.96 708.95 2396.96 C 634.52 2367.51 563.21 2328.16 503.16 2274.82 C 479.68 2253.95 457.79 2231.11 439.22 2205.73 C 419.36 2179.62 404.19 2150.20 392.26 2119.71 C 375.37 2075.68 365.05 2029.07 362.34 1981.99 C 362.28 1321.73 362.27 661.46 362.30 1.20 M 417.20 57.20 C 417.06 676.14 417.13 1295.08 417.11 1914.03 C 417.21 1938.71 416.59 1963.44 418.78 1988.04 C 422.64 2033.65 434.74 2078.44 453.42 2120.19 C 474.31 2165.07 506.69 2203.85 544.01 2236.03 C 587.51 2273.65 637.42 2303.22 689.44 2327.39 C 739.55 2350.28 791.92 2368.29 845.68 2380.36 C 872.03 2386.04 898.54 2390.98 924.92 2396.55 C 1000.99 2412.08 1076.96 2428.87 1151.03 2452.34 C 1170.86 2458.52 1190.49 2465.37 1209.73 2473.22 C 1245.33 2487.66 1280.22 2506.05 1307.52 2533.56 C 1315.73 2541.54 1321.89 2551.28 1328.48 2560.57 C 1334.32 2568.91 1339.45 2578.01 1346.66 2585.23 C 1350.73 2580.34 1354.90 2575.53 1358.25 2570.10 C 1364.42 2560.18 1371.29 2550.71 1378.50 2541.53 C 1403.43 2512.25 1437.78 2493.05 1472.57 2477.82 C 1509.75 2461.73 1548.49 2449.57 1587.51 2438.84 C 1611.51 2431.73 1635.94 2426.21 1660.21 2420.08 C 1684.57 2414.71 1708.81 2408.83 1733.24 2403.78 C 1755.44 2399.25 1777.56 2394.31 1799.82 2390.07 C 1843.04 2382.05 1885.99 2372.07 1927.57 2357.70 C 1967.46 2344.15 2006.24 2327.35 2043.47 2307.63 C 2077.35 2289.58 2109.68 2268.53 2139.46 2244.28 C 2168.88 2219.86 2195.96 2192.21 2217.22 2160.29 C 2241.15 2124.19 2256.74 2083.08 2266.18 2040.95 C 2270.87 2020.63 2274.06 1999.92 2274.90 1979.08 C 2275.08 1980.36 2275.26 1981.62 2275.52 1982.96 C 2274.67 1973.31 2276.16 1963.65 2276.18 1954.00 C 2276.36 1883.67 2276.12 1813.33 2276.21 1743.00 C 2276.24 1181.14 2276.14 619.28 2276.35 57.43 C 2266.91 57.16 2257.47 57.38 2248.05 57.31 C 2140.03 57.31 2032.02 57.32 1924.01 57.32 C 1873.90 57.45 1823.79 57.04 1773.69 57.43 C 1773.82 86.54 1773.64 115.65 1773.67 144.75 C 1715.00 144.78 1656.34 144.75 1597.68 144.77 C 1597.62 115.58 1597.59 86.39 1597.48 57.20 C 1430.18 57.29 1262.88 57.33 1095.58 57.18 C 1095.00 86.37 1095.65 115.58 1095.07 144.77 C 1036.51 144.68 977.95 144.85 919.39 144.63 C 919.38 115.59 919.22 86.54 919.39 57.50 C 915.93 57.18 912.46 57.31 909.00 57.32 C 745.07 57.26 581.13 57.37 417.20 57.20 Z" />
<path fill="#daebd0" stroke="#daebd0" stroke-width="0.09375" opacity="1.00" d=" M 417.20 57.20 C 581.13 57.37 745.07 57.26 909.00 57.32 C 912.46 57.31 915.93 57.18 919.39 57.50 C 919.22 86.54 919.38 115.59 919.39 144.63 C 977.95 144.85 1036.51 144.68 1095.07 144.77 C 1095.65 115.58 1095.00 86.37 1095.58 57.18 C 1262.88 57.33 1430.18 57.29 1597.48 57.20 C 1597.59 86.39 1597.62 115.58 1597.68 144.77 C 1656.34 144.75 1715.00 144.78 1773.67 144.75 C 1773.64 115.65 1773.82 86.54 1773.69 57.43 C 1823.79 57.04 1873.90 57.45 1924.01 57.32 C 2032.02 57.32 2140.03 57.31 2248.05 57.31 C 2257.47 57.38 2266.91 57.16 2276.35 57.43 C 2276.14 619.28 2276.24 1181.14 2276.21 1743.00 C 2276.12 1813.33 2276.36 1883.67 2276.18 1954.00 C 2276.16 1963.65 2274.67 1973.31 2275.52 1982.96 C 2275.26 1981.62 2275.08 1980.36 2274.90 1979.08 C 2274.06 1999.92 2270.87 2020.63 2266.18 2040.95 C 2256.74 2083.08 2241.15 2124.19 2217.22 2160.29 C 2195.96 2192.21 2168.88 2219.86 2139.46 2244.28 C 2109.68 2268.53 2077.35 2289.58 2043.47 2307.63 C 2006.24 2327.35 1967.46 2344.15 1927.57 2357.70 C 1885.99 2372.07 1843.04 2382.05 1799.82 2390.07 C 1777.56 2394.31 1755.44 2399.25 1733.24 2403.78 C 1708.81 2408.83 1684.57 2414.71 1660.21 2420.08 C 1635.94 2426.21 1611.51 2431.73 1587.51 2438.84 C 1548.49 2449.57 1509.75 2461.73 1472.57 2477.82 C 1437.78 2493.05 1403.43 2512.25 1378.50 2541.53 C 1371.29 2550.71 1364.42 2560.18 1358.25 2570.10 C 1354.90 2575.53 1350.73 2580.34 1346.66 2585.23 C 1339.45 2578.01 1334.32 2568.91 1328.48 2560.57 C 1321.89 2551.28 1315.73 2541.54 1307.52 2533.56 C 1280.22 2506.05 1245.33 2487.66 1209.73 2473.22 C 1190.49 2465.37 1170.86 2458.52 1151.03 2452.34 C 1076.96 2428.87 1000.99 2412.08 924.92 2396.55 C 898.54 2390.98 872.03 2386.04 845.68 2380.36 C 791.92 2368.29 739.55 2350.28 689.44 2327.39 C 637.42 2303.22 587.51 2273.65 544.01 2236.03 C 506.69 2203.85 474.31 2165.07 453.42 2120.19 C 434.74 2078.44 422.64 2033.65 418.78 1988.04 C 416.59 1963.44 417.21 1938.71 417.11 1914.03 C 417.13 1295.08 417.06 676.14 417.20 57.20 M 445.10 86.04 C 445.16 225.91 445.14 365.78 445.14 505.65 C 1046.13 505.96 1647.12 505.70 2248.12 505.80 C 2248.18 365.84 2247.99 225.88 2248.28 85.92 C 2099.39 85.20 1950.49 85.32 1801.59 85.72 C 1801.76 114.74 1801.87 143.76 1801.70 172.78 C 1724.36 172.97 1647.02 172.84 1569.68 172.85 C 1569.57 143.68 1569.77 114.51 1569.49 85.35 C 1476.68 85.26 1383.86 85.53 1291.05 85.41 C 1235.24 85.56 1179.43 85.11 1123.63 85.53 C 1123.70 114.64 1123.69 143.75 1123.49 172.86 C 1061.34 172.88 999.18 172.86 937.03 172.87 C 921.86 172.70 906.66 173.21 891.51 172.61 C 891.71 143.57 891.55 114.54 891.50 85.50 C 856.64 85.29 821.79 85.50 786.93 85.43 C 672.99 85.41 559.04 85.13 445.10 86.04 M 445.15 525.28 C 445.17 973.84 445.14 1422.39 445.14 1870.95 C 444.91 1895.60 445.61 1920.26 444.72 1944.90 C 445.01 1987.23 450.64 2029.78 463.79 2070.11 C 470.63 2091.09 479.10 2111.65 490.42 2130.64 C 497.85 2143.79 506.82 2156.01 516.18 2167.86 C 557.92 2218.72 613.01 2256.77 670.88 2287.13 C 723.75 2314.80 780.20 2335.44 838.12 2349.68 C 863.47 2356.17 889.34 2360.29 914.90 2365.79 C 965.37 2375.78 1015.65 2386.73 1065.60 2399.07 C 1088.61 2404.55 1111.34 2411.12 1134.11 2417.50 C 1176.54 2430.02 1218.64 2444.46 1258.10 2464.66 C 1292.27 2482.21 1324.50 2505.54 1346.53 2537.49 C 1363.37 2513.45 1385.82 2493.74 1410.82 2478.51 C 1446.61 2456.07 1486.39 2441.07 1526.27 2427.69 C 1599.64 2404.13 1674.88 2387.11 1750.28 2371.48 C 1797.59 2361.19 1845.68 2354.02 1892.05 2339.77 C 1931.81 2327.89 1970.56 2312.70 2007.89 2294.57 C 2043.07 2277.12 2077.10 2257.10 2108.36 2233.26 C 2137.68 2210.94 2164.70 2185.26 2186.64 2155.56 C 2209.42 2124.62 2225.14 2088.88 2234.91 2051.83 C 2241.27 2028.33 2244.81 2004.17 2247.01 1979.96 C 2249.19 1941.68 2247.76 1903.31 2248.33 1864.99 C 2248.53 1573.67 2248.56 1282.36 2248.53 991.04 C 2248.56 835.79 2248.00 680.54 2247.97 525.28 C 1647.03 525.26 1046.09 525.27 445.15 525.28 Z" />
<path fill="#427443" stroke="#427443" stroke-width="0.09375" opacity="1.00" d=" M 445.10 86.04 C 559.04 85.13 672.99 85.41 786.93 85.43 C 821.79 85.50 856.64 85.29 891.50 85.50 C 891.55 114.54 891.71 143.57 891.51 172.61 C 906.66 173.21 921.86 172.70 937.03 172.87 C 999.18 172.86 1061.34 172.88 1123.49 172.86 C 1123.69 143.75 1123.70 114.64 1123.63 85.53 C 1179.43 85.11 1235.24 85.56 1291.05 85.41 C 1383.86 85.53 1476.68 85.26 1569.49 85.35 C 1569.77 114.51 1569.57 143.68 1569.68 172.85 C 1647.02 172.84 1724.36 172.97 1801.70 172.78 C 1801.87 143.76 1801.76 114.74 1801.59 85.72 C 1950.49 85.32 2099.39 85.20 2248.28 85.92 C 2247.99 225.88 2248.18 365.84 2248.12 505.80 C 1647.12 505.70 1046.13 505.96 445.14 505.65 C 445.14 365.78 445.16 225.91 445.10 86.04 M 2048.09 282.17 C 2038.03 297.10 2038.88 318.69 2050.55 332.51 C 2055.28 338.20 2061.98 341.66 2068.50 344.89 C 2085.13 352.63 2103.37 355.73 2120.64 361.65 C 2126.36 364.10 2132.06 368.09 2134.21 374.21 C 2136.74 380.95 2133.50 388.73 2127.99 392.98 C 2120.66 398.78 2111.17 401.03 2102.00 401.47 C 2088.50 401.94 2074.97 398.81 2062.87 392.89 C 2056.89 390.13 2051.49 386.37 2045.97 382.85 C 2042.12 390.13 2038.33 397.45 2034.56 404.77 C 2050.45 420.40 2072.87 428.27 2094.93 428.58 C 2114.24 429.60 2134.62 425.42 2150.03 413.19 C 2167.62 400.24 2171.11 373.00 2159.08 355.20 C 2155.79 350.03 2150.95 346.05 2145.58 343.22 C 2126.43 332.35 2104.44 328.66 2083.97 321.15 C 2079.84 319.21 2075.35 316.98 2073.07 312.83 C 2070.78 307.92 2070.77 301.59 2074.30 297.24 C 2078.04 292.42 2083.71 289.07 2089.76 288.14 C 2109.31 284.33 2129.88 289.79 2146.38 300.55 C 2150.82 292.95 2154.87 285.12 2158.09 276.92 C 2139.52 264.89 2117.19 258.32 2095.02 259.67 C 2077.41 260.81 2058.92 267.58 2048.09 282.17 M 527.41 261.90 C 527.59 262.61 527.96 264.04 528.14 264.76 C 550.45 318.67 572.04 372.89 594.86 426.60 C 603.85 426.66 612.84 426.51 621.83 426.24 C 623.66 426.50 624.29 424.44 624.91 423.14 C 646.77 369.49 668.52 315.80 690.83 262.34 C 680.58 261.13 670.22 262.74 659.93 262.17 C 657.70 267.05 655.86 272.08 653.81 277.03 C 638.68 314.60 621.89 351.55 608.95 389.97 C 592.89 346.90 575.20 304.44 557.32 262.10 C 547.35 261.92 537.38 261.89 527.41 261.90 M 815.53 261.92 C 815.25 316.79 815.46 371.67 815.42 426.54 C 858.90 426.44 902.39 426.67 945.87 426.38 C 945.79 417.78 945.81 409.18 945.79 400.57 C 912.32 400.40 878.84 400.56 845.37 400.47 C 845.10 384.64 845.47 368.82 845.30 353.00 C 851.18 352.58 857.10 352.90 863.00 352.80 C 887.59 352.97 912.18 352.69 936.77 352.72 C 936.73 344.25 936.62 335.78 936.72 327.31 C 907.79 327.13 878.86 327.19 849.93 327.22 C 848.49 327.02 846.73 327.64 845.53 326.69 C 845.08 313.88 845.29 301.05 845.45 288.24 C 877.76 288.02 910.09 288.78 942.39 287.77 C 942.67 279.23 942.38 270.67 942.43 262.12 C 900.13 262.06 857.83 261.80 815.53 261.92 M 1076.27 292.01 C 1076.35 336.88 1076.16 381.76 1076.47 426.63 C 1086.36 426.51 1096.25 426.58 1106.14 426.41 C 1106.15 414.24 1106.33 402.06 1105.93 389.90 C 1105.37 387.83 1107.55 387.82 1108.96 387.78 C 1124.23 386.77 1139.55 387.55 1154.85 387.20 C 1164.31 400.19 1173.54 413.36 1182.88 426.44 C 1194.91 426.32 1207.07 427.46 1219.00 425.33 C 1207.30 409.77 1195.50 394.26 1184.04 378.52 C 1204.28 369.16 1216.73 346.94 1216.89 325.01 C 1217.77 302.87 1205.23 280.47 1185.19 270.63 C 1173.21 264.23 1159.46 261.90 1145.98 262.31 C 1122.85 261.34 1099.70 262.55 1076.57 261.74 C 1075.93 271.81 1076.51 281.93 1076.27 292.01 M 1351.32 262.12 C 1351.38 316.92 1351.39 371.72 1351.40 426.52 C 1361.14 426.54 1370.88 426.47 1380.62 426.38 C 1381.65 421.97 1380.65 417.47 1380.84 413.01 C 1380.74 384.00 1380.96 354.98 1380.92 325.97 C 1381.05 317.64 1381.27 309.30 1380.88 300.97 C 1380.68 287.85 1380.80 274.72 1380.25 261.61 C 1370.61 262.09 1360.94 261.62 1351.32 262.12 M 1509.45 288.31 C 1528.23 288.14 1547.01 288.27 1565.79 288.22 C 1565.73 334.30 1565.88 380.38 1565.88 426.46 C 1575.74 426.55 1585.61 426.51 1595.47 426.48 C 1595.70 380.39 1595.20 334.31 1595.81 288.23 C 1614.68 288.23 1633.56 288.35 1652.44 288.26 C 1652.65 279.63 1652.51 271.00 1652.63 262.38 C 1631.77 262.05 1610.90 262.46 1590.04 261.90 C 1562.97 262.03 1535.90 261.68 1508.84 262.15 C 1508.74 270.86 1508.33 279.65 1509.45 288.31 M 1743.19 426.46 C 1753.54 426.71 1763.90 426.39 1774.25 426.39 C 1778.25 417.06 1781.87 407.51 1786.35 398.44 C 1816.13 398.04 1845.94 398.22 1875.74 398.29 C 1879.76 407.77 1884.06 417.13 1888.17 426.58 C 1898.11 426.71 1908.05 426.50 1918.00 426.50 C 1910.76 408.91 1902.64 391.67 1895.05 374.21 C 1878.47 336.84 1861.81 299.50 1844.98 262.24 C 1835.91 261.70 1826.81 261.83 1817.73 261.61 C 1792.04 316.18 1768.26 371.61 1743.19 426.46 Z" />
<path fill="#daebd0" stroke="#daebd0" stroke-width="0.09375" opacity="1.00" d=" M 2048.09 282.17 C 2058.92 267.58 2077.41 260.81 2095.02 259.67 C 2117.19 258.32 2139.52 264.89 2158.09 276.92 C 2154.87 285.12 2150.82 292.95 2146.38 300.55 C 2129.88 289.79 2109.31 284.33 2089.76 288.14 C 2083.71 289.07 2078.04 292.42 2074.30 297.24 C 2070.77 301.59 2070.78 307.92 2073.07 312.83 C 2075.35 316.98 2079.84 319.21 2083.97 321.15 C 2104.44 328.66 2126.43 332.35 2145.58 343.22 C 2150.95 346.05 2155.79 350.03 2159.08 355.20 C 2171.11 373.00 2167.62 400.24 2150.03 413.19 C 2134.62 425.42 2114.24 429.60 2094.93 428.58 C 2072.87 428.27 2050.45 420.40 2034.56 404.77 C 2038.33 397.45 2042.12 390.13 2045.97 382.85 C 2051.49 386.37 2056.89 390.13 2062.87 392.89 C 2074.97 398.81 2088.50 401.94 2102.00 401.47 C 2111.17 401.03 2120.66 398.78 2127.99 392.98 C 2133.50 388.73 2136.74 380.95 2134.21 374.21 C 2132.06 368.09 2126.36 364.10 2120.64 361.65 C 2103.37 355.73 2085.13 352.63 2068.50 344.89 C 2061.98 341.66 2055.28 338.20 2050.55 332.51 C 2038.88 318.69 2038.03 297.10 2048.09 282.17 Z" />
<path fill="#daebd0" stroke="#daebd0" stroke-width="0.09375" opacity="1.00" d=" M 527.41 261.90 C 537.38 261.89 547.35 261.92 557.32 262.10 C 575.20 304.44 592.89 346.90 608.95 389.97 C 621.89 351.55 638.68 314.60 653.81 277.03 C 655.86 272.08 657.70 267.05 659.93 262.17 C 670.22 262.74 680.58 261.13 690.83 262.34 C 668.52 315.80 646.77 369.49 624.91 423.14 C 624.29 424.44 623.66 426.50 621.83 426.24 C 612.84 426.51 603.85 426.66 594.86 426.60 C 572.04 372.89 550.45 318.67 528.14 264.76 C 527.96 264.04 527.59 262.61 527.41 261.90 Z" />
<path fill="#daebd0" stroke="#daebd0" stroke-width="0.09375" opacity="1.00" d=" M 815.53 261.92 C 857.83 261.80 900.13 262.06 942.43 262.12 C 942.38 270.67 942.67 279.23 942.39 287.77 C 910.09 288.78 877.76 288.02 845.45 288.24 C 845.29 301.05 845.08 313.88 845.53 326.69 C 846.73 327.64 848.49 327.02 849.93 327.22 C 878.86 327.19 907.79 327.13 936.72 327.31 C 936.62 335.78 936.73 344.25 936.77 352.72 C 912.18 352.69 887.59 352.97 863.00 352.80 C 857.10 352.90 851.18 352.58 845.30 353.00 C 845.47 368.82 845.10 384.64 845.37 400.47 C 878.84 400.56 912.32 400.40 945.79 400.57 C 945.81 409.18 945.79 417.78 945.87 426.38 C 902.39 426.67 858.90 426.44 815.42 426.54 C 815.46 371.67 815.25 316.79 815.53 261.92 Z" />
<path fill="#daebd0" stroke="#daebd0" stroke-width="0.09375" opacity="1.00" d=" M 1076.27 292.01 C 1076.51 281.93 1075.93 271.81 1076.57 261.74 C 1099.70 262.55 1122.85 261.34 1145.98 262.31 C 1159.46 261.90 1173.21 264.23 1185.19 270.63 C 1205.23 280.47 1217.77 302.87 1216.89 325.01 C 1216.73 346.94 1204.28 369.16 1184.04 378.52 C 1195.50 394.26 1207.30 409.77 1219.00 425.33 C 1207.07 427.46 1194.91 426.32 1182.88 426.44 C 1173.54 413.36 1164.31 400.19 1154.85 387.20 C 1139.55 387.55 1124.23 386.77 1108.96 387.78 C 1107.55 387.82 1105.37 387.83 1105.93 389.90 C 1106.33 402.06 1106.15 414.24 1106.14 426.41 C 1096.25 426.58 1086.36 426.51 1076.47 426.63 C 1076.16 381.76 1076.35 336.88 1076.27 292.01 M 1105.91 287.71 C 1105.79 312.43 1105.81 337.15 1105.89 361.88 C 1121.94 361.23 1138.09 363.96 1154.03 361.14 C 1161.10 359.79 1168.40 357.77 1173.94 352.93 C 1190.00 339.03 1190.22 310.80 1174.09 296.88 C 1166.96 290.53 1157.18 288.68 1147.99 287.72 C 1133.97 287.12 1119.93 288.18 1105.91 287.71 Z" />
<path fill="#daebd0" stroke="#daebd0" stroke-width="0.09375" opacity="1.00" d=" M 1351.32 262.12 C 1360.94 261.62 1370.61 262.09 1380.25 261.61 C 1380.80 274.72 1380.68 287.85 1380.88 300.97 C 1381.27 309.30 1381.05 317.64 1380.92 325.97 C 1380.96 354.98 1380.74 384.00 1380.84 413.01 C 1380.65 417.47 1381.65 421.97 1380.62 426.38 C 1370.88 426.47 1361.14 426.54 1351.40 426.52 C 1351.39 371.72 1351.38 316.92 1351.32 262.12 Z" />
<path fill="#daebd0" stroke="#daebd0" stroke-width="0.09375" opacity="1.00" d=" M 1509.45 288.31 C 1508.33 279.65 1508.74 270.86 1508.84 262.15 C 1535.90 261.68 1562.97 262.03 1590.04 261.90 C 1610.90 262.46 1631.77 262.05 1652.63 262.38 C 1652.51 271.00 1652.65 279.63 1652.44 288.26 C 1633.56 288.35 1614.68 288.23 1595.81 288.23 C 1595.20 334.31 1595.70 380.39 1595.47 426.48 C 1585.61 426.51 1575.74 426.55 1565.88 426.46 C 1565.88 380.38 1565.73 334.30 1565.79 288.22 C 1547.01 288.27 1528.23 288.14 1509.45 288.31 Z" />
<path fill="#daebd0" stroke="#daebd0" stroke-width="0.09375" opacity="1.00" d=" M 1743.19 426.46 C 1768.26 371.61 1792.04 316.18 1817.73 261.61 C 1826.81 261.83 1835.91 261.70 1844.98 262.24 C 1861.81 299.50 1878.47 336.84 1895.05 374.21 C 1902.64 391.67 1910.76 408.91 1918.00 426.50 C 1908.05 426.50 1898.11 426.71 1888.17 426.58 C 1884.06 417.13 1879.76 407.77 1875.74 398.29 C 1845.94 398.22 1816.13 398.04 1786.35 398.44 C 1781.87 407.51 1778.25 417.06 1774.25 426.39 C 1763.90 426.39 1753.54 426.71 1743.19 426.46 M 1830.40 295.71 C 1826.47 304.90 1823.60 314.51 1819.38 323.58 C 1812.25 340.76 1804.10 357.50 1796.95 374.67 C 1819.82 374.57 1842.72 374.76 1865.58 374.33 C 1856.74 354.66 1848.21 334.85 1839.46 315.14 C 1836.38 308.69 1834.02 301.87 1830.40 295.71 Z" />
<path fill="#427443" stroke="#427443" stroke-width="0.09375" opacity="1.00" d=" M 1105.91 287.71 C 1119.93 288.18 1133.97 287.12 1147.99 287.72 C 1157.18 288.68 1166.96 290.53 1174.09 296.88 C 1190.22 310.80 1190.00 339.03 1173.94 352.93 C 1168.40 357.77 1161.10 359.79 1154.03 361.14 C 1138.09 363.96 1121.94 361.23 1105.89 361.88 C 1105.81 337.15 1105.79 312.43 1105.91 287.71 Z" />
<path fill="#427443" stroke="#427443" stroke-width="0.09375" opacity="1.00" d=" M 1830.40 295.71 C 1834.02 301.87 1836.38 308.69 1839.46 315.14 C 1848.21 334.85 1856.74 354.66 1865.58 374.33 C 1842.72 374.76 1819.82 374.57 1796.95 374.67 C 1804.10 357.50 1812.25 340.76 1819.38 323.58 C 1823.60 314.51 1826.47 304.90 1830.40 295.71 Z" />
<path fill="#427443" stroke="#427443" stroke-width="0.09375" opacity="1.00" d=" M 445.15 525.28 C 1046.09 525.27 1647.03 525.26 2247.97 525.28 C 2248.00 680.54 2248.56 835.79 2248.53 991.04 C 2248.56 1282.36 2248.53 1573.67 2248.33 1864.99 C 2247.76 1903.31 2249.19 1941.68 2247.01 1979.96 C 2244.81 2004.17 2241.27 2028.33 2234.91 2051.83 C 2225.14 2088.88 2209.42 2124.62 2186.64 2155.56 C 2164.70 2185.26 2137.68 2210.94 2108.36 2233.26 C 2077.10 2257.10 2043.07 2277.12 2007.89 2294.57 C 1970.56 2312.70 1931.81 2327.89 1892.05 2339.77 C 1845.68 2354.02 1797.59 2361.19 1750.28 2371.48 C 1674.88 2387.11 1599.64 2404.13 1526.27 2427.69 C 1486.39 2441.07 1446.61 2456.07 1410.82 2478.51 C 1385.82 2493.74 1363.37 2513.45 1346.53 2537.49 C 1324.50 2505.54 1292.27 2482.21 1258.10 2464.66 C 1218.64 2444.46 1176.54 2430.02 1134.11 2417.50 C 1111.34 2411.12 1088.61 2404.55 1065.60 2399.07 C 1015.65 2386.73 965.37 2375.78 914.90 2365.79 C 889.34 2360.29 863.47 2356.17 838.12 2349.68 C 780.20 2335.44 723.75 2314.80 670.88 2287.13 C 613.01 2256.77 557.92 2218.72 516.18 2167.86 C 506.82 2156.01 497.85 2143.79 490.42 2130.64 C 479.10 2111.65 470.63 2091.09 463.79 2070.11 C 450.64 2029.78 445.01 1987.23 444.72 1944.90 C 445.61 1920.26 444.91 1895.60 445.14 1870.95 C 445.14 1422.39 445.17 973.84 445.15 525.28 M 1320.39 681.28 C 1311.60 688.40 1307.34 699.88 1307.22 710.98 C 1307.12 735.31 1307.40 759.64 1307.30 783.97 C 1307.06 834.97 1307.16 885.98 1307.67 936.98 C 1307.86 960.98 1307.05 984.96 1307.22 1008.96 C 1307.16 1040.27 1307.53 1071.59 1307.30 1102.91 C 1280.79 1088.31 1255.30 1071.87 1228.78 1057.26 C 1227.92 1056.60 1226.34 1056.27 1226.44 1054.95 C 1225.94 1041.32 1226.53 1027.66 1225.79 1014.04 C 1225.83 979.03 1226.47 944.02 1226.10 909.00 C 1225.47 895.69 1225.89 882.34 1225.41 869.02 C 1225.77 858.68 1225.51 848.31 1226.14 837.98 C 1226.35 806.99 1225.94 776.01 1226.16 745.02 C 1226.11 736.10 1226.88 726.62 1222.60 718.44 C 1215.72 702.35 1197.33 692.02 1180.02 695.28 C 1161.58 698.43 1146.36 716.10 1147.22 735.00 C 1147.45 770.32 1146.84 805.65 1147.46 840.97 C 1148.27 855.32 1147.19 869.68 1147.29 884.04 C 1146.88 925.59 1147.94 967.16 1146.77 1008.71 C 1125.96 995.89 1104.75 983.75 1083.77 971.20 C 1076.76 966.90 1068.87 963.55 1063.65 956.93 C 1064.61 947.64 1064.40 938.29 1064.43 928.97 C 1064.37 886.64 1064.45 844.32 1064.41 801.99 C 1064.25 796.64 1064.90 791.19 1063.65 785.94 C 1061.62 775.37 1055.27 765.61 1046.20 759.76 C 1038.30 754.47 1028.39 752.46 1019.02 753.79 C 1001.62 756.69 986.46 772.03 985.69 789.98 C 985.40 830.95 985.63 871.93 985.60 912.90 C 978.23 910.97 972.43 905.75 965.99 901.96 C 945.42 888.98 924.14 877.20 903.29 864.68 C 887.34 853.62 863.32 856.96 851.14 872.11 C 838.71 886.12 839.10 908.87 850.88 923.15 C 856.35 930.04 864.62 933.56 871.91 938.10 C 999.82 1013.51 1127.48 1089.35 1255.56 1164.46 C 1272.88 1174.91 1290.69 1184.56 1307.51 1195.83 C 1307.35 1226.78 1307.33 1257.73 1307.22 1288.68 C 1275.15 1270.62 1243.51 1251.75 1211.67 1233.28 C 1178.03 1213.57 1144.34 1193.97 1110.51 1174.60 C 1005.96 1113.38 901.34 1052.26 796.62 991.34 C 787.16 985.77 775.32 985.34 765.06 988.85 C 748.86 994.08 737.43 1010.99 738.53 1027.97 C 739.42 1040.69 746.27 1053.12 757.15 1059.95 C 822.13 1097.57 886.59 1136.10 952.08 1172.83 C 1002.95 1204.45 1055.69 1232.94 1106.66 1264.39 C 1106.71 1264.72 1106.83 1265.36 1106.88 1265.68 C 1097.53 1271.49 1087.95 1276.94 1078.52 1282.64 C 1060.29 1293.24 1042.39 1304.47 1023.97 1314.73 C 1013.31 1307.71 1002.32 1301.22 991.37 1294.66 C 907.75 1243.24 824.20 1191.71 740.51 1140.41 C 734.35 1136.74 728.47 1132.32 721.47 1130.38 C 715.13 1128.68 708.38 1128.05 701.98 1129.83 C 691.47 1131.79 682.41 1138.75 676.70 1147.64 C 665.42 1165.80 671.84 1192.96 691.18 1202.88 C 749.41 1239.04 808.15 1274.37 866.20 1310.79 C 888.21 1323.56 909.73 1337.16 931.41 1350.48 C 936.59 1353.87 942.34 1356.46 947.10 1360.45 C 937.87 1365.59 929.37 1371.93 920.05 1376.93 C 897.51 1389.55 875.66 1403.36 853.27 1416.25 C 851.21 1417.68 849.37 1415.35 847.65 1414.49 C 800.83 1384.57 753.90 1354.82 707.07 1324.94 C 701.29 1321.47 695.88 1317.38 689.84 1314.38 C 672.43 1306.16 649.71 1313.51 640.09 1330.09 C 629.70 1346.55 634.35 1370.44 650.01 1381.93 C 658.06 1387.67 666.62 1392.67 674.89 1398.08 C 708.18 1419.57 741.79 1440.56 775.09 1462.03 C 767.11 1467.55 758.80 1472.56 750.37 1477.36 C 724.30 1492.99 698.00 1508.26 672.07 1524.12 C 658.03 1533.59 651.48 1552.90 657.35 1568.87 C 662.65 1585.25 679.58 1597.55 696.98 1595.82 C 707.71 1595.21 716.81 1588.92 725.84 1583.76 C 777.43 1553.07 829.26 1522.77 880.59 1491.65 C 886.12 1488.00 892.24 1485.42 897.78 1481.79 C 942.68 1454.91 987.91 1428.60 1032.79 1401.68 C 1047.76 1392.71 1062.41 1383.18 1077.75 1374.85 C 1114.19 1353.44 1150.53 1331.86 1186.93 1310.38 C 1214.24 1326.42 1241.63 1342.33 1268.97 1358.32 C 1270.68 1358.60 1269.08 1359.89 1268.53 1360.31 C 1261.60 1365.35 1253.97 1369.28 1246.63 1373.66 C 1220.18 1389.28 1193.60 1404.68 1167.10 1420.20 C 1095.54 1461.96 1024.16 1504.01 952.59 1545.75 C 879.19 1588.62 805.85 1631.58 732.46 1674.48 C 715.87 1684.72 708.58 1708.01 717.69 1725.52 C 725.96 1743.93 750.08 1752.81 768.37 1744.41 C 775.20 1741.06 781.60 1736.92 788.21 1733.17 C 900.96 1667.60 1013.28 1601.30 1126.15 1535.94 C 1133.27 1531.99 1140.07 1527.40 1147.45 1523.93 C 1147.40 1737.58 1147.50 1951.23 1147.61 2164.88 C 1147.71 2173.84 1149.98 2183.11 1155.91 2190.05 C 1158.17 2192.49 1160.60 2194.78 1163.05 2197.06 C 1169.74 2202.56 1178.45 2205.09 1187.00 2205.49 C 1194.77 2204.83 1202.65 2202.73 1208.99 2198.02 C 1215.97 2193.15 1221.02 2185.77 1223.78 2177.78 C 1226.18 2170.74 1225.38 2163.26 1225.50 2155.97 C 1225.61 2047.97 1225.64 1939.96 1225.58 1831.96 C 1225.80 1718.96 1225.62 1605.96 1225.64 1492.97 C 1226.02 1487.59 1225.02 1482.05 1226.56 1476.82 C 1248.42 1464.45 1269.98 1451.53 1291.73 1438.94 C 1296.94 1436.13 1301.77 1432.54 1307.26 1430.29 C 1307.57 1461.20 1307.41 1492.12 1307.35 1523.05 C 1307.20 1549.35 1307.88 1575.66 1307.68 1601.97 C 1307.28 1651.66 1307.33 1701.35 1307.50 1751.05 C 1307.38 1905.03 1307.66 2059.01 1307.58 2213.00 C 1307.79 2216.63 1307.00 2220.44 1308.21 2223.98 C 1308.49 2228.97 1308.41 2234.00 1308.22 2239.02 C 1306.89 2243.18 1307.69 2247.65 1307.43 2251.97 C 1307.14 2259.73 1307.73 2267.55 1309.77 2275.07 C 1313.49 2288.89 1325.69 2300.03 1339.97 2301.83 C 1352.53 2304.38 1366.70 2300.00 1375.05 2290.08 C 1383.83 2281.21 1386.06 2268.04 1385.64 2256.03 C 1385.57 2163.68 1385.69 2071.32 1385.66 1978.96 C 1385.84 1946.02 1385.44 1913.03 1385.90 1880.11 C 1385.66 1873.42 1385.42 1866.66 1386.08 1860.00 C 1385.27 1852.38 1385.82 1844.68 1386.03 1837.07 C 1385.18 1821.08 1385.87 1804.96 1384.97 1789.01 C 1385.78 1784.68 1385.30 1780.26 1385.95 1775.93 C 1386.52 1772.60 1385.52 1769.26 1386.13 1765.95 C 1385.28 1752.99 1385.94 1739.95 1385.72 1726.96 C 1385.88 1707.63 1385.29 1688.26 1386.23 1668.98 C 1385.41 1664.66 1386.45 1660.35 1386.28 1656.03 C 1386.29 1645.97 1386.13 1635.92 1385.91 1625.92 C 1386.47 1622.95 1385.87 1619.97 1385.76 1617.02 C 1385.47 1589.69 1384.92 1562.32 1386.28 1535.02 C 1386.19 1523.02 1386.32 1511.01 1386.27 1499.01 C 1386.41 1488.66 1385.48 1478.36 1385.77 1468.01 C 1385.47 1454.32 1386.27 1440.67 1386.31 1426.99 C 1415.61 1443.37 1444.39 1460.74 1473.56 1477.36 C 1474.13 1522.23 1473.03 1567.12 1474.31 1611.96 C 1474.27 1622.65 1474.33 1633.33 1474.22 1644.02 C 1473.45 1650.32 1473.81 1656.68 1473.72 1663.02 C 1473.67 1714.03 1473.75 1765.03 1473.68 1816.03 C 1473.48 1819.70 1474.47 1823.31 1474.31 1827.01 C 1474.16 1851.69 1474.46 1876.37 1474.17 1901.05 C 1473.75 1902.99 1473.49 1905.01 1473.80 1907.03 C 1474.41 1911.04 1473.40 1915.06 1473.71 1919.11 L 1474.34 1919.93 C 1473.60 1928.28 1473.42 1936.69 1474.05 1945.06 C 1473.45 1949.01 1474.81 1952.98 1473.79 1956.93 C 1474.03 1962.27 1473.66 1967.60 1474.29 1972.95 C 1474.09 2004.96 1474.87 2036.97 1474.36 2068.98 C 1474.31 2099.65 1474.41 2130.33 1474.33 2161.00 C 1474.09 2169.70 1475.23 2178.78 1479.67 2186.44 C 1486.32 2198.02 1499.61 2205.64 1513.05 2204.70 C 1532.08 2206.11 1549.66 2190.04 1551.44 2171.33 C 1552.78 2163.61 1552.24 2155.78 1552.34 2147.99 C 1552.34 2117.67 1552.40 2087.36 1552.38 2057.05 C 1552.18 2044.02 1552.91 2030.95 1551.68 2017.98 C 1551.84 2009.63 1551.27 2001.26 1552.25 1992.95 C 1552.47 1942.29 1552.36 1891.62 1552.39 1840.96 C 1552.29 1759.66 1552.64 1678.35 1552.33 1597.05 C 1551.79 1584.72 1550.74 1572.27 1552.39 1559.99 C 1552.70 1548.28 1552.25 1536.56 1552.41 1524.85 C 1554.84 1525.48 1557.19 1526.40 1559.38 1527.68 C 1586.35 1542.33 1612.48 1558.45 1639.01 1573.87 C 1725.89 1624.82 1813.12 1675.15 1900.02 1726.05 C 1910.20 1731.68 1920.04 1739.13 1932.00 1740.22 C 1950.10 1741.98 1968.00 1729.12 1972.78 1711.69 C 1976.57 1699.40 1973.35 1685.57 1965.28 1675.70 C 1961.81 1671.09 1956.94 1667.85 1952.02 1665.00 C 1860.47 1611.61 1768.96 1558.15 1677.40 1504.78 C 1648.50 1488.22 1619.82 1471.26 1591.22 1454.17 C 1607.22 1444.13 1623.88 1435.12 1639.49 1424.45 C 1645.13 1422.63 1649.77 1418.83 1654.85 1415.90 C 1659.64 1413.09 1664.31 1410.06 1669.15 1407.33 C 1672.20 1407.20 1674.46 1409.90 1677.16 1411.03 C 1684.24 1415.42 1691.95 1418.58 1699.03 1422.99 C 1789.30 1476.38 1880.59 1528.04 1971.29 1580.70 C 1981.53 1587.18 1993.61 1593.05 2006.05 1590.59 C 2020.96 1588.85 2033.28 1576.89 2037.59 1562.84 C 2042.11 1548.59 2037.33 1531.84 2025.89 1522.18 C 2019.53 1516.52 2011.75 1512.91 2004.50 1508.59 C 1944.93 1474.19 1885.32 1439.87 1825.78 1405.44 C 1800.14 1390.20 1773.74 1376.24 1748.71 1360.00 C 1755.96 1354.58 1764.22 1350.60 1771.88 1345.76 C 1786.84 1336.72 1801.93 1327.89 1816.88 1318.84 C 1817.80 1318.12 1819.07 1317.96 1820.14 1318.59 C 1879.86 1353.31 1939.54 1388.13 1999.38 1422.66 C 2013.51 1431.49 2033.11 1429.58 2045.51 1418.54 C 2050.51 1413.94 2054.73 1408.27 2056.84 1401.75 C 2061.90 1386.15 2056.81 1367.40 2043.52 1357.44 C 2037.53 1353.30 2031.03 1349.97 2024.81 1346.21 C 1997.04 1329.96 1969.22 1313.81 1941.46 1297.53 C 1926.39 1288.84 1910.78 1280.88 1896.97 1270.21 C 1932.81 1249.96 1967.74 1228.16 2003.20 1207.24 C 2011.83 1202.29 2018.73 1194.19 2021.81 1184.69 C 2024.00 1178.21 2024.08 1171.18 2023.14 1164.48 C 2020.77 1153.99 2014.31 1144.32 2005.12 1138.63 C 1998.69 1134.17 1990.65 1132.55 1982.95 1132.55 C 1969.73 1133.21 1958.94 1141.62 1947.91 1147.97 C 1872.30 1193.35 1796.65 1238.66 1721.09 1284.14 C 1703.34 1294.67 1685.91 1305.71 1668.00 1315.96 C 1648.05 1327.67 1628.24 1339.63 1608.41 1351.53 C 1576.72 1370.80 1544.71 1389.55 1513.01 1408.79 C 1500.22 1401.70 1487.76 1394.06 1475.02 1386.88 C 1459.34 1378.15 1444.24 1368.42 1428.43 1359.92 C 1469.40 1333.09 1513.16 1310.87 1554.44 1284.54 C 1568.10 1276.45 1582.30 1269.29 1595.86 1261.02 C 1631.55 1239.92 1667.40 1219.09 1703.19 1198.17 C 1738.74 1177.48 1774.32 1156.84 1809.41 1135.38 C 1812.07 1133.53 1815.28 1132.75 1818.08 1131.12 C 1854.96 1109.39 1891.88 1087.71 1928.84 1066.10 C 1933.63 1063.24 1938.64 1060.63 1942.88 1056.96 C 1956.08 1044.73 1959.51 1023.21 1950.33 1007.65 C 1944.52 998.28 1935.02 991.04 1924.10 988.95 C 1916.44 987.70 1908.31 987.92 1901.13 991.13 C 1894.88 993.95 1889.17 997.76 1883.21 1001.10 C 1839.34 1026.98 1795.15 1052.31 1751.38 1078.35 C 1734.62 1088.27 1718.07 1098.57 1701.05 1108.03 C 1646.84 1138.79 1593.54 1171.11 1539.42 1202.03 C 1539.35 1168.29 1539.39 1134.55 1539.47 1100.81 C 1587.47 1073.95 1634.87 1046.03 1682.38 1018.32 C 1731.98 989.66 1781.63 961.09 1831.04 932.11 C 1847.62 922.65 1855.04 900.17 1847.33 882.70 C 1840.00 864.17 1816.97 853.40 1798.20 860.59 C 1788.72 864.51 1780.09 870.15 1771.24 875.27 C 1711.59 909.88 1651.94 944.49 1592.38 979.26 C 1574.81 989.55 1556.98 999.38 1539.50 1009.80 C 1539.35 978.26 1539.48 946.72 1539.36 915.18 C 1552.42 906.64 1566.33 899.51 1579.89 891.81 C 1615.88 871.87 1651.82 851.82 1687.75 831.76 C 1695.70 827.13 1703.70 821.38 1707.32 812.56 C 1716.63 795.04 1709.35 771.52 1692.70 761.25 C 1685.60 757.16 1677.28 754.78 1669.05 755.62 C 1660.06 756.65 1651.61 760.37 1644.04 765.20 C 1609.35 784.88 1574.27 803.87 1539.75 823.83 C 1539.02 791.25 1539.81 758.65 1539.29 726.07 C 1538.55 707.70 1523.20 691.28 1505.02 689.00 C 1496.00 688.00 1486.50 689.71 1478.93 694.87 C 1471.36 700.16 1465.04 707.60 1462.24 716.50 C 1459.62 723.70 1460.81 731.45 1460.55 738.93 C 1460.58 768.30 1460.24 797.66 1460.71 827.03 C 1460.45 832.01 1461.65 836.99 1460.87 841.96 C 1460.37 862.96 1460.51 883.97 1460.52 904.97 C 1460.76 959.99 1460.19 1015.01 1460.75 1070.03 C 1461.10 1075.99 1461.69 1081.97 1460.85 1087.93 C 1460.08 1141.65 1461.05 1195.39 1460.31 1249.11 C 1435.10 1262.16 1411.68 1278.48 1386.28 1291.14 C 1385.98 1255.75 1386.46 1220.36 1386.25 1184.95 C 1385.41 1173.31 1385.45 1161.63 1385.50 1149.97 C 1385.39 1144.62 1386.47 1139.33 1386.31 1133.99 C 1385.96 1084.34 1386.40 1034.68 1386.30 985.03 C 1386.39 978.34 1385.51 971.69 1385.65 965.01 C 1385.72 956.01 1384.77 946.94 1386.27 938.02 C 1386.34 862.69 1386.19 787.36 1386.24 712.03 C 1386.14 699.76 1381.12 687.11 1371.12 679.61 C 1356.78 667.92 1333.85 668.45 1320.39 681.28 Z" />
<path fill="#daebd0" stroke="#daebd0" stroke-width="0.09375" opacity="1.00" d=" M 1320.39 681.28 C 1333.85 668.45 1356.78 667.92 1371.12 679.61 C 1381.12 687.11 1386.14 699.76 1386.24 712.03 C 1386.19 787.36 1386.34 862.69 1386.27 938.02 C 1384.77 946.94 1385.72 956.01 1385.65 965.01 C 1385.51 971.69 1386.39 978.34 1386.30 985.03 C 1386.40 1034.68 1385.96 1084.34 1386.31 1133.99 C 1386.47 1139.33 1385.39 1144.62 1385.50 1149.97 C 1385.45 1161.63 1385.41 1173.31 1386.25 1184.95 C 1386.46 1220.36 1385.98 1255.75 1386.28 1291.14 C 1411.68 1278.48 1435.10 1262.16 1460.31 1249.11 C 1461.05 1195.39 1460.08 1141.65 1460.85 1087.93 C 1461.69 1081.97 1461.10 1075.99 1460.75 1070.03 C 1460.19 1015.01 1460.76 959.99 1460.52 904.97 C 1460.51 883.97 1460.37 862.96 1460.87 841.96 C 1461.65 836.99 1460.45 832.01 1460.71 827.03 C 1460.24 797.66 1460.58 768.30 1460.55 738.93 C 1460.81 731.45 1459.62 723.70 1462.24 716.50 C 1465.04 707.60 1471.36 700.16 1478.93 694.87 C 1486.50 689.71 1496.00 688.00 1505.02 689.00 C 1523.20 691.28 1538.55 707.70 1539.29 726.07 C 1539.81 758.65 1539.02 791.25 1539.75 823.83 C 1574.27 803.87 1609.35 784.88 1644.04 765.20 C 1651.61 760.37 1660.06 756.65 1669.05 755.62 C 1677.28 754.78 1685.60 757.16 1692.70 761.25 C 1709.35 771.52 1716.63 795.04 1707.32 812.56 C 1703.70 821.38 1695.70 827.13 1687.75 831.76 C 1651.82 851.82 1615.88 871.87 1579.89 891.81 C 1566.33 899.51 1552.42 906.64 1539.36 915.18 C 1539.48 946.72 1539.35 978.26 1539.50 1009.80 C 1556.98 999.38 1574.81 989.55 1592.38 979.26 C 1651.94 944.49 1711.59 909.88 1771.24 875.27 C 1780.09 870.15 1788.72 864.51 1798.20 860.59 C 1816.97 853.40 1840.00 864.17 1847.33 882.70 C 1855.04 900.17 1847.62 922.65 1831.04 932.11 C 1781.63 961.09 1731.98 989.66 1682.38 1018.32 C 1634.87 1046.03 1587.47 1073.95 1539.47 1100.81 C 1539.39 1134.55 1539.35 1168.29 1539.42 1202.03 C 1593.54 1171.11 1646.84 1138.79 1701.05 1108.03 C 1718.07 1098.57 1734.62 1088.27 1751.38 1078.35 C 1795.15 1052.31 1839.34 1026.98 1883.21 1001.10 C 1889.17 997.76 1894.88 993.95 1901.13 991.13 C 1908.31 987.92 1916.44 987.70 1924.10 988.95 C 1935.02 991.04 1944.52 998.28 1950.33 1007.65 C 1959.51 1023.21 1956.08 1044.73 1942.88 1056.96 C 1938.64 1060.63 1933.63 1063.24 1928.84 1066.10 C 1891.88 1087.71 1854.96 1109.39 1818.08 1131.12 C 1815.28 1132.75 1812.07 1133.53 1809.41 1135.38 C 1774.32 1156.84 1738.74 1177.48 1703.19 1198.17 C 1667.40 1219.09 1631.55 1239.92 1595.86 1261.02 C 1582.30 1269.29 1568.10 1276.45 1554.44 1284.54 C 1513.16 1310.87 1469.40 1333.09 1428.43 1359.92 C 1444.24 1368.42 1459.34 1378.15 1475.02 1386.88 C 1487.76 1394.06 1500.22 1401.70 1513.01 1408.79 C 1544.71 1389.55 1576.72 1370.80 1608.41 1351.53 C 1628.24 1339.63 1648.05 1327.67 1668.00 1315.96 C 1685.91 1305.71 1703.34 1294.67 1721.09 1284.14 C 1796.65 1238.66 1872.30 1193.35 1947.91 1147.97 C 1958.94 1141.62 1969.73 1133.21 1982.95 1132.55 C 1990.65 1132.55 1998.69 1134.17 2005.12 1138.63 C 2014.31 1144.32 2020.77 1153.99 2023.14 1164.48 C 2024.08 1171.18 2024.00 1178.21 2021.81 1184.69 C 2018.73 1194.19 2011.83 1202.29 2003.20 1207.24 C 1967.74 1228.16 1932.81 1249.96 1896.97 1270.21 C 1910.78 1280.88 1926.39 1288.84 1941.46 1297.53 C 1969.22 1313.81 1997.04 1329.96 2024.81 1346.21 C 2031.03 1349.97 2037.53 1353.30 2043.52 1357.44 C 2056.81 1367.40 2061.90 1386.15 2056.84 1401.75 C 2054.73 1408.27 2050.51 1413.94 2045.51 1418.54 C 2033.11 1429.58 2013.51 1431.49 1999.38 1422.66 C 1939.54 1388.13 1879.86 1353.31 1820.14 1318.59 C 1819.07 1317.96 1817.80 1318.12 1816.88 1318.84 C 1801.93 1327.89 1786.84 1336.72 1771.88 1345.76 C 1764.22 1350.60 1755.96 1354.58 1748.71 1360.00 C 1773.74 1376.24 1800.14 1390.20 1825.78 1405.44 C 1885.32 1439.87 1944.93 1474.19 2004.50 1508.59 C 2011.75 1512.91 2019.53 1516.52 2025.89 1522.18 C 2037.33 1531.84 2042.11 1548.59 2037.59 1562.84 C 2033.28 1576.89 2020.96 1588.85 2006.05 1590.59 C 1993.61 1593.05 1981.53 1587.18 1971.29 1580.70 C 1880.59 1528.04 1789.30 1476.38 1699.03 1422.99 C 1691.95 1418.58 1684.24 1415.42 1677.16 1411.03 C 1674.46 1409.90 1672.20 1407.20 1669.15 1407.33 C 1664.31 1410.06 1659.64 1413.09 1654.85 1415.90 C 1649.77 1418.83 1645.13 1422.63 1639.49 1424.45 C 1623.88 1435.12 1607.22 1444.13 1591.22 1454.17 C 1619.82 1471.26 1648.50 1488.22 1677.40 1504.78 C 1768.96 1558.15 1860.47 1611.61 1952.02 1665.00 C 1956.94 1667.85 1961.81 1671.09 1965.28 1675.70 C 1973.35 1685.57 1976.57 1699.40 1972.78 1711.69 C 1968.00 1729.12 1950.10 1741.98 1932.00 1740.22 C 1920.04 1739.13 1910.20 1731.68 1900.02 1726.05 C 1813.12 1675.15 1725.89 1624.82 1639.01 1573.87 C 1612.48 1558.45 1586.35 1542.33 1559.38 1527.68 C 1557.19 1526.40 1554.84 1525.48 1552.41 1524.85 C 1552.25 1536.56 1552.70 1548.28 1552.39 1559.99 C 1550.74 1572.27 1551.79 1584.72 1552.33 1597.05 C 1552.64 1678.35 1552.29 1759.66 1552.39 1840.96 C 1552.36 1891.62 1552.47 1942.29 1552.25 1992.95 C 1551.27 2001.26 1551.84 2009.63 1551.68 2017.98 C 1552.91 2030.95 1552.18 2044.02 1552.38 2057.05 C 1552.40 2087.36 1552.34 2117.67 1552.34 2147.99 C 1552.24 2155.78 1552.78 2163.61 1551.44 2171.33 C 1549.66 2190.04 1532.08 2206.11 1513.05 2204.70 C 1499.61 2205.64 1486.32 2198.02 1479.67 2186.44 C 1475.23 2178.78 1474.09 2169.70 1474.33 2161.00 C 1474.41 2130.33 1474.31 2099.65 1474.36 2068.98 C 1474.87 2036.97 1474.09 2004.96 1474.29 1972.95 C 1473.66 1967.60 1474.03 1962.27 1473.79 1956.93 C 1474.81 1952.98 1473.45 1949.01 1474.05 1945.06 C 1473.42 1936.69 1473.60 1928.28 1474.34 1919.93 L 1473.71 1919.11 C 1473.40 1915.06 1474.41 1911.04 1473.80 1907.03 C 1473.49 1905.01 1473.75 1902.99 1474.17 1901.05 C 1474.46 1876.37 1474.16 1851.69 1474.31 1827.01 C 1474.47 1823.31 1473.48 1819.70 1473.68 1816.03 C 1473.75 1765.03 1473.67 1714.03 1473.72 1663.02 C 1473.81 1656.68 1473.45 1650.32 1474.22 1644.02 C 1474.33 1633.33 1474.27 1622.65 1474.31 1611.96 C 1473.03 1567.12 1474.13 1522.23 1473.56 1477.36 C 1444.39 1460.74 1415.61 1443.37 1386.31 1426.99 C 1386.27 1440.67 1385.47 1454.32 1385.77 1468.01 C 1385.48 1478.36 1386.41 1488.66 1386.27 1499.01 C 1386.32 1511.01 1386.19 1523.02 1386.28 1535.02 C 1384.92 1562.32 1385.47 1589.69 1385.76 1617.02 C 1385.87 1619.97 1386.47 1622.95 1385.91 1625.92 C 1386.13 1635.92 1386.29 1645.97 1386.28 1656.03 C 1386.45 1660.35 1385.41 1664.66 1386.23 1668.98 C 1385.29 1688.26 1385.88 1707.63 1385.72 1726.96 C 1385.94 1739.95 1385.28 1752.99 1386.13 1765.95 C 1385.52 1769.26 1386.52 1772.60 1385.95 1775.93 C 1385.30 1780.26 1385.78 1784.68 1384.97 1789.01 C 1385.87 1804.96 1385.18 1821.08 1386.03 1837.07 C 1385.82 1844.68 1385.27 1852.38 1386.08 1860.00 C 1385.42 1866.66 1385.66 1873.42 1385.90 1880.11 C 1385.44 1913.03 1385.84 1946.02 1385.66 1978.96 C 1385.69 2071.32 1385.57 2163.68 1385.64 2256.03 C 1386.06 2268.04 1383.83 2281.21 1375.05 2290.08 C 1366.70 2300.00 1352.53 2304.38 1339.97 2301.83 C 1325.69 2300.03 1313.49 2288.89 1309.77 2275.07 C 1307.73 2267.55 1307.14 2259.73 1307.43 2251.97 C 1307.69 2247.65 1306.89 2243.18 1308.22 2239.02 C 1308.41 2234.00 1308.49 2228.97 1308.21 2223.98 C 1307.00 2220.44 1307.79 2216.63 1307.58 2213.00 C 1307.66 2059.01 1307.38 1905.03 1307.50 1751.05 C 1307.33 1701.35 1307.28 1651.66 1307.68 1601.97 C 1307.88 1575.66 1307.20 1549.35 1307.35 1523.05 C 1307.41 1492.12 1307.57 1461.20 1307.26 1430.29 C 1301.77 1432.54 1296.94 1436.13 1291.73 1438.94 C 1269.98 1451.53 1248.42 1464.45 1226.56 1476.82 C 1225.02 1482.05 1226.02 1487.59 1225.64 1492.97 C 1225.62 1605.96 1225.80 1718.96 1225.58 1831.96 C 1225.64 1939.96 1225.61 2047.97 1225.50 2155.97 C 1225.38 2163.26 1226.18 2170.74 1223.78 2177.78 C 1221.02 2185.77 1215.97 2193.15 1208.99 2198.02 C 1202.65 2202.73 1194.77 2204.83 1187.00 2205.49 C 1178.45 2205.09 1169.74 2202.56 1163.05 2197.06 C 1160.60 2194.78 1158.17 2192.49 1155.91 2190.05 C 1149.98 2183.11 1147.71 2173.84 1147.61 2164.88 C 1147.50 1951.23 1147.40 1737.58 1147.45 1523.93 C 1140.07 1527.40 1133.27 1531.99 1126.15 1535.94 C 1013.28 1601.30 900.96 1667.60 788.21 1733.17 C 781.60 1736.92 775.20 1741.06 768.37 1744.41 C 750.08 1752.81 725.96 1743.93 717.69 1725.52 C 708.58 1708.01 715.87 1684.72 732.46 1674.48 C 805.85 1631.58 879.19 1588.62 952.59 1545.75 C 1024.16 1504.01 1095.54 1461.96 1167.10 1420.20 C 1193.60 1404.68 1220.18 1389.28 1246.63 1373.66 C 1253.97 1369.28 1261.60 1365.35 1268.53 1360.31 C 1269.08 1359.89 1270.68 1358.60 1268.97 1358.32 C 1241.63 1342.33 1214.24 1326.42 1186.93 1310.38 C 1150.53 1331.86 1114.19 1353.44 1077.75 1374.85 C 1062.41 1383.18 1047.76 1392.71 1032.79 1401.68 C 987.91 1428.60 942.68 1454.91 897.78 1481.79 C 892.24 1485.42 886.12 1488.00 880.59 1491.65 C 829.26 1522.77 777.43 1553.07 725.84 1583.76 C 716.81 1588.92 707.71 1595.21 696.98 1595.82 C 679.58 1597.55 662.65 1585.25 657.35 1568.87 C 651.48 1552.90 658.03 1533.59 672.07 1524.12 C 698.00 1508.26 724.30 1492.99 750.37 1477.36 C 758.80 1472.56 767.11 1467.55 775.09 1462.03 C 741.79 1440.56 708.18 1419.57 674.89 1398.08 C 666.62 1392.67 658.06 1387.67 650.01 1381.93 C 634.35 1370.44 629.70 1346.55 640.09 1330.09 C 649.71 1313.51 672.43 1306.16 689.84 1314.38 C 695.88 1317.38 701.29 1321.47 707.07 1324.94 C 753.90 1354.82 800.83 1384.57 847.65 1414.49 C 849.37 1415.35 851.21 1417.68 853.27 1416.25 C 875.66 1403.36 897.51 1389.55 920.05 1376.93 C 929.37 1371.93 937.87 1365.59 947.10 1360.45 C 942.34 1356.46 936.59 1353.87 931.41 1350.48 C 909.73 1337.16 888.21 1323.56 866.20 1310.79 C 808.15 1274.37 749.41 1239.04 691.18 1202.88 C 671.84 1192.96 665.42 1165.80 676.70 1147.64 C 682.41 1138.75 691.47 1131.79 701.98 1129.83 C 708.38 1128.05 715.13 1128.68 721.47 1130.38 C 728.47 1132.32 734.35 1136.74 740.51 1140.41 C 824.20 1191.71 907.75 1243.24 991.37 1294.66 C 1002.32 1301.22 1013.31 1307.71 1023.97 1314.73 C 1042.39 1304.47 1060.29 1293.24 1078.52 1282.64 C 1087.95 1276.94 1097.53 1271.49 1106.88 1265.68 C 1106.83 1265.36 1106.71 1264.72 1106.66 1264.39 C 1055.69 1232.94 1002.95 1204.45 952.08 1172.83 C 886.59 1136.10 822.13 1097.57 757.15 1059.95 C 746.27 1053.12 739.42 1040.69 738.53 1027.97 C 737.43 1010.99 748.86 994.08 765.06 988.85 C 775.32 985.34 787.16 985.77 796.62 991.34 C 901.34 1052.26 1005.96 1113.38 1110.51 1174.60 C 1144.34 1193.97 1178.03 1213.57 1211.67 1233.28 C 1243.51 1251.75 1275.15 1270.62 1307.22 1288.68 C 1307.33 1257.73 1307.35 1226.78 1307.51 1195.83 C 1290.69 1184.56 1272.88 1174.91 1255.56 1164.46 C 1127.48 1089.35 999.82 1013.51 871.91 938.10 C 864.62 933.56 856.35 930.04 850.88 923.15 C 839.10 908.87 838.71 886.12 851.14 872.11 C 863.32 856.96 887.34 853.62 903.29 864.68 C 924.14 877.20 945.42 888.98 965.99 901.96 C 972.43 905.75 978.23 910.97 985.60 912.90 C 985.63 871.93 985.40 830.95 985.69 789.98 C 986.46 772.03 1001.62 756.69 1019.02 753.79 C 1028.39 752.46 1038.30 754.47 1046.20 759.76 C 1055.27 765.61 1061.62 775.37 1063.65 785.94 C 1064.90 791.19 1064.25 796.64 1064.41 801.99 C 1064.45 844.32 1064.37 886.64 1064.43 928.97 C 1064.40 938.29 1064.61 947.64 1063.65 956.93 C 1068.87 963.55 1076.76 966.90 1083.77 971.20 C 1104.75 983.75 1125.96 995.89 1146.77 1008.71 C 1147.94 967.16 1146.88 925.59 1147.29 884.04 C 1147.19 869.68 1148.27 855.32 1147.46 840.97 C 1146.84 805.65 1147.45 770.32 1147.22 735.00 C 1146.36 716.10 1161.58 698.43 1180.02 695.28 C 1197.33 692.02 1215.72 702.35 1222.60 718.44 C 1226.88 726.62 1226.11 736.10 1226.16 745.02 C 1225.94 776.01 1226.35 806.99 1226.14 837.98 C 1225.51 848.31 1225.77 858.68 1225.41 869.02 C 1225.89 882.34 1225.47 895.69 1226.10 909.00 C 1226.47 944.02 1225.83 979.03 1225.79 1014.04 C 1226.53 1027.66 1225.94 1041.32 1226.44 1054.95 C 1226.34 1056.27 1227.92 1056.60 1228.78 1057.26 C 1255.30 1071.87 1280.79 1088.31 1307.30 1102.91 C 1307.53 1071.59 1307.16 1040.27 1307.22 1008.96 C 1307.05 984.96 1307.86 960.98 1307.67 936.98 C 1307.16 885.98 1307.06 834.97 1307.30 783.97 C 1307.40 759.64 1307.12 735.31 1307.22 710.98 C 1307.34 699.88 1311.60 688.40 1320.39 681.28 Z" />
</svg>
