<?xml version="1.0" encoding="UTF-8" ?>
<!DOCTYPE svg PUBLIC "-//W3C//DTD SVG 1.1//EN" "http://www.w3.org/Graphics/SVG/1.1/DTD/svg11.dtd">
<svg width="1076pt" height="1076pt" viewBox="0 0 1076 1076" version="1.1" xmlns="http://www.w3.org/2000/svg">
<path fill="#fdfcfd" stroke="#fdfcfd" stroke-width="0.09375" opacity="1.00" d=" M 151.62 8.44 C 165.70 4.31 180.26 1.63 194.95 1.20 C 405.63 1.13 616.31 1.17 826.99 1.16 C 844.98 1.28 862.98 0.89 880.97 1.40 C 897.40 1.42 913.61 5.00 929.25 9.80 C 987.12 28.10 1036.36 72.43 1059.73 128.55 C 1066.99 145.89 1071.80 164.25 1073.94 182.93 C 1074.52 187.20 1074.49 191.55 1075.41 195.79 C 1076.98 205.49 1074.89 215.23 1074.98 224.94 C 1075.03 232.96 1075.26 240.98 1074.95 249.00 C 1075.59 254.65 1074.52 260.31 1075.18 265.96 C 1074.49 273.30 1075.67 280.66 1074.95 288.01 C 1074.97 316.00 1075.21 344.02 1074.91 372.03 C 1074.60 378.74 1075.36 385.44 1075.18 392.16 L 1074.82 392.83 C 1074.86 531.55 1074.82 670.26 1074.83 808.98 C 1074.96 824.98 1074.58 840.99 1075.03 856.98 C 1075.20 866.99 1074.76 877.00 1074.36 887.02 C 1073.97 899.95 1070.62 912.55 1067.07 924.91 C 1057.06 959.37 1037.61 990.91 1011.76 1015.74 C 978.11 1047.97 933.65 1069.04 887.16 1073.40 C 875.13 1074.57 863.04 1074.19 850.97 1074.29 C 815.10 1074.26 779.22 1074.60 743.35 1074.05 C 743.11 1021.03 742.80 968.02 742.91 915.00 C 743.25 862.00 743.21 808.99 742.91 756.00 C 743.86 723.47 742.08 690.93 743.47 658.42 C 779.98 658.13 816.49 658.54 853.00 658.35 C 863.40 658.17 873.81 658.11 884.20 657.56 C 890.22 603.92 898.17 550.52 904.52 496.93 C 884.05 495.71 863.52 493.82 843.02 495.31 C 809.86 499.19 776.60 493.48 743.37 494.81 C 742.30 470.21 743.82 445.59 742.91 420.98 C 742.75 400.92 742.50 380.67 746.27 360.88 C 749.48 345.31 758.87 330.59 772.99 322.84 C 784.49 316.15 797.90 313.92 810.99 312.92 C 818.98 312.41 827.00 311.76 835.02 312.08 C 860.17 312.22 885.33 312.13 910.48 311.83 C 910.73 263.55 911.27 215.26 910.14 166.98 C 888.17 164.64 866.06 164.12 844.06 162.23 C 824.05 161.70 804.03 161.02 784.02 161.24 C 760.43 161.39 736.73 163.80 713.97 170.17 C 679.17 180.03 647.00 199.81 623.39 227.33 C 598.52 257.52 583.43 295.19 578.51 333.87 C 576.51 348.51 576.55 363.31 576.59 378.05 C 576.28 416.70 576.63 455.34 576.63 493.99 C 542.05 501.34 506.75 491.68 471.95 495.95 C 459.75 497.25 447.46 496.50 435.21 496.66 C 435.17 550.39 435.14 604.11 435.25 657.83 C 481.75 658.98 528.27 658.01 574.78 658.38 C 573.01 685.93 578.42 713.45 575.83 740.98 C 571.57 772.51 579.18 804.22 575.72 835.79 C 571.92 864.15 578.47 892.62 576.13 921.04 C 572.39 946.29 576.32 971.70 576.60 997.03 C 576.89 1007.06 575.14 1016.99 574.85 1027.01 C 574.46 1042.78 574.93 1058.55 574.88 1074.33 C 459.94 1074.44 345.00 1074.16 230.06 1074.29 C 215.02 1074.21 199.91 1074.86 184.94 1072.85 C 123.55 1065.39 65.69 1029.76 33.06 976.97 C 12.02 944.12 0.25 905.10 1.16 866.00 C 1.19 655.68 1.20 445.37 1.16 235.06 C 1.21 219.41 0.96 203.75 1.70 188.12 C 5.13 146.97 22.49 107.52 48.88 75.94 C 75.44 43.95 111.53 19.77 151.62 8.44 Z" />
</svg>
