<?xml version="1.0" encoding="UTF-8" ?>
<!DOCTYPE svg PUBLIC "-//W3C//DTD SVG 1.1//EN" "http://www.w3.org/Graphics/SVG/1.1/DTD/svg11.dtd">
<svg width="1076pt" height="1076pt" viewBox="0 0 1076 1076" version="1.1" xmlns="http://www.w3.org/2000/svg">
<path fill="#ffffff" stroke="#ffffff" stroke-width="0.09375" opacity="1.00" d=" M 183.34 1.33 C 209.88 0.91 236.45 1.26 263.00 1.15 C 462.33 1.15 661.67 1.15 861.00 1.14 C 872.02 1.19 883.08 0.87 894.06 2.13 C 934.81 6.13 974.70 22.30 1005.43 49.60 C 1014.76 58.24 1023.89 67.20 1031.78 77.20 C 1050.18 100.46 1062.86 128.12 1068.89 157.13 C 1071.83 170.22 1072.04 183.68 1073.69 196.94 C 1073.77 392.63 1073.71 588.31 1073.73 784.00 C 1073.85 811.67 1073.43 839.33 1073.93 867.00 C 1074.14 880.17 1072.49 893.25 1071.14 906.33 C 1066.25 946.21 1047.73 984.05 1020.20 1013.20 C 988.19 1047.91 943.09 1070.41 895.98 1074.33 C 888.65 1074.77 881.32 1075.87 874.00 1074.79 C 657.00 1074.73 440.00 1074.80 223.00 1074.76 C 208.03 1074.70 193.04 1075.10 178.08 1074.37 C 167.44 1074.09 157.00 1071.76 146.71 1069.19 C 117.15 1061.45 89.25 1046.98 66.42 1026.60 C 45.20 1007.47 27.62 984.11 16.21 957.85 C 6.95 936.80 1.50 914.00 0.80 890.99 C 0.78 660.99 0.81 431.00 0.79 201.00 C 0.63 182.70 0.40 163.91 6.45 146.39 C 12.90 123.46 23.24 101.59 37.34 82.37 C 46.08 70.29 56.53 59.57 67.55 49.57 C 96.86 23.76 134.25 7.41 173.02 2.95 C 176.48 2.58 179.87 1.69 183.34 1.33 M 536.78 100.80 C 532.53 106.84 534.22 114.63 532.34 121.38 C 529.03 124.31 524.64 125.56 520.98 127.95 C 515.78 130.94 512.98 136.64 511.22 142.14 C 507.95 152.62 509.71 164.29 515.35 173.64 C 508.91 179.60 502.90 186.50 500.14 194.99 C 498.63 198.94 498.13 203.28 496.07 207.02 C 494.58 209.70 491.51 210.64 488.95 211.94 C 462.09 224.65 439.70 245.27 421.60 268.57 C 409.29 284.43 398.66 301.57 389.32 319.33 C 377.96 344.52 371.60 371.68 367.72 398.96 C 365.63 412.57 364.77 426.33 362.90 439.97 C 361.30 456.54 362.60 473.24 361.09 489.81 C 356.99 496.39 348.72 498.22 343.01 503.02 C 321.29 521.33 306.20 545.88 292.42 570.37 C 281.82 589.70 270.42 608.72 262.28 629.27 C 255.43 646.58 251.13 665.26 252.60 683.96 C 245.57 688.65 238.94 694.54 235.26 702.29 C 231.69 709.65 232.83 718.07 232.55 725.98 C 232.29 740.36 239.80 753.48 249.12 763.90 C 255.36 770.64 261.24 777.76 268.19 783.81 C 276.45 791.58 285.07 798.97 293.97 806.01 C 324.43 829.90 358.33 850.19 395.51 861.61 C 411.68 866.92 428.29 871.16 445.27 872.76 C 451.91 882.25 455.34 893.41 460.12 903.86 C 464.05 912.98 468.70 921.87 471.04 931.59 C 457.87 932.81 444.62 932.13 431.43 932.57 C 424.51 937.39 424.59 948.88 431.24 953.93 C 450.77 954.83 470.37 953.61 489.92 953.83 C 499.47 962.50 508.70 972.53 512.89 985.01 C 514.27 988.38 515.30 992.39 518.57 994.47 C 523.13 996.61 529.30 995.66 532.39 991.46 C 534.96 988.24 534.46 983.86 534.09 980.05 C 532.22 969.61 524.64 961.54 520.95 951.80 C 533.86 951.74 546.76 951.74 559.67 951.57 C 562.41 947.96 565.66 943.90 565.10 939.08 C 564.14 936.04 561.88 933.55 559.49 931.53 C 557.14 929.52 553.88 929.88 551.02 929.86 C 532.70 930.02 514.39 930.34 496.08 930.38 C 487.66 913.60 481.24 895.92 472.95 879.08 C 512.01 879.63 551.38 882.65 590.15 876.31 C 595.90 886.47 600.63 897.15 605.96 907.52 C 592.42 908.74 578.02 904.99 565.28 911.28 C 564.90 916.34 563.69 922.00 566.38 926.64 C 568.96 930.37 574.05 929.50 577.97 929.69 C 591.89 930.05 605.88 928.54 619.74 930.14 C 630.87 939.65 642.56 949.62 648.81 963.20 C 650.60 966.70 650.96 970.75 652.77 974.24 C 657.44 981.15 670.10 979.06 672.22 970.96 C 672.92 966.47 671.66 961.94 670.24 957.72 C 666.11 946.84 658.37 937.95 652.35 928.12 C 666.87 928.12 681.41 928.31 695.89 927.26 C 700.25 925.53 701.50 920.51 703.68 916.83 C 701.56 913.67 700.64 908.81 696.56 907.63 C 674.69 907.01 652.79 907.50 630.90 907.57 C 629.88 906.68 629.44 905.37 628.80 904.24 C 623.28 893.12 617.57 882.08 612.48 870.75 C 642.67 864.32 671.61 851.15 695.46 831.44 C 702.80 825.50 709.31 818.65 715.97 811.98 C 742.21 784.53 760.95 750.26 771.27 713.79 C 779.14 713.74 787.06 713.00 794.62 710.69 C 805.25 707.66 814.84 701.39 822.05 693.02 C 833.31 680.03 839.53 663.35 842.55 646.62 C 842.96 627.18 845.07 607.39 840.58 588.25 C 832.01 555.52 815.07 525.38 793.67 499.35 C 789.37 493.80 782.40 488.74 782.89 481.00 C 782.04 459.25 778.04 437.81 774.38 416.41 C 767.10 375.38 751.23 336.55 734.17 298.75 C 729.45 289.46 723.95 280.57 718.09 271.95 C 698.54 243.38 672.40 218.30 640.16 204.77 C 636.83 203.66 636.66 199.63 637.33 196.76 C 642.23 169.24 637.73 139.44 621.98 116.02 C 613.98 103.44 601.83 93.68 588.14 87.95 C 579.58 85.91 570.71 86.75 562.00 86.66 C 551.80 86.57 542.71 92.92 536.78 100.80 Z" />
<path fill="#ffffff" stroke="#ffffff" stroke-width="0.09375" opacity="1.00" d=" M 563.86 107.82 C 569.91 105.64 576.44 107.43 582.16 109.76 C 595.58 115.69 605.06 128.03 610.92 141.13 C 618.13 158.64 616.16 177.97 615.54 196.42 C 589.21 192.84 562.31 192.04 536.01 196.37 C 531.23 197.08 526.55 198.31 521.77 199.02 C 526.33 190.31 537.33 191.14 544.93 186.89 C 550.46 184.18 548.89 176.69 548.07 171.85 C 542.47 167.66 534.81 165.06 532.07 158.02 C 529.91 153.50 532.15 148.72 534.00 144.55 C 540.40 144.67 546.53 147.27 552.95 146.74 C 558.35 146.22 562.73 140.66 561.61 135.27 C 560.24 128.57 554.48 123.18 555.08 116.00 C 555.00 111.28 560.02 108.99 563.86 107.82 Z" />
<path fill="#ffffff" stroke="#ffffff" stroke-width="0.09375" opacity="1.00" d=" M 569.45 215.58 C 574.97 214.61 580.47 215.84 585.98 216.19 C 595.15 216.58 604.48 216.61 613.29 219.56 C 645.22 226.51 671.88 248.09 691.68 273.33 C 704.89 289.98 715.04 308.82 723.96 328.05 C 742.81 369.61 753.45 414.47 759.07 459.63 C 759.63 465.09 761.03 470.45 761.14 475.96 C 761.26 482.79 761.20 489.68 762.47 496.43 C 764.66 513.18 763.45 530.13 764.78 546.93 C 765.90 557.25 765.55 567.64 765.80 577.99 C 766.00 612.60 764.54 647.45 757.54 681.43 C 750.73 714.29 738.57 746.47 718.87 773.84 C 695.71 807.72 661.20 834.03 621.77 845.84 C 611.13 848.79 600.51 851.96 589.58 853.69 C 572.54 856.68 555.25 857.83 538.02 859.04 C 533.70 859.28 529.38 859.90 525.05 859.54 C 503.18 857.99 481.23 856.98 459.56 853.53 C 442.92 850.56 426.15 848.03 409.97 843.01 C 355.57 826.75 306.97 793.92 268.50 752.50 C 261.13 744.80 253.92 735.25 254.18 724.06 C 254.18 718.94 253.60 713.20 256.89 708.85 C 258.47 706.59 261.29 705.68 263.95 705.74 C 286.15 705.17 308.69 708.69 330.61 703.74 C 338.30 701.80 346.01 699.65 353.17 696.17 C 368.93 688.61 382.12 676.36 392.11 662.12 C 401.13 649.20 407.81 634.60 411.39 619.24 C 420.72 579.74 410.94 536.15 385.39 504.57 C 382.18 500.85 380.99 495.79 381.25 490.97 C 381.62 483.94 383.50 477.05 383.44 469.99 C 383.32 452.92 385.25 435.92 387.10 418.97 C 388.81 400.96 392.35 383.18 396.50 365.59 C 400.13 350.41 405.19 335.46 412.82 321.81 C 429.98 292.29 450.20 263.33 478.59 243.59 C 496.73 230.77 517.82 222.26 539.68 218.46 C 549.50 216.52 559.54 216.69 569.45 215.58 M 539.33 378.39 C 528.01 382.88 525.56 398.28 530.87 408.19 C 536.13 416.72 548.43 418.61 556.86 413.91 C 568.40 406.84 568.82 387.01 556.83 380.15 C 551.71 376.63 545.11 377.53 539.33 378.39 M 670.46 378.52 C 663.80 382.20 658.12 389.02 658.44 397.01 C 657.84 404.56 663.35 410.84 669.29 414.70 C 671.79 416.59 675.05 416.40 678.02 416.36 C 683.99 416.15 690.07 413.51 693.75 408.70 C 696.01 401.18 694.89 393.15 694.33 385.45 C 688.78 378.76 678.75 375.81 670.46 378.52 M 563.29 447.38 C 580.64 461.82 598.17 476.04 616.24 489.58 C 626.76 479.32 636.96 468.72 647.84 458.83 C 652.90 454.30 657.79 449.52 661.75 443.97 C 644.95 435.76 628.62 426.64 611.83 418.42 C 595.31 427.48 579.44 437.67 563.29 447.38 Z" />
<path fill="#ffffff" stroke="#ffffff" stroke-width="0.09375" opacity="1.00" d=" M 319.21 568.19 C 331.57 548.11 344.63 527.11 365.18 514.42 C 384.38 536.37 394.50 565.88 393.29 594.97 C 391.45 615.19 384.62 635.14 372.60 651.59 C 361.05 668.03 342.57 679.28 322.76 682.40 C 307.08 683.93 291.32 682.85 275.61 682.54 C 273.36 661.34 279.91 640.26 289.63 621.64 C 299.08 603.60 308.67 585.62 319.21 568.19 Z" />
<path fill="#ffffff" stroke="#ffffff" stroke-width="0.09375" opacity="1.00" d=" M 785.72 526.41 C 797.96 541.47 807.36 558.77 813.95 577.00 C 819.03 591.48 822.88 606.58 823.14 622.00 C 823.22 638.97 819.37 656.14 810.89 670.92 C 808.02 676.12 804.23 680.92 799.26 684.26 C 792.87 688.71 785.07 690.70 777.36 690.92 C 785.36 656.24 787.88 620.53 787.22 585.01 C 787.04 565.47 787.48 545.90 785.72 526.41 Z" />
</svg>
